<svg width="24" height="24" viewBox="0 0 24 24" fill="none" xmlns="http://www.w3.org/2000/svg">
<path d="M20.28 13C20.0539 11.2644 19.2034 9.67059 17.8874 8.51661C16.5715 7.36262 14.8802 6.7275 13.13 6.73H3.90999C3.65662 6.72997 3.40578 6.78035 3.17207 6.87821C2.93836 6.97607 2.72646 7.11944 2.5487 7.29999C2.37094 7.48054 2.23088 7.69466 2.13668 7.92986C2.04248 8.16507 1.99601 8.41667 1.99999 8.67V16.08C1.99998 16.5875 2.2009 17.0743 2.55881 17.4341C2.91672 17.7939 3.40251 17.9974 3.90999 18H4.74999C4.79762 17.5425 5.01307 17.1189 5.35473 16.811C5.69639 16.503 6.14004 16.3326 6.59999 16.3326C7.05995 16.3326 7.50359 16.503 7.84525 16.811C8.18691 17.1189 8.40236 17.5425 8.44999 18H14.45C14.4976 17.5425 14.7131 17.1189 15.0547 16.811C15.3964 16.503 15.84 16.3326 16.3 16.3326C16.7599 16.3326 17.2036 16.503 17.5453 16.811C17.8869 17.1189 18.1024 17.5425 18.15 18H20.34C20.5588 18 20.7755 17.9567 20.9776 17.8727C21.1796 17.7886 21.3631 17.6655 21.5173 17.5103C21.6716 17.3551 21.7937 17.1709 21.8765 16.9683C21.9593 16.7658 22.0013 16.5488 22 16.33V14.76C22.004 14.5311 21.9625 14.3038 21.8779 14.0911C21.7934 13.8783 21.6675 13.6845 21.5075 13.5208C21.3475 13.3571 21.1567 13.2268 20.946 13.1374C20.7352 13.048 20.5089 13.0013 20.28 13Z" stroke="black" stroke-width="2" stroke-linecap="round" stroke-linejoin="round"/>
<path d="M8.44999 18C8.40236 17.5425 8.18691 17.1189 7.84525 16.811C7.50358 16.503 7.05994 16.3326 6.59999 16.3326C6.14003 16.3326 5.69639 16.503 5.35473 16.811C5.01307 17.1189 4.79762 17.5425 4.74999 18C4.74504 18.0499 4.74504 18.1001 4.74999 18.15C4.74999 18.3943 4.7981 18.6361 4.89157 18.8618C4.98504 19.0875 5.12205 19.2925 5.29477 19.4652C5.46748 19.6379 5.67253 19.7749 5.8982 19.8684C6.12386 19.9619 6.36573 20.01 6.60999 20.01C6.85425 20.01 7.09611 19.9619 7.32178 19.8684C7.54744 19.7749 7.75249 19.6379 7.92521 19.4652C8.09792 19.2925 8.23493 19.0875 8.3284 18.8618C8.42188 18.6361 8.46999 18.3943 8.46999 18.15C8.46833 18.0995 8.46163 18.0492 8.44999 18Z" stroke="black" stroke-width="2" stroke-linecap="round" stroke-linejoin="round"/>
<path d="M18.15 18C18.1024 17.5425 17.8869 17.1189 17.5453 16.811C17.2036 16.503 16.76 16.3326 16.3 16.3326C15.84 16.3326 15.3964 16.503 15.0547 16.811C14.7131 17.1189 14.4976 17.5425 14.45 18C14.4451 18.0499 14.4451 18.1001 14.45 18.15C14.45 18.6433 14.646 19.1164 14.9948 19.4652C15.3436 19.814 15.8167 20.01 16.31 20.01C16.8033 20.01 17.2764 19.814 17.6252 19.4652C17.974 19.1164 18.17 18.6433 18.17 18.15C18.17 18.15 18.15 18.05 18.15 18Z" stroke="black" stroke-width="2" stroke-linecap="round" stroke-linejoin="round"/>
<path d="M10.22 4C10.586 4 10.937 4.14539 11.1958 4.40419C11.4546 4.66299 11.6 5.014 11.6 5.38V6.76H8.84003V5.37C8.84267 5.00574 8.98922 4.65729 9.24774 4.40065C9.50625 4.14401 9.85575 3.99999 10.22 4Z" stroke="black" stroke-width="2" stroke-linecap="round" stroke-linejoin="round"/>
<path d="M12.72 12.91H17.27C17.0749 11.8878 16.53 10.9655 15.7289 10.3013C14.9279 9.63708 13.9206 9.27245 12.88 9.27H12.72V12.91Z" stroke="black" stroke-width="2" stroke-linecap="round" stroke-linejoin="round"/>
<path d="M6.59998 9.85001V12.91" stroke="black" stroke-width="2" stroke-linecap="round" stroke-linejoin="round"/>
<path d="M8.13001 11.38H5.07001" stroke="black" stroke-width="2" stroke-linecap="round" stroke-linejoin="round"/>
</svg>
