<svg width="24" height="24" viewBox="0 0 24 24" fill="none" xmlns="http://www.w3.org/2000/svg">
<path d="M10.87 10.1C11.0067 9.96017 11.1614 9.83911 11.33 9.74L10.18 8.59C10.211 8.29653 10.173 7.99986 10.0688 7.72375C9.96457 7.44765 9.79717 7.19978 9.57997 7L4.40997 2.36999C4.13284 2.18208 3.79888 2.09661 3.46555 2.12829C3.13221 2.15997 2.82034 2.30683 2.58357 2.54359C2.34681 2.78036 2.19995 3.09224 2.16827 3.42557C2.13658 3.75891 2.22205 4.09286 2.40997 4.36999L6.99997 9.58C7.2039 9.80304 7.45835 9.97393 7.74197 10.0783C8.02558 10.1827 8.3301 10.2176 8.62997 10.18L9.77997 11.33C9.87909 11.1614 10.0001 11.0067 10.14 10.87L10.87 10.1Z" stroke="black" stroke-width="2" stroke-linecap="round" stroke-linejoin="round"/>
<path d="M11.33 9.74C11.1614 9.83912 11.0067 9.96017 10.87 10.1L10.1 10.87C9.89285 11.0705 9.72813 11.3106 9.61563 11.576C9.50313 11.8414 9.44516 12.1267 9.44516 12.415C9.44516 12.7033 9.50313 12.9886 9.61563 13.254C9.72813 13.5194 9.89285 13.7595 10.1 13.96L12.43 16.29L16.29 12.43L14 10.1C13.6578 9.75255 13.2099 9.52865 12.7266 9.46349C12.2433 9.39832 11.752 9.49559 11.33 9.74Z" stroke="black" stroke-width="2" stroke-linecap="round" stroke-linejoin="round"/>
<path d="M16.2894 12.43L12.4286 16.2908L18.1349 21.9971L21.9957 18.1363L16.2894 12.43Z" stroke="black" stroke-width="2" stroke-linecap="round" stroke-linejoin="round"/>
</svg>
