<svg width="24" height="24" viewBox="0 0 24 24" fill="none" xmlns="http://www.w3.org/2000/svg">
<path d="M16.6 2C15.1678 2 13.7943 2.56893 12.7816 3.58162C11.7689 4.59432 11.2 5.96783 11.2 7.4C11.2 8.40782 10.7996 9.37437 10.087 10.087C9.37437 10.7996 8.40782 11.2 7.4 11.2C5.96783 11.2 4.59432 11.7689 3.58162 12.7816C2.56893 13.7943 2 15.1678 2 16.6C2 18.0322 2.56893 19.4057 3.58162 20.4184C4.59432 21.4311 5.96783 22 7.4 22H11.2C14.0635 21.9974 16.809 20.8586 18.8338 18.8338C20.8586 16.809 21.9974 14.0635 22 11.2V7.4C22 5.96783 21.4311 4.59432 20.4184 3.58162C19.4057 2.56893 18.0322 2 16.6 2Z" stroke="black" stroke-width="2" stroke-linecap="round" stroke-linejoin="round"/>
<path d="M16.25 11.42C17.5865 11.42 18.67 10.3365 18.67 9C18.67 7.66347 17.5865 6.58 16.25 6.58C14.9135 6.58 13.83 7.66347 13.83 9C13.83 10.3365 14.9135 11.42 16.25 11.42Z" stroke="black" stroke-width="2" stroke-linecap="round" stroke-linejoin="round"/>
<path d="M8.27999 18.07C9.28515 18.07 10.1 17.2552 10.1 16.25C10.1 15.2448 9.28515 14.43 8.27999 14.43C7.27483 14.43 6.45999 15.2448 6.45999 16.25C6.45999 17.2552 7.27483 18.07 8.27999 18.07Z" stroke="black" stroke-width="2" stroke-linecap="round" stroke-linejoin="round"/>
</svg>
