<svg width="24" height="24" viewBox="0 0 24 24" fill="none" xmlns="http://www.w3.org/2000/svg">
<path d="M16 1.99999C14.6103 1.99999 13.2774 2.55206 12.2948 3.53475C11.3121 4.51745 10.76 5.85026 10.76 7.23999C10.76 7.36999 10.76 7.48999 10.76 7.60999C11.8576 8.99372 12.8599 10.4504 13.76 11.97C14.4666 12.3043 15.2383 12.4784 16.02 12.48C17.4097 12.4773 18.7415 11.9227 19.7223 10.9382C20.7031 9.9536 21.2526 8.61973 21.25 7.22999C21.2473 5.84026 20.6927 4.5085 19.7082 3.52768C18.7236 2.54687 17.3897 1.99734 16 1.99999Z" stroke="black" stroke-width="2" stroke-linecap="round" stroke-linejoin="round"/>
<path d="M13.74 12C12.8399 10.4804 11.8376 9.02373 10.74 7.64C9.74 6.31 8.91 5.39 8.91 5.39C8.91 5.39 2.73 12.39 2.73 15.85C2.73 17.489 3.3811 19.0609 4.54008 20.2199C5.69905 21.3789 7.27096 22.03 8.91 22.03C10.549 22.03 12.1209 21.3789 13.2799 20.2199C14.4389 19.0609 15.09 17.489 15.09 15.85C14.9449 14.4793 14.4827 13.1612 13.74 12Z" stroke="black" stroke-width="2" stroke-linecap="round" stroke-linejoin="round"/>
<path d="M16 8.92C16.9278 8.92 17.68 8.16784 17.68 7.24C17.68 6.31216 16.9278 5.56 16 5.56C15.0722 5.56 14.32 6.31216 14.32 7.24C14.32 8.16784 15.0722 8.92 16 8.92Z" stroke="black" stroke-width="2" stroke-linecap="round" stroke-linejoin="round"/>
<path d="M16 4.83V5.57" stroke="black" stroke-width="2" stroke-linecap="round" stroke-linejoin="round"/>
<path d="M12.65 15.3H11.35L9.04 18.46L8.74 15.3H7.51L6.37 12.52L5.03 15.3H2.8" stroke="black" stroke-width="2" stroke-linecap="round" stroke-linejoin="round"/>
</svg>
