<svg width="24" height="24" viewBox="0 0 24 24" fill="none" xmlns="http://www.w3.org/2000/svg">
<path d="M14.27 12.7C14.27 13.302 14.0308 13.8794 13.6051 14.3051C13.1794 14.7308 12.602 14.97 12 14.97C11.398 14.97 10.8206 14.7308 10.3949 14.3051C9.96916 13.8794 9.73 13.302 9.73 12.7C9.73 11.45 12 9.07001 12 9.07001C12 9.07001 14.27 11.45 14.27 12.7Z" stroke="black" stroke-width="2" stroke-linecap="round" stroke-linejoin="round"/>
<path d="M16.25 5H13.51V3.51C13.5345 3.29847 13.5139 3.08416 13.4497 2.88114C13.3855 2.67812 13.2791 2.49097 13.1374 2.33199C12.9958 2.173 12.8221 2.04578 12.6278 1.95866C12.4335 1.87154 12.2229 1.82651 12.01 1.82651C11.7971 1.82651 11.5865 1.87154 11.3922 1.95866C11.1979 2.04578 11.0243 2.173 10.8826 2.33199C10.7409 2.49097 10.6345 2.67812 10.5703 2.88114C10.5061 3.08416 10.4855 3.29847 10.51 3.51V5H7.75C7.22828 5.01305 6.73233 5.22951 6.368 5.60318C6.00368 5.97684 5.79984 6.47812 5.8 7V17.69C5.79988 17.9499 5.85198 18.2072 5.9532 18.4465C6.05442 18.6859 6.20271 18.9025 6.38926 19.0834C6.57581 19.2644 6.79682 19.406 7.03916 19.4999C7.2815 19.5938 7.54023 19.638 7.8 19.63H16.3C16.5556 19.6313 16.809 19.5821 17.0455 19.4852C17.282 19.3883 17.4971 19.2456 17.6783 19.0653C17.8595 18.8851 18.0033 18.6708 18.1014 18.4347C18.1995 18.1987 18.25 17.9456 18.25 17.69V6.91C18.2268 6.39532 18.0059 5.90944 17.6333 5.55362C17.2607 5.19779 16.7652 4.99948 16.25 5Z" stroke="black" stroke-width="2" stroke-linecap="round" stroke-linejoin="round"/>
<path d="M13.74 19.63H10.26V22H13.74V19.63Z" stroke="black" stroke-width="2" stroke-linecap="round" stroke-linejoin="round"/>
</svg>
