<svg width="24" height="24" viewBox="0 0 24 24" fill="none" xmlns="http://www.w3.org/2000/svg">
<path d="M16 2C13.3953 2.81332 10.6046 2.81332 7.99999 2C5.08999 2 2.29999 4.36 2.75999 7.19C3.08999 9.19 7.47999 22.09 8.35999 22C8.73095 21.9465 9.06966 21.7596 9.31266 21.4742C9.55566 21.1889 9.68626 20.8247 9.67999 20.45V17.15C9.67999 16.5347 9.92442 15.9446 10.3595 15.5095C10.7946 15.0744 11.3847 14.83 12 14.83C12.6153 14.83 13.2054 15.0744 13.6405 15.5095C14.0756 15.9446 14.32 16.5347 14.32 17.15V20.45C14.3137 20.8247 14.4443 21.1889 14.6873 21.4742C14.9303 21.7596 15.269 21.9465 15.64 22C16.52 22.09 20.91 9.18 21.24 7.19C21.7 4.36 18.91 2 16 2Z" stroke="black" stroke-width="2" stroke-linecap="round" stroke-linejoin="round"/>
</svg>
