<svg width="24" height="24" viewBox="0 0 24 24" fill="none" xmlns="http://www.w3.org/2000/svg">
<path d="M14.7 10.52L13.64 11.33C13.0929 11.7437 12.4258 11.9675 11.74 11.9675C11.0541 11.9675 10.387 11.7437 9.83999 11.33L8.77999 10.52C8.33043 10.1795 7.96565 9.73963 7.71413 9.23484C7.4626 8.73006 7.33114 8.17398 7.32999 7.61V6.05C7.32995 5.52048 7.43504 4.99622 7.63918 4.50763C7.84332 4.01904 8.14243 3.57584 8.51918 3.20375C8.89593 2.83165 9.34281 2.53806 9.83389 2.34001C10.325 2.14196 10.8505 2.04338 11.38 2.05H12.09C12.6237 2.04328 13.1534 2.14346 13.6478 2.34461C14.1422 2.54576 14.5913 2.84383 14.9687 3.22126C15.3462 3.59868 15.6442 4.04782 15.8454 4.54222C16.0465 5.03662 16.1467 5.56628 16.14 6.1V7.61C16.1408 8.17327 16.0112 8.72909 15.7614 9.23393C15.5115 9.73877 15.1483 10.1789 14.7 10.52Z" stroke="black" stroke-width="2" stroke-linecap="round" stroke-linejoin="round"/>
<path d="M4.90002 19.06C4.90002 17.177 5.64806 15.371 6.97957 14.0395C8.31107 12.708 10.117 11.96 12 11.96C13.8831 11.96 15.689 12.708 17.0205 14.0395C18.352 15.371 19.1 17.177 19.1 19.06C19.1 23 4.90002 23 4.90002 19.06Z" stroke="black" stroke-width="2" stroke-linecap="round" stroke-linejoin="round"/>
<path d="M14.63 15.38V13.02" stroke="black" stroke-width="2" stroke-linecap="round" stroke-linejoin="round"/>
<path d="M13.12 18.9V17.13C13.1226 16.7303 13.2825 16.3478 13.5652 16.0652C13.8478 15.7826 14.2303 15.6226 14.63 15.62C14.8283 15.62 15.0246 15.6591 15.2078 15.7349C15.391 15.8108 15.5575 15.9221 15.6977 16.0623C15.8379 16.2025 15.9492 16.369 16.0251 16.5522C16.1009 16.7354 16.14 16.9317 16.14 17.13V18.9" stroke="black" stroke-width="2" stroke-linecap="round" stroke-linejoin="round"/>
<path d="M9.23001 15.38V13.02" stroke="black" stroke-width="2" stroke-linecap="round" stroke-linejoin="round"/>
<path d="M9.23001 18.69V17.98" stroke="black" stroke-width="2" stroke-linecap="round" stroke-linejoin="round"/>
</svg>
