<svg width="24" height="24" viewBox="0 0 24 24" fill="none" xmlns="http://www.w3.org/2000/svg">
<path d="M18.41 10.93L17.27 9.78L21.64 5.41C21.8654 5.17848 21.9915 4.86812 21.9915 4.545C21.9915 4.22188 21.8654 3.91152 21.64 3.68L20.32 2.36C20.2058 2.2457 20.0701 2.15504 19.9209 2.09318C19.7716 2.03132 19.6116 1.99948 19.45 1.99948C19.2884 1.99948 19.1284 2.03132 18.9791 2.09318C18.8298 2.15504 18.6942 2.2457 18.58 2.36L14.21 6.73L13.07 5.58C12.9558 5.4657 12.8201 5.37504 12.6709 5.31318C12.5216 5.25132 12.3616 5.21948 12.2 5.21948C12.0384 5.21948 11.8784 5.25132 11.7291 5.31318C11.5798 5.37504 11.4442 5.4657 11.33 5.58C11.1039 5.8132 10.9775 6.12522 10.9775 6.45C10.9775 6.77477 11.1039 7.0868 11.33 7.32L16.68 12.66C16.7936 12.7736 16.9284 12.8637 17.0769 12.9252C17.2253 12.9867 17.3843 13.0183 17.545 13.0183C17.7056 13.0183 17.8647 12.9867 18.0131 12.9252C18.1615 12.8637 18.2964 12.7736 18.41 12.66C18.5236 12.5464 18.6137 12.4116 18.6752 12.2631C18.7366 12.1147 18.7683 11.9556 18.7683 11.795C18.7683 11.6344 18.7366 11.4753 18.6752 11.3269C18.6137 11.1784 18.5236 11.0436 18.41 10.93Z" stroke="black" stroke-width="2" stroke-linecap="round" stroke-linejoin="round"/>
<path d="M15.83 11.82L12.18 8.16L4.66 15.68C4.55773 15.7764 4.48785 15.9022 4.46 16.04C4.27711 16.951 3.93885 17.8237 3.46 18.62L2.29 20.46C2.12732 20.614 2.02716 20.8226 2.00871 21.0459C1.99026 21.2692 2.05481 21.4914 2.19 21.67C2.2675 21.7666 2.36451 21.8457 2.47468 21.9022C2.58485 21.9587 2.7057 21.9913 2.82935 21.9979C2.95299 22.0045 3.07663 21.985 3.1922 21.9405C3.30777 21.8961 3.41265 21.8278 3.5 21.74L5.37 20.54C6.1714 20.0643 7.04686 19.7263 7.96 19.54C8.09443 19.5035 8.21797 19.4348 8.32 19.34L15.83 11.82Z" stroke="black" stroke-width="2" stroke-linecap="round" stroke-linejoin="round"/>
</svg>
