<svg width="24" height="24" viewBox="0 0 24 24" fill="none" xmlns="http://www.w3.org/2000/svg">
<path d="M19 15.44C19 15.44 13.82 17.44 12 17.44C10.18 17.44 5 15.44 5 15.44V8.8C5 8.8 10.18 6.61 12 6.61C13.82 6.61 19 8.8 19 8.8V15.44Z" stroke="black" stroke-width="2" stroke-linecap="round" stroke-linejoin="round"/>
<path d="M5 13.75H3.75C3.28587 13.75 2.84075 13.5656 2.51256 13.2374C2.18437 12.9092 2 12.4641 2 12C2 11.5359 2.18437 11.0908 2.51256 10.7626C2.84075 10.4344 3.28587 10.25 3.75 10.25H5" stroke="black" stroke-width="2" stroke-linecap="round" stroke-linejoin="round"/>
<path d="M19 10.25H20.29C20.7472 10.2605 21.1821 10.4494 21.5017 10.7765C21.8212 11.1036 22.0001 11.5427 22 12C22 12.4641 21.8156 12.9092 21.4874 13.2374C21.1592 13.5656 20.7141 13.75 20.25 13.75H19" stroke="black" stroke-width="2" stroke-linecap="round" stroke-linejoin="round"/>
</svg>
