<svg width="24" height="24" viewBox="0 0 24 24" fill="none" xmlns="http://www.w3.org/2000/svg">
<path d="M6.50999 7.59C6.50999 6.56096 6.91878 5.57407 7.64642 4.84642C8.37406 4.11878 9.36095 3.71 10.39 3.71H13.61C14.639 3.71 15.6259 4.11878 16.3536 4.84642C17.0812 5.57407 17.49 6.56096 17.49 7.59" stroke="black" stroke-width="2" stroke-linecap="round" stroke-linejoin="round"/>
<path d="M20.48 7.59H3.52C2.68053 7.59 2 8.27052 2 9.11V18.77C2 19.6095 2.68053 20.29 3.52 20.29H20.48C21.3195 20.29 22 19.6095 22 18.77V9.11C22 8.27052 21.3195 7.59 20.48 7.59Z" stroke="black" stroke-width="2" stroke-linecap="round" stroke-linejoin="round"/>
<path d="M12 11.28V16.61" stroke="black" stroke-width="2" stroke-linecap="round" stroke-linejoin="round"/>
<path d="M14.66 13.94H9.34" stroke="black" stroke-width="2" stroke-linecap="round" stroke-linejoin="round"/>
</svg>
