<svg width="24" height="24" viewBox="0 0 24 24" fill="none" xmlns="http://www.w3.org/2000/svg">
<path d="M6.61 2H8V8.81L3.47 17.08C3.26521 17.6318 3.1969 18.2249 3.27088 18.8088C3.34486 19.3927 3.55895 19.95 3.89488 20.4333C4.23081 20.9166 4.67863 21.3115 5.20016 21.5843C5.72168 21.8571 6.30144 21.9997 6.89 22H17.11C17.6986 21.9997 18.2783 21.8571 18.7998 21.5843C19.3214 21.3115 19.7692 20.9166 20.1051 20.4333C20.4411 19.95 20.6551 19.3927 20.7291 18.8088C20.8031 18.2249 20.7348 17.6318 20.53 17.08L16 8.81V2H17.42" stroke="black" stroke-width="2" stroke-linecap="round" stroke-linejoin="round"/>
<path d="M10.71 15H15.1" stroke="black" stroke-width="2" stroke-linecap="round" stroke-linejoin="round"/>
<path d="M10.71 18.02H15.1" stroke="black" stroke-width="2" stroke-linecap="round" stroke-linejoin="round"/>
<path d="M8.03 2H15.97" stroke="black" stroke-width="2" stroke-linecap="round" stroke-linejoin="round"/>
</svg>
