<svg width="24" height="24" viewBox="0 0 24 24" fill="none" xmlns="http://www.w3.org/2000/svg">
<path d="M9 10.41V11.1" stroke="black" stroke-width="2" stroke-linecap="round" stroke-linejoin="round"/>
<path d="M15 10.41V11.1" stroke="black" stroke-width="2" stroke-linecap="round" stroke-linejoin="round"/>
<path d="M12 17.09C11.4791 17.0928 10.9594 17.0392 10.45 16.93V22H13.55V16.93C13.0406 17.0392 12.5209 17.0928 12 17.09Z" stroke="black" stroke-width="2" stroke-linecap="round" stroke-linejoin="round"/>
<path d="M17.87 2H6.13C5.68443 2 5.25712 2.177 4.94206 2.49206C4.627 2.80712 4.45 3.23444 4.45 3.68V9.55C4.4521 11.2817 5.04941 12.96 6.14179 14.3036C7.23417 15.6472 8.75523 16.5745 10.45 16.93C10.9594 17.0392 11.4791 17.0928 12 17.09C12.5209 17.0928 13.0406 17.0392 13.55 16.93C15.2448 16.5745 16.7658 15.6472 17.8582 14.3036C18.9506 12.96 19.5479 11.2817 19.55 9.55V3.68C19.55 3.23444 19.373 2.80712 19.0579 2.49206C18.7429 2.177 18.3156 2 17.87 2Z" stroke="black" stroke-width="2" stroke-linecap="round" stroke-linejoin="round"/>
<path d="M14.05 4.8H9.95V7.71H14.05V4.8Z" stroke="black" stroke-width="2" stroke-linecap="round" stroke-linejoin="round"/>
</svg>
