<svg width="24" height="24" viewBox="0 0 24 24" fill="none" xmlns="http://www.w3.org/2000/svg">
<path d="M7.89001 11.84V5C7.89527 4.64013 8.04192 4.29678 8.29828 4.04417C8.55464 3.79155 8.90011 3.64996 9.26002 3.65C9.61992 3.64996 9.96539 3.79155 10.2217 4.04417C10.4781 4.29678 10.6248 4.64013 10.63 5V11.82" stroke="black" stroke-width="2" stroke-linecap="round" stroke-linejoin="round"/>
<path d="M13.37 11.84V5.84C13.37 5.47666 13.5143 5.12819 13.7713 4.87126C14.0282 4.61434 14.3766 4.47 14.74 4.47C15.1033 4.47 15.4518 4.61434 15.7087 4.87126C15.9657 5.12819 16.11 5.47666 16.11 5.84V11.84" stroke="black" stroke-width="2" stroke-linecap="round" stroke-linejoin="round"/>
<path d="M10.63 11.84V3.37C10.63 3.00665 10.7743 2.65819 11.0313 2.40126C11.2882 2.14434 11.6367 2 12 2C12.3634 2 12.7118 2.14434 12.9687 2.40126C13.2257 2.65819 13.37 3.00665 13.37 3.37V11.84" stroke="black" stroke-width="2" stroke-linecap="round" stroke-linejoin="round"/>
<path d="M16.11 11.84V10C16.1126 9.63746 16.2578 9.29052 16.5142 9.03416C16.7705 8.7778 17.1175 8.63262 17.48 8.63C17.6608 8.62868 17.84 8.66314 18.0074 8.7314C18.1747 8.79966 18.3269 8.90036 18.4552 9.02771C18.5835 9.15506 18.6853 9.30653 18.7548 9.4734C18.8242 9.64027 18.86 9.81924 18.86 10V13.8C18.86 15.3913 18.2279 16.9174 17.1026 18.0426C15.9774 19.1679 14.4513 19.8 12.86 19.8H11.13C9.53871 19.8 8.01258 19.1679 6.88736 18.0426C5.76215 16.9174 5.13 15.3913 5.13 13.8V7.51C5.13 7.32793 5.16602 7.14766 5.236 6.97958C5.30598 6.81149 5.40852 6.65892 5.53773 6.53064C5.66693 6.40236 5.82024 6.30092 5.98883 6.23216C6.15742 6.1634 6.33794 6.12868 6.52 6.13C6.88335 6.13 7.23182 6.27434 7.48874 6.53126C7.74567 6.78819 7.89 7.13665 7.89 7.5V11.84" stroke="black" stroke-width="2" stroke-linecap="round" stroke-linejoin="round"/>
<path d="M9.26001 22H14.74" stroke="black" stroke-width="2" stroke-linecap="round" stroke-linejoin="round"/>
</svg>
