<svg width="24" height="24" viewBox="0 0 24 24" fill="none" xmlns="http://www.w3.org/2000/svg">
<path d="M12 22C13.8004 22 15.26 20.5404 15.26 18.74C15.26 16.9396 13.8004 15.48 12 15.48C10.1995 15.48 8.73999 16.9396 8.73999 18.74C8.73999 20.5404 10.1995 22 12 22Z" stroke="black" stroke-width="2" stroke-linecap="round" stroke-linejoin="round"/>
<path d="M12 7.1V15.47" stroke="black" stroke-width="2" stroke-linecap="round" stroke-linejoin="round"/>
<path d="M9.62001 5.36C9.30985 5.89201 9.12197 6.48638 9.07001 7.1C9.25861 8.24671 9.74093 9.32504 10.47 10.23C10.943 10.9242 11.4538 11.5919 12 12.23C12 12.23 14.93 8.94 14.93 7.13C14.93 5.32 12 2 12 2C11.0921 3.03429 10.2945 4.16037 9.62001 5.36Z" stroke="black" stroke-width="2" stroke-linecap="round" stroke-linejoin="round"/>
<path d="M14.31 21.04L9.69 16.43" stroke="black" stroke-width="2" stroke-linecap="round" stroke-linejoin="round"/>
</svg>
