<svg width="24" height="24" viewBox="0 0 24 24" fill="none" xmlns="http://www.w3.org/2000/svg">
<path fill-rule="evenodd" clip-rule="evenodd" d="M19 2H5C3.34315 2 2 3.34315 2 5V19C2 20.6569 3.34315 22 5 22H19C20.6569 22 22 20.6569 22 19V5C22 3.34315 20.6569 2 19 2ZM7.92 17.38C7.87241 17.5028 7.80104 17.6149 7.71 17.71C7.6128 17.7983 7.50118 17.8694 7.38 17.92C7.25978 17.9712 7.13068 17.9984 7 18C6.73523 17.9963 6.48163 17.8927 6.29 17.71C6.19896 17.6149 6.12759 17.5028 6.08 17.38C5.97302 17.138 5.97302 16.862 6.08 16.62C6.12759 16.4972 6.19896 16.3851 6.29 16.29C6.57756 16.0063 7.0076 15.9234 7.38 16.08C7.50118 16.1306 7.6128 16.2017 7.71 16.29C7.80104 16.3851 7.87241 16.4972 7.92 16.62C8.02698 16.862 8.02698 17.138 7.92 17.38ZM7.94 12.38C7.96883 12.3233 7.98905 12.2626 8 12.2C8.00491 12.1334 8.00491 12.0666 8 12C7.99632 11.7352 7.89273 11.4816 7.71 11.29C7.6128 11.2017 7.50118 11.1306 7.38 11.08C7.0076 10.9234 6.57756 11.0063 6.29 11.29C6.1974 11.3839 6.12581 11.4964 6.08 11.62C6.02876 11.7402 6.00158 11.8693 6 12C5.99846 12.2658 6.10281 12.5213 6.29 12.71C6.48163 12.8927 6.73523 12.9963 7 13C7.13741 13.0011 7.27358 12.9739 7.4 12.92C7.52118 12.8694 7.6328 12.7983 7.73 12.71L7.85 12.56C7.88785 12.5043 7.91811 12.4437 7.94 12.38ZM7.71 7.71C7.6128 7.79833 7.50118 7.86936 7.38 7.92C7.26132 7.97598 7.13118 8.00338 7 8C6.73523 7.99632 6.48163 7.89273 6.29 7.71C6.10281 7.52128 5.99846 7.2658 6 7C6.00158 6.86932 6.02876 6.74022 6.08 6.62C6.13064 6.49882 6.20167 6.3872 6.29 6.29C6.57756 6.00626 7.0076 5.9234 7.38 6.08C7.50118 6.13064 7.6128 6.20167 7.71 6.29C7.79833 6.3872 7.86936 6.49882 7.92 6.62C7.97124 6.74022 7.99842 6.86932 8 7C7.99632 7.26477 7.89273 7.51837 7.71 7.71ZM11 18H17C17.5523 18 18 17.5523 18 17C18 16.4477 17.5523 16 17 16H11C10.4477 16 10 16.4477 10 17C10 17.5523 10.4477 18 11 18ZM17 13H11C10.4477 13 10 12.5523 10 12C10 11.4477 10.4477 11 11 11H17C17.5523 11 18 11.4477 18 12C18 12.5523 17.5523 13 17 13ZM11 8H17C17.5523 8 18 7.55228 18 7C18 6.44772 17.5523 6 17 6H11C10.4477 6 10 6.44772 10 7C10 7.55228 10.4477 8 11 8Z" fill="black"/>
</svg>
