<svg width="24" height="24" viewBox="0 0 24 24" fill="none" xmlns="http://www.w3.org/2000/svg">
<path fill-rule="evenodd" clip-rule="evenodd" d="M19.09 11C18.5378 11 18.09 11.4478 18.09 12C18.09 12.5523 18.5378 13 19.09 13H22C21.8442 14.3287 21.4189 15.6115 20.75 16.77C18.891 14.7648 16.3977 13.4617 13.69 13.08L15.86 9.47005C16.0846 9.16134 16.1137 8.75176 15.9353 8.41434C15.7568 8.07692 15.4018 7.87053 15.0203 7.88237C14.6388 7.89421 14.2973 8.12221 14.14 8.47005L11.42 13C8.30166 13.1463 5.36641 14.5151 3.25005 16.81C2.59351 15.6356 2.18508 14.3388 2.05005 13H5.00005C5.55233 13 6.00005 12.5523 6.00005 12C6.00005 11.4478 5.55233 11 5.00005 11H2.05005C2.2436 9.03433 3.02015 7.17129 4.28005 5.65005L6.19005 7.48005C6.575 7.84199 7.1751 7.84199 7.56005 7.48005C7.9283 7.09375 7.9283 6.48635 7.56005 6.10005L5.70005 4.24005C7.21228 3.00367 9.05616 2.24176 11 2.05005V5.00005C11 5.55233 11.4478 6.00005 12 6.00005C12.5523 6.00005 13 5.55233 13 5.00005V2.05005C14.9653 2.24539 16.8279 3.02173 18.35 4.28005L16.49 6.14005C16.0979 6.52941 16.0957 7.16293 16.485 7.55505C16.8744 7.94717 17.5079 7.94941 17.9 7.56005L19.81 5.70005C21.0418 7.21503 21.8031 9.05746 22 11H19.09ZM4.41005 18.49C6.30968 16.275 9.08203 15.0003 12 15C14.9181 15.0003 17.6904 16.275 19.59 18.49C17.6903 20.7047 14.9179 21.9791 12 21.9791C9.08218 21.9791 6.30985 20.7047 4.41005 18.49Z" fill="black"/>
</svg>
