<svg width="24" height="24" viewBox="0 0 24 24" fill="none" xmlns="http://www.w3.org/2000/svg">
<path fill-rule="evenodd" clip-rule="evenodd" d="M21 9.93L14 4.31C13.4829 3.82525 12.7234 3.70262 12.08 4C11.3042 4.45844 10.8787 5.3371 11 6.23V9.23L4.92999 4.46C4.4216 3.99738 3.68757 3.87962 3.05999 4.16C2.64999 4.35 1.99999 4.9 1.99999 6.38V17.63C1.88017 18.5199 2.30585 19.3949 3.07999 19.85C3.29289 19.9493 3.52506 20.0005 3.75999 20C4.19852 19.9857 4.62018 19.8276 4.95999 19.55L11 14.75V17.48C10.8802 18.3699 11.3058 19.2449 12.08 19.7C12.2933 19.7981 12.5252 19.8492 12.76 19.85C13.2008 19.8383 13.6243 19.6759 13.96 19.39L21 13.77C21.6081 13.3192 21.9667 12.607 21.9667 11.85C21.9667 11.093 21.6081 10.3808 21 9.93ZM10.81 12.35L3.99999 17.75V6.25L10.83 11.65C10.919 11.7189 10.9852 11.8129 11.02 11.92V12.08C10.9824 12.1911 10.9084 12.2863 10.81 12.35ZM13 17.59L19.81 12.2H19.8C19.9273 12.1295 20.0063 11.9955 20.0063 11.85C20.0063 11.7045 19.9273 11.5704 19.8 11.5L13 6.1V11.81V12V12.2V17.59Z" fill="#231F20"/>
</svg>
