<svg width="24" height="24" viewBox="0 0 24 24" fill="none" xmlns="http://www.w3.org/2000/svg">
<path fill-rule="evenodd" clip-rule="evenodd" d="M21.88 9.42999C22.1398 10.1878 21.9502 11.0273 21.39 11.6L18.19 14.88C18.1686 14.9171 18.1686 14.9629 18.19 15L18.88 19.52C19.0119 20.3247 18.6727 21.1341 18.0066 21.6045C17.3404 22.0749 16.4642 22.1236 15.75 21.73L12.02 19.66C11.9824 19.6404 11.9376 19.6404 11.9 19.66L8.16999 21.73C7.45647 22.1324 6.57499 22.0877 5.90582 21.6152C5.23666 21.1427 4.89957 20.327 5.03999 19.52L5.77999 14.98C5.79839 14.9386 5.79839 14.8914 5.77999 14.85L2.61999 11.6C2.06253 11.026 1.86989 10.19 2.11999 9.42999C2.37156 8.67082 3.02895 8.11784 3.81999 7.99999L8.09999 7.30999C8.14301 7.29841 8.17925 7.26941 8.19999 7.22999L10.08 3.22999C10.4223 2.47797 11.1737 1.99657 12 1.99999C12.8362 2.00047 13.5931 2.49467 13.93 3.25999L15.81 7.25999C15.8264 7.29885 15.8595 7.32824 15.9 7.33999L20.19 7.99999C20.9802 8.11466 21.6361 8.66961 21.88 9.42999ZM16.21 15.3C16.1035 14.6296 16.3183 13.9481 16.79 13.46L19.99 10.17C20.019 10.1242 20.019 10.0658 19.99 10.02C19.9724 9.97222 19.9303 9.93776 19.88 9.92999L15.6 9.26999C14.8959 9.16562 14.2912 8.7149 13.99 8.06999L12.12 4.06999C12.0989 4.02352 12.0508 3.99544 12 3.99999C11.9691 3.99717 11.9385 4.0075 11.9157 4.02845C11.8928 4.04939 11.8799 4.079 11.88 4.10999L9.99999 8.10999C9.71265 8.74512 9.12757 9.19518 8.43999 9.30999L4.14999 9.96999C4.10252 9.97907 4.064 10.0137 4.04999 10.06C4.02319 10.1064 4.02319 10.1636 4.04999 10.21L7.20999 13.48C7.68593 13.9656 7.90142 14.6492 7.78999 15.32L7.04999 19.86C7.04305 19.9141 7.06602 19.9677 7.10999 20H7.23999L10.94 17.91C11.581 17.5559 12.359 17.5559 13 17.91L16.81 19.98C16.8474 20.012 16.9026 20.012 16.94 19.98C16.984 19.9477 17.0069 19.8941 17 19.84L16.21 15.3Z" fill="#231F20"/>
</svg>
