<svg width="24" height="24" viewBox="0 0 24 24" fill="none" xmlns="http://www.w3.org/2000/svg">
<path fill-rule="evenodd" clip-rule="evenodd" d="M22.25 16C22.2642 18.6457 20.6109 21.0138 18.1223 21.9122C15.6338 22.8106 12.8491 22.0447 11.17 20C11.1134 20.0048 11.0566 20.0048 11 20H4.89C3.32524 20.0279 2.03281 18.7846 2 17.22V4.77997C2.03281 3.21531 3.32524 1.97208 4.89 1.99997H18.11C19.6748 1.97208 20.9672 3.21531 21 4.77997V12C21.0047 12.0699 21.0047 12.1401 21 12.21C21.8203 13.3024 22.2594 14.6339 22.25 16ZM16 7.99997H7C6.44772 7.99997 6 7.55226 6 6.99997C6 6.44769 6.44772 5.99997 7 5.99997H16C16.5523 5.99997 17 6.44769 17 6.99997C17 7.55226 16.5523 7.99997 16 7.99997ZM19 10.52C18.0814 10.0132 17.0491 9.74827 16 9.74997C13.9868 9.75041 12.0971 10.7205 10.9234 12.3562C9.74975 13.9918 9.43579 16.0927 10.08 18H4.89C4.42945 18.0286 4.03207 17.6803 4 17.22V4.77997C4.03207 4.31965 4.42945 3.97139 4.89 3.99997H18.11C18.5705 3.97139 18.9679 4.31965 19 4.77997V10.52ZM20.25 16C20.25 13.6528 18.3472 11.75 16 11.75C13.6528 11.75 11.75 13.6528 11.75 16C11.75 18.3472 13.6528 20.25 16 20.25C18.3449 20.2445 20.2445 18.3449 20.25 16ZM17.16 13.8342C17.4266 13.8342 17.6822 13.9407 17.87 14.13C18.0593 14.3177 18.1658 14.5733 18.1658 14.84C18.1658 15.1066 18.0593 15.3622 17.87 15.55L17.41 16L17.87 16.45C18.0593 16.6377 18.1658 16.8933 18.1658 17.16C18.1658 17.4266 18.0593 17.6822 17.87 17.87C17.6813 18.0572 17.4258 18.1615 17.16 18.16C16.8942 18.1615 16.6387 18.0572 16.45 17.87L16 17.41L15.55 17.87C15.3613 18.0572 15.1058 18.1615 14.84 18.16C14.5742 18.1615 14.3187 18.0572 14.13 17.87C13.9407 17.6822 13.8342 17.4266 13.8342 17.16C13.8342 16.8933 13.9407 16.6377 14.13 16.45L14.59 16L14.13 15.55C13.7379 15.1579 13.7379 14.5221 14.13 14.13C14.5221 13.7379 15.1579 13.7379 15.55 14.13L16 14.59L16.45 14.13C16.6378 13.9407 16.8934 13.8342 17.16 13.8342Z" fill="#231F20"/>
</svg>
