<svg width="24" height="24" viewBox="0 0 24 24" fill="none" xmlns="http://www.w3.org/2000/svg">
<path fill-rule="evenodd" clip-rule="evenodd" d="M5 2H19C20.6569 2 22 3.34315 22 5V19C22 20.6569 20.6569 22 19 22H5C3.34315 22 2 20.6569 2 19V5C2 3.34315 3.34315 2 5 2ZM14.9106 16.3808C15.063 16.0109 14.9801 15.5857 14.7 15.3L11.42 12L14.7 8.71C15.0921 8.32064 15.0944 7.68712 14.705 7.295C14.3156 6.90288 13.6821 6.90064 13.29 7.29L9.29 11.29C8.90228 11.68 8.90228 12.31 9.29 12.7L13.29 16.7C13.4771 16.8909 13.7328 16.9989 14 17C14.4001 16.9944 14.7583 16.7508 14.9106 16.3808Z" fill="black"/>
</svg>
