<svg width="24" height="24" viewBox="0 0 24 24" fill="none" xmlns="http://www.w3.org/2000/svg">
<path fill-rule="evenodd" clip-rule="evenodd" d="M19 1.76001H3C2.44772 1.76001 2 2.20772 2 2.76001V15C2 15.5523 2.44772 16 3 16H8C7.98229 16.7296 8.23116 17.4407 8.7 18L11.46 21.32C11.8483 21.7622 12.4116 22.0109 13 22C13.2351 21.9991 13.4684 21.9585 13.69 21.88C14.478 21.5904 15.0012 20.8395 15 20V17.76H19C20.6569 17.76 22 16.4169 22 14.76V4.76001C22 3.10316 20.6569 1.76001 19 1.76001ZM8 14H4V3.76001H8V14ZM19 15.76C19.5523 15.76 20 15.3123 20 14.76V4.76001C20 4.20773 19.5523 3.76001 19 3.76001H10V16C9.98986 16.2473 10.0718 16.4896 10.23 16.68L13 20V16.76C13 16.2077 13.4477 15.76 14 15.76H19Z" fill="#231F20"/>
</svg>
