<svg width="24" height="24" viewBox="0 0 24 24" fill="none" xmlns="http://www.w3.org/2000/svg">
<path fill-rule="evenodd" clip-rule="evenodd" d="M14.9232 2.91814C14.9115 3.29745 15.1156 3.65065 15.45 3.83003L18.45 5.83003C18.611 5.94282 18.8034 6.00228 19 6.00003C19.4386 5.99664 19.8237 5.7079 19.95 5.28789C20.0762 4.86788 19.914 4.41463 19.55 4.17003L16.55 2.17003C16.2545 1.93198 15.8497 1.88172 15.5049 2.04026C15.1601 2.19881 14.9348 2.53884 14.9232 2.91814ZM12 4.00003C7.02944 4.00003 3 8.02946 3 13C3 17.9706 7.02944 22 12 22C16.9706 22 21 17.9706 21 13C21 8.02946 16.9706 4.00003 12 4.00003ZM12 20C8.13401 20 5 16.866 5 13C5 9.13403 8.13401 6.00003 12 6.00003C15.866 6.00003 19 9.13403 19 13C19 16.866 15.866 20 12 20ZM4.17 5.55003C3.86875 5.09115 3.99373 4.47521 4.45 4.17003L7.45 2.17003C7.74553 1.93198 8.15033 1.88172 8.49511 2.04026C8.83988 2.19881 9.0652 2.53884 9.07683 2.91814C9.08847 3.29745 8.88441 3.65065 8.55 3.83003L5.55 5.83003C5.38896 5.94282 5.1966 6.00228 5 6.00003C4.66548 5.9983 4.35398 5.82941 4.17 5.55003ZM15.0058 15C15.0058 14.7334 14.8993 14.4778 14.71 14.29L13 12.59V9.00003C13 8.44774 12.5523 8.00003 12 8.00003C11.4477 8.00003 11 8.44774 11 9.00003V13C10.9985 13.2658 11.1028 13.5213 11.29 13.71L13.29 15.71C13.4778 15.8993 13.7334 16.0058 14 16.0058C14.2666 16.0058 14.5222 15.8993 14.71 15.71C14.8993 15.5223 15.0058 15.2667 15.0058 15Z" fill="#231F20"/>
</svg>
