<svg width="24" height="24" viewBox="0 0 24 24" fill="none" xmlns="http://www.w3.org/2000/svg">
<path fill-rule="evenodd" clip-rule="evenodd" d="M20.31 9.94997C21.06 10.4 22 11 22 12C22 13 21.06 13.6 20.31 13.97C20.0771 14.1015 19.8533 14.2485 19.64 14.41C19.7149 14.6808 19.8119 14.945 19.93 15.2C19.9385 15.2207 19.9471 15.2415 19.9558 15.2624C20.2816 16.0506 20.6745 17.0012 20.09 17.8C19.49 18.62 18.42 18.53 17.55 18.45C17.2737 18.4305 16.9963 18.4305 16.72 18.45C16.6556 18.6155 16.5744 18.9416 16.5151 19.1796C16.5099 19.2005 16.5048 19.2206 16.5 19.24C16.4967 19.2548 16.4933 19.2698 16.49 19.2848C16.3021 20.1268 16.0725 21.1554 15.09 21.46C14.9382 21.51 14.7798 21.5369 14.62 21.54C13.8805 21.4396 13.1985 21.0863 12.69 20.54C12.4735 20.3434 12.2429 20.1629 12 20C11.7571 20.1629 11.5265 20.3434 11.31 20.54C10.66 21.15 9.88 21.85 8.91 21.54C7.94 21.23 7.69 20.17 7.5 19.32C7.49517 19.3006 7.49014 19.2805 7.48494 19.2596C7.42563 19.0216 7.34436 18.6955 7.28 18.53C7.00368 18.5105 6.72632 18.5105 6.45 18.53C5.58 18.61 4.5 18.69 3.91 17.88C3.32722 17.0799 3.72987 16.1042 4.05785 15.3094L4.07 15.28C4.18814 15.025 4.28513 14.7608 4.36 14.49C4.14672 14.3285 3.92289 14.1815 3.69 14.05C2.94 13.6 2 13 2 12C2 11 2.94 10.4 3.69 9.97997C3.92289 9.8484 4.14672 9.70141 4.36 9.53997C4.28513 9.26914 4.18814 9.00492 4.07 8.74997C4.06146 8.72927 4.05286 8.70845 4.0442 8.68752C3.71844 7.89937 3.32552 6.94876 3.91 6.14997C4.51 5.32997 5.58 5.41997 6.45 5.49997C6.72632 5.51942 7.00368 5.51942 7.28 5.49997C7.34436 5.33447 7.42563 5.00834 7.48494 4.77033C7.49014 4.74948 7.49517 4.7293 7.5 4.70997C7.69 3.85997 7.97 2.81997 8.91 2.50997C9.8482 2.20057 10.6569 2.8973 11.3063 3.45675L11.31 3.45997C11.5265 3.65655 11.7571 3.83703 12 3.99997C12.2446 3.82101 12.4752 3.62378 12.69 3.40997C12.7051 3.39699 12.7202 3.38392 12.7354 3.3708C13.3763 2.81805 14.1425 2.15716 15.09 2.45997C16.06 2.76997 16.31 3.82997 16.5 4.67997C16.5048 4.69931 16.5099 4.71948 16.5151 4.74034C16.5744 4.97835 16.6556 5.30447 16.72 5.46997C16.9963 5.48942 17.2737 5.48942 17.55 5.46997C18.42 5.38997 19.5 5.30997 20.09 6.11997C20.6728 6.92006 20.2701 7.89577 19.9422 8.69052L19.93 8.71997C19.8119 8.97492 19.7149 9.23914 19.64 9.50997C19.8533 9.67141 20.0771 9.8184 20.31 9.94997ZM11.78 15.12L15.78 10.12C16.0675 9.68742 15.976 9.10676 15.5694 8.78357C15.1629 8.46038 14.5765 8.50227 14.22 8.87997L10.92 13L9.71 11.79C9.31788 11.3979 8.68212 11.3979 8.29 11.79C7.89788 12.1821 7.89788 12.8179 8.29 13.21L10.29 15.21C10.4787 15.3972 10.7342 15.5015 11 15.5H11.06C11.343 15.4812 11.6048 15.343 11.78 15.12Z" fill="black"/>
</svg>
