<svg width="24" height="24" viewBox="0 0 24 24" fill="none" xmlns="http://www.w3.org/2000/svg">
<path fill-rule="evenodd" clip-rule="evenodd" d="M7 11H19C20.6569 11 22 12.3431 22 14V19C22 20.6569 20.6569 22 19 22H5C3.34315 22 2 20.6569 2 19V14C2 12.3431 3.34315 11 5 11V9C4.98717 5.57988 7.44766 2.65125 10.8188 2.07413C14.1898 1.497 17.4844 3.44039 18.61 6.67C18.79 7.18902 18.5177 7.75609 18 7.94C17.7482 8.03271 17.4696 8.02031 17.227 7.90559C16.9844 7.79088 16.7981 7.58347 16.71 7.33C15.894 5.03964 13.5487 3.66828 11.1525 4.0804C8.7563 4.49251 7.00391 6.56862 7 9V11ZM19 20C19.5523 20 20 19.5523 20 19V14C20 13.4477 19.5523 13 19 13H5C4.44772 13 4 13.4477 4 14V19C4 19.5523 4.44772 20 5 20H19Z" fill="#231F20"/>
</svg>
