<svg width="24" height="24" viewBox="0 0 24 24" fill="none" xmlns="http://www.w3.org/2000/svg">
<path fill-rule="evenodd" clip-rule="evenodd" d="M19 2H5C3.34315 2 2 3.34315 2 5V19C2 20.6569 3.34315 22 5 22H19C20.6569 22 22 20.6569 22 19V5C22 3.34315 20.6569 2 19 2ZM20 19C20 19.5523 19.5523 20 19 20H5C4.44772 20 4 19.5523 4 19V5C4 4.44772 4.44772 4 5 4H19C19.5523 4 20 4.44772 20 5V19ZM17.67 8.69C18.0577 8.29996 18.0577 7.67004 17.67 7.28C17.4743 7.09839 17.2142 7.00256 16.9475 7.01383C16.6808 7.0251 16.4296 7.14254 16.25 7.34L9.52 14.5L7.76 12.63C7.52305 12.3401 7.14399 12.2068 6.77775 12.2847C6.41151 12.3626 6.11945 12.6385 6.02094 12.9998C5.92244 13.361 6.03399 13.747 6.31 14L8.75 16.63C8.9402 16.8295 9.20434 16.9417 9.48 16.94C9.75566 16.9417 10.0198 16.8295 10.21 16.63L17.67 8.69Z" fill="#231F20"/>
</svg>
