<svg width="24" height="24" viewBox="0 0 24 24" fill="none" xmlns="http://www.w3.org/2000/svg">
<path d="M9.33008 9.08006C9.33008 8.94199 9.21815 8.83006 9.08008 8.83006C8.94419 8.83519 8.83521 8.94417 8.83008 9.08006C8.83008 9.36006 9.33008 9.36006 9.33008 9.08006Z" fill="black"/>
<path d="M14.92 14.67C14.782 14.67 14.67 14.7819 14.67 14.92C14.67 15.19 15.17 15.19 15.17 14.92C15.17 14.7819 15.0581 14.67 14.92 14.67Z" fill="black"/>
<path fill-rule="evenodd" clip-rule="evenodd" d="M20.58 8.40003C20.7761 8.77061 21.0292 9.10806 21.33 9.40003C22.1075 10.0581 22.6046 10.988 22.72 12C22.6056 12.9869 22.1279 13.8959 21.38 14.55C21.0792 14.842 20.8261 15.1795 20.63 15.55C20.5056 15.9648 20.4516 16.3974 20.47 16.83C20.5536 17.8206 20.2528 18.8053 19.63 19.58C18.8553 20.2028 17.8706 20.5036 16.88 20.42C16.4474 20.4016 16.0148 20.4556 15.6 20.58C15.2312 20.7787 14.8941 21.0315 14.6 21.33C13.9466 22.1132 13.0142 22.6117 12 22.72C11.0111 22.6122 10.0998 22.1333 9.45003 21.38C9.15597 21.0815 8.81891 20.8287 8.45003 20.63C8.03528 20.5056 7.60263 20.4516 7.17003 20.47C6.1795 20.5536 5.1948 20.2528 4.42003 19.63C3.79724 18.8553 3.49646 17.8706 3.58003 16.88C3.59849 16.4474 3.54441 16.0148 3.42003 15.6C3.22398 15.2295 2.97089 14.892 2.67003 14.6C1.89255 13.942 1.39542 13.0121 1.28003 12C1.39451 11.0131 1.87217 10.1041 2.62003 9.45003C2.92089 9.15806 3.17398 8.82061 3.37003 8.45003C3.49441 8.03528 3.54849 7.60263 3.53003 7.17003C3.44646 6.1795 3.74724 5.1948 4.37003 4.42003C5.1448 3.79724 6.1295 3.49646 7.12003 3.58003C7.55264 3.59849 7.98528 3.54441 8.40003 3.42003C8.76891 3.22131 9.10597 2.96851 9.40003 2.67003C10.0535 1.88685 10.9858 1.38841 12 1.28003C12.989 1.38785 13.9003 1.86671 14.55 2.62003C14.8441 2.91851 15.1812 3.17131 15.55 3.37003C15.9648 3.49441 16.3974 3.54849 16.83 3.53003C17.8206 3.44646 18.8053 3.74724 19.58 4.37003C20.2028 5.1448 20.5036 6.1295 20.42 7.12003C20.4016 7.55264 20.4556 7.98528 20.58 8.40003ZM9.08003 6.83003C7.83739 6.83003 6.83003 7.83739 6.83003 9.08003C6.83003 10.3227 7.83739 11.33 9.08003 11.33C10.3227 11.33 11.33 10.3227 11.33 9.08003C11.33 7.83739 10.3227 6.83003 9.08003 6.83003ZM9.37003 16.08C9.18377 16.2648 8.93237 16.3689 8.67003 16.37C8.40647 16.3404 8.16546 16.2073 8.00003 16C7.61231 15.61 7.61231 14.9801 8.00003 14.59L14.63 8.00003C14.8429 7.64064 15.2567 7.45139 15.6677 7.52544C16.0788 7.59949 16.4006 7.92124 16.4746 8.33231C16.5487 8.74339 16.3594 9.15719 16 9.37003L9.37003 16.08ZM12.67 14.96C12.67 16.2027 13.6774 17.21 14.92 17.21V17.17C16.1472 17.1702 17.1482 16.187 17.17 14.96C17.17 13.7174 16.1627 12.71 14.92 12.71C13.6774 12.71 12.67 13.7174 12.67 14.96Z" fill="black"/>
</svg>
