<svg width="24" height="24" viewBox="0 0 24 24" fill="none" xmlns="http://www.w3.org/2000/svg">
<path fill-rule="evenodd" clip-rule="evenodd" d="M5 2H19C20.6569 2 22 3.34315 22 5V19C22 20.6569 20.6569 22 19 22H5C3.34315 22 2 20.6569 2 19V5C2 3.34315 3.34315 2 5 2ZM13 13H17C17.5523 13 18 12.5523 18 12C18 11.4477 17.5523 11 17 11H13V7C13 6.44772 12.5523 6 12 6C11.4477 6 11 6.44772 11 7V11H7C6.44772 11 6 11.4477 6 12C6 12.5523 6.44772 13 7 13H11V17C11 17.5523 11.4477 18 12 18C12.5523 18 13 17.5523 13 17V13Z" fill="black"/>
</svg>
