<svg width="24" height="24" viewBox="0 0 24 24" fill="none" xmlns="http://www.w3.org/2000/svg">
<path fill-rule="evenodd" clip-rule="evenodd" d="M22 5V19C22 20.6569 20.6569 22 19 22H5C3.34315 22 2 20.6569 2 19V5C2 3.34315 3.34315 2 5 2H19C20.6569 2 22 3.34315 22 5ZM16.72 9.31C17.1077 9.70004 17.1077 10.33 16.72 10.72L12.72 14.72C12.5272 14.906 12.2678 15.0069 12 15C11.7342 15.0015 11.4787 14.8972 11.29 14.71L7.29 10.71C6.90064 10.3179 6.90288 9.68436 7.295 9.295C7.68712 8.90564 8.32064 8.90788 8.71 9.3L12 12.58L15.3 9.3C15.4891 9.112 15.7454 9.00731 16.0121 9.00919C16.2787 9.01107 16.5336 9.11936 16.72 9.31ZM19 4C19.5523 4 20 4.44772 20 5V19C20 19.5523 19.5523 20 19 20H5C4.44772 20 4 19.5523 4 19V5C4 4.44772 4.44772 4 5 4H19Z" fill="#231F20"/>
</svg>
