<svg width="24" height="24" viewBox="0 0 24 24" fill="none" xmlns="http://www.w3.org/2000/svg">
<path fill-rule="evenodd" clip-rule="evenodd" d="M5 2H19C20.6569 2 22 3.34315 22 5V19C22 20.6569 20.6569 22 19 22H5C3.34315 22 2 20.6569 2 19V5C2 3.34315 3.34315 2 5 2ZM13.71 16.71L17.71 12.71C17.801 12.6149 17.8724 12.5028 17.92 12.38C18.02 12.1365 18.02 11.8635 17.92 11.62C17.8724 11.4972 17.801 11.3851 17.71 11.29L13.71 7.29C13.4563 7.03634 13.0866 6.93728 12.7401 7.03012C12.3936 7.12297 12.123 7.39362 12.0301 7.74012C11.9373 8.08663 12.0363 8.45634 12.29 8.71L14.59 11H7C6.44772 11 6 11.4477 6 12C6 12.5523 6.44772 13 7 13H14.59L12.29 15.29C12.1007 15.4778 11.9942 15.7334 11.9942 16C11.9942 16.2666 12.1007 16.5222 12.29 16.71C12.4778 16.8993 12.7334 17.0058 13 17.0058C13.2666 17.0058 13.5222 16.8993 13.71 16.71Z" fill="black"/>
</svg>
