<svg width="24" height="24" viewBox="0 0 24 24" fill="none" xmlns="http://www.w3.org/2000/svg">
<path d="M21.7099 20.29C21.8993 20.4778 22.0057 20.7334 22.0057 21C22.0057 21.2666 21.8993 21.5222 21.7099 21.71C21.5222 21.8993 21.2666 22.0058 20.9999 22.0058C20.7333 22.0058 20.4777 21.8993 20.2899 21.71L11.9999 13.41L3.70994 21.71C3.52217 21.8993 3.26658 22.0058 2.99994 22.0058C2.7333 22.0058 2.47771 21.8993 2.28994 21.71C2.10063 21.5222 1.99414 21.2666 1.99414 21C1.99414 20.7334 2.10063 20.4778 2.28994 20.29L10.5899 12L2.28994 3.70999C2.03628 3.45634 1.93722 3.08662 2.03006 2.74012C2.12291 2.39361 2.39356 2.12296 2.74006 2.03012C3.08657 1.93727 3.45628 2.03634 3.70994 2.28999L11.9999 10.59L20.2899 2.28999C20.6821 1.89787 21.3178 1.89787 21.7099 2.28999C22.1021 2.68212 22.1021 3.31787 21.7099 3.70999L13.4099 12L21.7099 20.29Z" fill="#231F20"/>
</svg>
