<svg width="24" height="24" viewBox="0 0 24 24" fill="none" xmlns="http://www.w3.org/2000/svg">
<path d="M20.37 11.06L12.67 18.76C11.4625 19.9919 9.84979 20.745 8.13005 20.88H7.69005C6.19362 20.8972 4.75278 20.3137 3.69005 19.26C1.35005 16.92 1.58005 12.88 4.20005 10.26L11.1 3.36001C11.4901 2.97228 12.12 2.97228 12.51 3.36001C12.6994 3.54777 12.8058 3.80337 12.8058 4.07001C12.8058 4.33664 12.6994 4.59224 12.51 4.78001L5.60005 11.69C3.75005 13.53 3.52005 16.3 5.08005 17.86C5.85957 18.5988 6.92103 18.9636 7.99005 18.86C9.22701 18.7571 10.385 18.2101 11.25 17.32L19 9.65001C20.1605 8.66416 20.3205 6.93163 19.36 5.75001C18.1817 4.79072 16.4524 4.95076 15.47 6.11001L7.77005 13.81C7.5183 14.0543 7.36223 14.3807 7.33005 14.73C7.30199 14.9856 7.38586 15.2409 7.56005 15.43C8.06921 15.7974 8.77553 15.7102 9.18005 15.23L17.29 7.12001C17.6801 6.73228 18.31 6.73228 18.7 7.12001C18.8894 7.30777 18.9958 7.56337 18.9958 7.83001C18.9958 8.09664 18.8894 8.35224 18.7 8.54001L10.6 16.64C9.42671 17.9215 7.43886 18.0153 6.15005 16.85C4.98214 15.5639 5.07148 13.5762 6.35005 12.4L14 4.70001C15.7653 2.75519 18.7674 2.5946 20.73 4.34001C22.4743 6.29931 22.3137 9.29827 20.37 11.06Z" fill="#231F20"/>
</svg>
