<svg width="24" height="24" viewBox="0 0 24 24" fill="none" xmlns="http://www.w3.org/2000/svg">
<path d="M12 16C14.7614 16 17 13.7614 17 11V7C17 4.23858 14.7614 2 12 2C9.23858 2 7 4.23858 7 7V11C7 13.7614 9.23858 16 12 16Z" fill="black"/>
<path d="M19 10C18.4477 10 18 10.4477 18 11C18 14.3137 15.3137 17 12 17C8.68629 17 6 14.3137 6 11C6 10.4477 5.55228 10 5 10C4.44772 10 4 10.4477 4 11C4 15.4183 7.58172 19 12 19C16.4183 19 20 15.4183 20 11C20 10.4477 19.5523 10 19 10Z" fill="black"/>
<path d="M15 20H9C8.44772 20 8 20.4477 8 21C8 21.5523 8.44772 22 9 22H15C15.5523 22 16 21.5523 16 21C16 20.4477 15.5523 20 15 20Z" fill="black"/>
</svg>
