<svg width="24" height="24" viewBox="0 0 24 24" fill="none" xmlns="http://www.w3.org/2000/svg">
<path fill-rule="evenodd" clip-rule="evenodd" d="M20.93 5.61995L20.4 4.04995C19.9748 2.8473 18.8356 2.04503 17.56 2.04995H6.44001C5.16442 2.04503 4.0252 2.8473 3.60001 4.04995L3.07001 5.61995C2.39452 6.15452 2.00041 6.96852 2.00001 7.82995V8.49995C1.9963 9.87438 2.80416 11.1215 4.06001 11.6799C4.02005 11.7819 3.9997 11.8905 4.00001 11.9999V18.9999C4.00001 20.6568 5.34316 21.9999 7.00001 21.9999H17C18.6569 21.9999 20 20.6568 20 18.9999V11.9999C20.0003 11.8905 19.98 11.7819 19.94 11.6799C21.1959 11.1215 22.0037 9.87438 22 8.49995V7.82995C21.9996 6.96852 21.6055 6.15452 20.93 5.61995ZM5.49001 4.67995C5.63301 4.25458 6.04186 3.97656 6.49001 3.99995H17.56C18.0082 3.97656 18.417 4.25458 18.56 4.67995L18.66 4.99995H5.39001L5.49001 4.67995ZM14 8.49995V6.99995H10V8.49995C10 9.32838 10.6716 9.99995 11.5 9.99995H12.5C13.3284 9.99995 14 9.32838 14 8.49995ZM4.00001 8.49995V7.82995C4.00001 7.37155 4.37162 6.99995 4.83001 6.99995H8.00001V8.49995C8.00001 9.32838 7.32844 9.99995 6.50001 9.99995H5.50001C4.67159 9.99995 4.00001 9.32838 4.00001 8.49995ZM11 16.9999V19.9999H13V16.9999C13 16.4477 12.5523 15.9999 12 15.9999C11.4477 15.9999 11 16.4477 11 16.9999ZM18 19C18 19.5522 17.5523 20 17 20H15V16.9999C15 15.3431 13.6569 13.9999 12 13.9999C10.3432 13.9999 9.00001 15.3431 9.00001 16.9999V20H7.00001C6.44773 20 6.00001 19.5522 6.00001 19V12H6.50001C7.44344 12.0044 8.34729 11.6212 9.00001 10.9399C9.65273 11.6212 10.5566 12.0044 11.5 12H12.5C13.4434 12.0044 14.3473 11.6212 15 10.9399C15.6527 11.6212 16.5566 12.0044 17.5 12H18V19ZM18.5 9.99995C19.3284 9.99995 20 9.32838 20 8.49995V7.82995C20 7.37155 19.6284 6.99995 19.17 6.99995H16V8.49995C16 9.32838 16.6716 9.99995 17.5 9.99995H18.5Z" fill="#231F20"/>
</svg>
