<svg width="24" height="24" viewBox="0 0 24 24" fill="none" xmlns="http://www.w3.org/2000/svg">
<path d="M10 5.04993V2.99993C10.0006 2.61166 9.77646 2.25812 9.425 2.09311C9.07355 1.9281 8.65834 1.98144 8.36 2.22993L2.36 7.22993C2.13073 7.41991 1.99805 7.70218 1.99805 7.99993C1.99805 8.29768 2.13073 8.57995 2.36 8.76993L8.36 13.7699C8.53992 13.919 8.76635 14.0004 9 13.9999C9.14487 14.0007 9.28817 13.97 9.42 13.9099C9.77446 13.7459 10.001 13.3905 10 12.9999V11.0499C13.9957 11.441 17.4132 14.0886 18.79 17.8599L20.06 21.3399C20.2032 21.7359 20.579 21.9998 21 21.9999C21.0562 22.0103 21.1138 22.0103 21.17 21.9999C21.6551 21.9163 22.0072 21.4921 22 20.9999V17.9999C21.994 11.2125 16.7673 5.57204 10 5.04993Z" fill="black"/>
</svg>
