<svg width="24" height="24" viewBox="0 0 24 24" fill="none" xmlns="http://www.w3.org/2000/svg">
<circle cx="12" cy="13" r="2" fill="black"/>
<path fill-rule="evenodd" clip-rule="evenodd" d="M16.54 6H19C20.6569 6 22 7.34315 22 9V17C22 18.6569 20.6569 20 19 20H5C3.34315 20 2 18.6569 2 17V9C2 7.34315 3.34315 6 5 6H7.46L8.57 4.34C9.12621 3.50271 10.0648 2.99963 11.07 3H12.93C13.9352 2.99963 14.8738 3.50271 15.43 4.34L16.54 6ZM8 13C8 15.2091 9.79086 17 12 17C13.0609 17 14.0783 16.5786 14.8284 15.8284C15.5786 15.0783 16 14.0609 16 13C16 10.7909 14.2091 9 12 9C9.79086 9 8 10.7909 8 13Z" fill="black"/>
</svg>
