<svg width="24" height="24" viewBox="0 0 24 24" fill="none" xmlns="http://www.w3.org/2000/svg">
<path d="M21.9999 15V19C21.9999 19.5523 21.5522 20 20.9999 20H16.9999C16.4477 20 15.9999 19.5523 15.9999 19C15.9999 18.4477 16.4477 18 16.9999 18H18.6699L12.9999 11.47L10.7499 13.74C10.5537 13.9382 10.2767 14.0342 9.99994 14C9.72322 13.9912 9.46253 13.8681 9.27994 13.66L2.27994 5.66C1.94414 5.24308 1.99623 4.63566 2.39811 4.28201C2.79999 3.92835 3.4091 3.95391 3.77994 4.34L10.0799 11.56L12.2899 9.3C12.479 9.09805 12.7433 8.98344 13.0199 8.98344C13.2966 8.98344 13.5609 9.09805 13.7499 9.3L19.9999 16.48V15C19.9999 14.4477 20.4477 14 20.9999 14C21.5522 14 21.9999 14.4477 21.9999 15Z" fill="#231F20"/>
</svg>
