<svg width="24" height="24" viewBox="0 0 24 24" fill="none" xmlns="http://www.w3.org/2000/svg">
<path fill-rule="evenodd" clip-rule="evenodd" d="M5 2H19C20.6569 2 22 3.34315 22 5V19C22 20.6569 20.6569 22 19 22H5C3.34315 22 2 20.6569 2 19V5C2 3.34315 3.34315 2 5 2ZM9.41 13H17C17.5523 13 18 12.5523 18 12C18 11.4477 17.5523 11 17 11H9.41L11.71 8.71C11.9637 8.45634 12.0627 8.08663 11.9699 7.74012C11.877 7.39362 11.6064 7.12297 11.2599 7.03012C10.9134 6.93728 10.5437 7.03634 10.29 7.29L6.29 11.29C6.19896 11.3851 6.12759 11.4972 6.08 11.62C5.97998 11.8635 5.97998 12.1365 6.08 12.38C6.12759 12.5028 6.19896 12.6149 6.29 12.71L10.29 16.71C10.4778 16.8993 10.7334 17.0058 11 17.0058C11.2666 17.0058 11.5222 16.8993 11.71 16.71C11.8993 16.5222 12.0058 16.2666 12.0058 16C12.0058 15.7334 11.8993 15.4778 11.71 15.29L9.41 13Z" fill="black"/>
</svg>
