<svg width="24" height="24" viewBox="0 0 24 24" fill="none" xmlns="http://www.w3.org/2000/svg">
<path fill-rule="evenodd" clip-rule="evenodd" d="M18.1223 21.9122C20.6109 21.0138 22.2642 18.6457 22.25 16C22.2471 14.6573 21.8085 13.3519 21 12.28C21.0352 12.1905 21.0554 12.096 21.06 12L21 4.77997C20.9672 3.21531 19.6748 1.97208 18.11 1.99997H4.89C3.32524 1.97208 2.03281 3.21531 2 4.77997V17.22C2.03281 18.7846 3.32524 20.0279 4.89 20H11C11.0566 20.0048 11.1134 20.0048 11.17 20C12.8491 22.0447 15.6338 22.8106 18.1223 21.9122ZM17 6.99997C17 6.44769 16.5523 5.99997 16 5.99997H7C6.44772 5.99997 6 6.44769 6 6.99997C6 7.55226 6.44772 7.99997 7 7.99997H16C16.5523 7.99997 17 7.55226 17 6.99997ZM18.71 14.29C18.8993 14.4777 19.0058 14.7333 19.0058 15C19.0058 15.2666 18.8993 15.5222 18.71 15.71L15.71 18.71C15.5213 18.8972 15.2658 19.0015 15 19H14.84C14.5243 18.9472 14.2529 18.7464 14.11 18.46L13.11 16.46C12.9167 16.1388 12.9193 15.7365 13.1167 15.4178C13.3141 15.0992 13.6731 14.9176 14.0467 14.9476C14.4204 14.9775 14.7459 15.2139 14.89 15.56L15.27 16.32L17.27 14.32C17.4544 14.1204 17.712 14.0045 17.9836 13.9989C18.2552 13.9932 18.5175 14.0983 18.71 14.29ZM16 9.74997C17.0521 9.75478 18.0852 10.0303 19 10.55V4.78997C18.9871 4.56705 18.886 4.35842 18.719 4.21019C18.552 4.06195 18.3329 3.98631 18.11 3.99997H4.89C4.42945 3.97139 4.03207 4.31965 4 4.77997V17.22C4.03207 17.6803 4.42945 18.0286 4.89 18H10.08C9.43579 16.0927 9.74975 13.9918 10.9234 12.3562C12.0971 10.7205 13.9868 9.75041 16 9.74997ZM16 11.75C18.3472 11.75 20.25 13.6528 20.25 16C20.2445 18.3449 18.3449 20.2445 16 20.25C13.6528 20.25 11.75 18.3472 11.75 16C11.75 13.6528 13.6528 11.75 16 11.75Z" fill="#231F20"/>
</svg>
