<svg width="24" height="24" viewBox="0 0 24 24" fill="none" xmlns="http://www.w3.org/2000/svg">
<path fill-rule="evenodd" clip-rule="evenodd" d="M19.05 4.46003C19.5595 3.99984 20.2921 3.88232 20.92 4.16003C21.33 4.35003 22 4.90003 22 6.38003V17.63C22.1178 18.5298 21.6737 19.4101 20.88 19.85C20.6706 19.9492 20.4417 20.0004 20.21 20C19.768 19.9879 19.3425 19.8297 19 19.55L13 14.75V17.48C13.1103 18.381 12.6634 19.259 11.87 19.7C11.6602 19.7982 11.4316 19.8494 11.2 19.85C10.7585 19.8416 10.334 19.6788 9.99998 19.39L2.93998 13.77C2.33565 13.3168 1.97998 12.6054 1.97998 11.85C1.97998 11.0946 2.33565 10.3833 2.93998 9.93003L9.99998 4.31003C10.5133 3.83384 11.262 3.71168 11.9 4.00003C12.6951 4.45186 13.1318 5.34505 13 6.25003V9.25003L19.05 4.46003ZM11 12V11.81V6.23003V6.10003L4.18998 11.5C4.06265 11.5705 3.98363 11.7045 3.98363 11.85C3.98363 11.9955 4.06265 12.1296 4.18998 12.2L11 17.6V12.2V12ZM11.28 5.81003L10.67 5.05003L11.35 5.79003L11.28 5.81003ZM20 17.75V17.63V6.38003C20.0053 6.33686 20.0053 6.2932 20 6.25003L13.17 11.65C13.0841 11.7219 13.0186 11.815 12.98 11.92V12.08C13.0163 12.1863 13.0822 12.2799 13.17 12.35L20 17.75Z" fill="#231F20"/>
</svg>
