<svg width="24" height="24" viewBox="0 0 24 24" fill="none" xmlns="http://www.w3.org/2000/svg">
<path fill-rule="evenodd" clip-rule="evenodd" d="M22 19C22 20.6569 20.6569 22 19 22H5C3.34315 22 2 20.6569 2 19V5C2 3.34315 3.34315 2 5 2H19C20.6569 2 22 3.34315 22 5V19ZM18 12C18 12.5523 17.5523 13 17 13H9.41L11.71 15.29C11.8993 15.4778 12.0058 15.7334 12.0058 16C12.0058 16.2666 11.8993 16.5222 11.71 16.71C11.5222 16.8993 11.2666 17.0058 11 17.0058C10.7334 17.0058 10.4778 16.8993 10.29 16.71L6.29 12.71C6.19896 12.6149 6.12759 12.5028 6.08 12.38C5.97998 12.1365 5.97998 11.8635 6.08 11.62C6.12759 11.4972 6.19896 11.3851 6.29 11.29L10.29 7.29C10.5437 7.03634 10.9134 6.93728 11.2599 7.03012C11.6064 7.12297 11.877 7.39362 11.9699 7.74012C12.0627 8.08663 11.9637 8.45634 11.71 8.71L9.41 11H17C17.5523 11 18 11.4477 18 12ZM19 4C19.5523 4 20 4.44772 20 5V19C20 19.5523 19.5523 20 19 20H5C4.44772 20 4 19.5523 4 19V5C4 4.44772 4.44772 4 5 4H19Z" fill="#231F20"/>
</svg>
