<svg width="24" height="24" viewBox="0 0 24 24" fill="none" xmlns="http://www.w3.org/2000/svg">
<path fill-rule="evenodd" clip-rule="evenodd" d="M19.23 15.1399C20.7964 15.0195 22.0046 13.711 22 12.1399V5.99993C22.0013 5.47387 21.5948 5.03675 21.07 4.99993L6.18 3.99993L6 2.83993C5.92077 2.35087 5.49539 1.99356 5 1.99993H3C2.44772 1.99993 2 2.44765 2 2.99993C2 3.55222 2.44772 3.99993 3 3.99993H4.15L6 15.0799C6 16.2499 6 18.4099 8.08 18.8999C8.02758 19.0956 8.00069 19.2973 8 19.4999C8 20.8806 9.11929 21.9999 10.5 21.9999C11.8807 21.9999 13 20.8806 13 19.4999C13.0153 19.3336 13.0153 19.1662 13 18.9999H17.1C17.068 19.1647 17.0513 19.3321 17.05 19.4999C17.0448 20.716 17.9153 21.7594 19.1125 21.9722C20.3098 22.1849 21.4865 21.5053 21.9006 20.3619C22.3146 19.2186 21.8459 17.9431 20.79 17.3399C20.5913 17.1134 20.3011 16.9885 20 16.9999H9C8.47 16.9999 8.16 16.9999 8.05 15.9999L19.23 15.1399ZM19.5 18.9999C19.7761 18.9999 20 19.2238 20 19.4999C20 19.7761 19.7761 19.9999 19.5 19.9999C19.2239 19.9999 19 19.7761 19 19.4999C19 19.2238 19.2239 18.9999 19.5 18.9999ZM11 19.4999C11 19.2238 10.7761 18.9999 10.5 18.9999C10.2239 18.9999 10 19.2238 10 19.4999C10 19.7761 10.2239 19.9999 10.5 19.9999C10.7761 19.9999 11 19.7761 11 19.4999ZM7.92 13.9999H7.85L6.52 5.99993L20 6.93993V12.1499C20.0017 12.6724 19.6008 13.1081 19.08 13.1499L7.92 13.9999ZM16 10.9999C16.5523 10.9999 17 10.5522 17 9.99993C17 9.44765 16.5523 8.99993 16 8.99993H12C11.4477 8.99993 11 9.44765 11 9.99993C11 10.5522 11.4477 10.9999 12 10.9999H16Z" fill="#231F20"/>
</svg>
