<svg width="24" height="24" viewBox="0 0 24 24" fill="none" xmlns="http://www.w3.org/2000/svg">
<path fill-rule="evenodd" clip-rule="evenodd" d="M12 22C6.47715 22 2 17.5228 2 12C2 6.47715 6.47715 2 12 2C14.6522 2 17.1957 3.05357 19.0711 4.92893C20.9464 6.8043 22 9.34784 22 12C22 17.5228 17.5228 22 12 22ZM16.71 10.29C16.8993 10.4778 17.0058 10.7334 17.0058 11C17.0058 11.2666 16.8993 11.5222 16.71 11.71C16.5222 11.8993 16.2666 12.0058 16 12.0058C15.7334 12.0058 15.4778 11.8993 15.29 11.71L13 9.41V17C13 17.5523 12.5523 18 12 18C11.4477 18 11 17.5523 11 17V9.41L8.71 11.71C8.45634 11.9637 8.08663 12.0627 7.74012 11.9699C7.39362 11.877 7.12297 11.6064 7.03012 11.2599C6.93728 10.9134 7.03634 10.5437 7.29 10.29L11.29 6.29C11.3851 6.19896 11.4972 6.12759 11.62 6.08C11.8635 5.97998 12.1365 5.97998 12.38 6.08C12.5028 6.12759 12.6149 6.19896 12.71 6.29L16.71 10.29ZM12 4C16.4183 4 20 7.58172 20 12C20 14.1217 19.1571 16.1566 17.6569 17.6569C16.1566 19.1571 14.1217 20 12 20C7.58172 20 4 16.4183 4 12C4 7.58172 7.58172 4 12 4Z" fill="#231F20"/>
</svg>
