<svg width="24" height="24" viewBox="0 0 24 24" fill="none" xmlns="http://www.w3.org/2000/svg">
<path fill-rule="evenodd" clip-rule="evenodd" d="M4.02296 8.92221C4.00233 9.18664 4.0876 9.44843 4.26 9.64999C4.43238 9.85157 4.67779 9.9764 4.94222 9.99703C5.20665 10.0177 5.46844 9.93239 5.67 9.75999L11 5.17999V17C11 17.5523 11.4477 18 12 18C12.5523 18 13 17.5523 13 17V5.17999L18.37 9.75999C18.7897 10.119 19.421 10.0697 19.78 9.64999C20.139 9.23026 20.0897 8.59898 19.67 8.23999L12.67 2.23999C12.6202 2.20417 12.5665 2.17398 12.51 2.14999L12.39 2.06999C12.1524 1.97537 11.8876 1.97537 11.65 2.06999L11.53 2.14999C11.4735 2.17398 11.4198 2.20417 11.37 2.23999L4.37 8.23999C4.16842 8.41237 4.04359 8.65778 4.02296 8.92221ZM20 18C20 17.4477 20.4477 17 21 17C21.5523 17 22 17.4477 22 18V20C21.9093 21.1794 20.8909 22.0689 19.71 22H4.29C3.10915 22.0689 2.09066 21.1794 2 20V18C2 17.4477 2.44772 17 3 17C3.55228 17 4 17.4477 4 18V19.93C4.08891 19.9782 4.18888 20.0023 4.29 20H19.71C19.8111 20.0023 19.9111 19.9782 20 19.93V18Z" fill="#231F20"/>
</svg>
