<svg width="24" height="24" viewBox="0 0 24 24" fill="none" xmlns="http://www.w3.org/2000/svg">
<path fill-rule="evenodd" clip-rule="evenodd" d="M19.5 4C18.1193 4 17 5.11929 17 6.5V12C16.9471 11.1288 16.4157 10.3587 15.62 10L5.42002 4.38C4.71167 3.93283 3.81726 3.90225 3.08002 4.3C2.36893 4.75044 1.95607 5.54939 2.00002 6.39V17.62C1.95651 18.4583 2.35971 19.2571 3.06002 19.72C3.36289 19.8998 3.70785 19.9963 4.06002 20C4.52401 19.9888 4.97781 19.8616 5.38002 19.63L15.62 14C16.4157 13.6413 16.9471 12.8712 17 12V17.5C17 18.8807 18.1193 20 19.5 20C20.8807 20 22 18.8807 22 17.5V6.5C22 5.11929 20.8807 4 19.5 4ZM4.46002 17.88L14.62 12.26H14.65C14.7812 12.1935 14.8893 12.0889 14.96 11.96C14.9515 11.9685 14.9323 11.9518 14.8955 11.9199C14.8453 11.8765 14.7626 11.8049 14.63 11.73L4.44002 6.12C4.33502 6.05178 4.21479 6.01056 4.09002 6C4.02427 6.11908 3.9931 6.25415 4.00002 6.39V17.62C3.99199 17.7541 4.02703 17.8872 4.10002 18C4.22841 17.992 4.35249 17.9506 4.46002 17.88ZM19.5 18C19.7762 18 20 17.7761 20 17.5V6.5C20 6.22386 19.7762 6 19.5 6C19.2239 6 19 6.22386 19 6.5V17.5C19 17.7761 19.2239 18 19.5 18Z" fill="#231F20"/>
</svg>
