<svg width="24" height="24" viewBox="0 0 24 24" fill="none" xmlns="http://www.w3.org/2000/svg">
<path fill-rule="evenodd" clip-rule="evenodd" d="M5 2H19C20.6569 2 22 3.34315 22 5V19C22 20.6569 20.6569 22 19 22H5C3.34315 22 2 20.6569 2 19V5C2 3.34315 3.34315 2 5 2ZM12.71 14.72L16.71 10.72C16.9637 10.4681 17.0637 10.1001 16.9724 9.75445C16.8811 9.40884 16.6123 9.13819 16.2674 9.04445C15.9224 8.95071 15.5537 9.04813 15.3 9.3L12 12.58L8.71 9.3C8.45813 9.04634 8.09006 8.94632 7.74445 9.03762C7.39884 9.12892 7.12819 9.39767 7.03445 9.74262C6.94071 10.0876 7.03813 10.4563 7.29 10.71L11.29 14.71C11.4787 14.8972 11.7342 15.0015 12 15C12.2644 15.0042 12.5197 14.9035 12.71 14.72Z" fill="black"/>
</svg>
