<svg width="24" height="24" viewBox="0 0 24 24" fill="none" xmlns="http://www.w3.org/2000/svg">
<circle cx="12" cy="12" r="1" fill="black"/>
<path fill-rule="evenodd" clip-rule="evenodd" d="M19.93 11H21C21.5523 11 22 11.4477 22 12C22 12.5523 21.5523 13 21 13H19.93C19.4709 16.6202 16.6202 19.4709 13 19.93V21C13 21.5523 12.5523 22 12 22C11.4477 22 11 21.5523 11 21V19.93C7.37981 19.4709 4.52909 16.6202 4.07 13H3C2.44772 13 2 12.5523 2 12C2 11.4477 2.44772 11 3 11H4.07C4.52909 7.37981 7.37981 4.52909 11 4.07V3C11 2.44772 11.4477 2 12 2C12.5523 2 13 2.44772 13 3V4.07C16.6202 4.52909 19.4709 7.37981 19.93 11ZM9 12C9 13.6569 10.3431 15 12 15C12.7956 15 13.5587 14.6839 14.1213 14.1213C14.6839 13.5587 15 12.7956 15 12C15 10.3431 13.6569 9 12 9C10.3431 9 9 10.3431 9 12Z" fill="black"/>
</svg>
