<svg width="24" height="24" viewBox="0 0 24 24" fill="none" xmlns="http://www.w3.org/2000/svg">
<path d="M7 12C7.00039 12.4388 7.05753 12.8758 7.17 13.3L13.63 7.3C13.1064 7.11282 12.5559 7.01152 12 7C9.23858 7 7 9.23858 7 12Z" fill="black"/>
<path d="M16.0699 9.09993L17.5399 7.72993L18.3699 6.99993L19.6799 5.77993C19.9701 5.54459 20.1049 5.16707 20.0294 4.80112C19.9539 4.43517 19.6807 4.14185 19.321 4.04061C18.9613 3.93937 18.5752 4.0471 18.3199 4.31993L16.7699 5.70993L16.0999 6.33993L14.6099 7.73993L7.60989 14.3099L6.11989 15.7099L5.18989 16.5699L3.36989 18.2699C2.98217 18.66 2.98217 19.2899 3.36989 19.6799C3.74603 20.0818 4.37624 20.1042 4.77989 19.7299L6.77989 17.8899L7.48989 17.2299L8.94989 15.8599L16.0699 9.09993Z" fill="black"/>
<path d="M11.9999 17C13.6861 16.9991 15.2582 16.1485 16.1814 14.7375C17.1045 13.3266 17.2544 11.5454 16.5799 10L9.68994 16.43C10.4011 16.8077 11.1947 17.0035 11.9999 17Z" fill="black"/>
<path d="M5.57995 14.79C4.6396 12.6262 4.8525 10.1343 6.14629 8.16136C7.44007 6.18845 9.64065 4.99999 11.9999 5C13.1218 4.99569 14.2275 5.26697 15.2199 5.79L15.8599 5.19C14.6645 4.579 13.3424 4.25703 11.9999 4.25C10.0549 4.27663 8.17082 4.93272 6.62995 6.12C4.76556 7.57812 3.23179 9.41524 2.12995 11.51C1.95131 11.8194 1.95131 12.2006 2.12995 12.51C2.78315 13.7052 3.5608 14.8281 4.44995 15.86L5.57995 14.79Z" fill="black"/>
<path d="M21.8799 11.5099C21.1215 10.1075 20.1836 8.8099 19.0899 7.6499L18.0899 8.5799C18.688 9.62033 19.0018 10.7998 18.9999 11.9999C18.9999 15.8659 15.8659 18.9999 11.9999 18.9999C10.6345 19.0038 9.2984 18.6037 8.15989 17.8499L7.50989 18.4599C8.86075 19.2917 10.4135 19.7378 11.9999 19.7499C13.9471 19.7183 15.8329 19.0629 17.3799 17.8799C19.2443 16.4218 20.778 14.5847 21.8799 12.4899C22.0509 12.1856 22.0509 11.8142 21.8799 11.5099Z" fill="black"/>
</svg>
