<svg width="24" height="24" viewBox="0 0 24 24" fill="none" xmlns="http://www.w3.org/2000/svg">
<path fill-rule="evenodd" clip-rule="evenodd" d="M4.89 1.99998H18.11C19.6709 1.97202 20.9618 3.20925 21 4.76998V10.77C20.5457 10.3205 20.0307 9.93674 19.47 9.62998C16.8538 8.23656 13.6529 8.57605 11.3872 10.4872C9.12149 12.3984 8.24741 15.4964 9.18 18.31C9.37347 18.9087 9.64946 19.4775 10 20H4.89C3.32524 20.0279 2.03281 18.7846 2 17.22V4.77998C2.03281 3.21532 3.32524 1.97208 4.89 1.99998ZM7 7.99998H16C16.5523 7.99998 17 7.55226 17 6.99998C17 6.44769 16.5523 5.99998 16 5.99998H7C6.44772 5.99998 6 6.44769 6 6.99998C6 7.55226 6.44772 7.99998 7 7.99998Z" fill="black"/>
<path fill-rule="evenodd" clip-rule="evenodd" d="M19 10.51C19.7811 10.935 20.4629 11.5213 21 12.23C21.8222 13.3138 22.2618 14.6397 22.25 16C22.259 18.6406 20.6075 21.002 18.124 21.8994C15.6405 22.7968 12.861 22.0365 11.18 20C10.6908 19.4085 10.3176 18.7299 10.08 18C9.43581 16.0927 9.74978 13.9918 10.9235 12.3562C12.0972 10.7206 13.9869 9.75044 16 9.75C17.0475 9.75121 18.0783 10.0124 19 10.51ZM16.42 17H18V16.96C18.5523 16.96 19 16.5123 19 15.96C19 15.4077 18.5523 14.96 18 14.96H16.46L16.75 14.67C17.1421 14.2779 17.1421 13.6421 16.75 13.25C16.3579 12.8579 15.7222 12.8579 15.33 13.25L13.33 15.25C13.0681 15.5114 12.9719 15.8961 13.08 16.25C13.0711 16.2962 13.0711 16.3438 13.08 16.39C13.1288 16.5092 13.2001 16.6178 13.29 16.71L15.29 18.71C15.4778 18.8993 15.7334 19.0058 16 19.0058C16.2667 19.0058 16.5223 18.8993 16.71 18.71C16.8993 18.5222 17.0058 18.2666 17.0058 18C17.0058 17.7334 16.8993 17.4778 16.71 17.29L16.42 17Z" fill="black"/>
</svg>
