<svg width="24" height="24" viewBox="0 0 24 24" fill="none" xmlns="http://www.w3.org/2000/svg">
<path d="M19.7599 9.65C19.5876 9.85158 19.3422 9.97641 19.0777 9.99704C18.8133 10.0177 18.5515 9.9324 18.3499 9.76L12.9999 5.17V21C12.9999 21.5523 12.5522 22 11.9999 22C11.4477 22 10.9999 21.5523 10.9999 21V5.17L5.64995 9.76C5.23021 10.119 4.59893 10.0697 4.23995 9.65C3.88096 9.23026 3.93021 8.59898 4.34995 8.24L11.3499 2.24C11.4011 2.20624 11.4545 2.17616 11.5099 2.15L11.6299 2.07C11.8675 1.97537 12.1324 1.97537 12.3699 2.07L12.4899 2.15C12.5453 2.17616 12.5988 2.20624 12.6499 2.24L19.6499 8.24C19.8515 8.41238 19.9764 8.65779 19.997 8.92222C20.0176 9.18665 19.9324 9.44844 19.7599 9.65Z" fill="#231F20"/>
</svg>
