<svg width="24" height="24" viewBox="0 0 24 24" fill="none" xmlns="http://www.w3.org/2000/svg">
<path fill-rule="evenodd" clip-rule="evenodd" d="M21.71 21.71C21.5222 21.8993 21.2666 22.0058 21 22.0058C20.7334 22.0058 20.4778 21.8993 20.29 21.71L14.9 16.31C13.5025 17.407 11.7767 18.0022 10 18C5.58172 18 2 14.4183 2 10C2 5.58172 5.58172 2 10 2C14.4183 2 18 5.58172 18 10C18.0022 11.7767 17.407 13.5025 16.31 14.9L21.71 20.29C21.8993 20.4778 22.0058 20.7334 22.0058 21C22.0058 21.2666 21.8993 21.5222 21.71 21.71ZM14 10C14 10.5523 13.5523 11 13 11H7C6.44772 11 6 10.5523 6 10C6 9.44772 6.44772 9 7 9H13C13.5523 9 14 9.44772 14 10ZM10 4C13.3137 4 16 6.68629 16 10C16 11.5913 15.3679 13.1174 14.2426 14.2426C13.1174 15.3679 11.5913 16 10 16C6.68629 16 4 13.3137 4 10C4 6.68629 6.68629 4 10 4Z" fill="#231F20"/>
</svg>
