<svg width="24" height="24" viewBox="0 0 24 24" fill="none" xmlns="http://www.w3.org/2000/svg">
<path d="M21.0999 2.90002C20.5362 2.32899 19.7673 2.00757 18.9649 2.00757C18.1625 2.00757 17.3936 2.32899 16.8299 2.90002L14.9099 4.85002L19.1499 9.09002L21.0699 7.17002C21.6449 6.61035 21.9718 5.84367 21.9774 5.04129C21.983 4.2389 21.667 3.4677 21.0999 2.90002Z" fill="black"/>
<path d="M13.4899 6.27002L5.09995 14.66C5.02474 14.7373 4.96078 14.8249 4.90995 14.92L2.12995 20.53C1.96593 20.838 1.97429 21.2092 2.152 21.5094C2.3297 21.8097 2.65107 21.9956 2.99995 22C3.15232 22.0006 3.30282 21.9664 3.43995 21.9L9.04995 19.12C9.1451 19.0692 9.23262 19.0052 9.30995 18.93L17.6999 10.54L13.4899 6.27002Z" fill="black"/>
<path d="M21 22H12C11.4477 22 11 21.5523 11 21C11 20.4477 11.4477 20 12 20H21C21.5523 20 22 20.4477 22 21C22 21.5523 21.5523 22 21 22Z" fill="black"/>
</svg>
