<svg width="24" height="24" viewBox="0 0 24 24" fill="none" xmlns="http://www.w3.org/2000/svg">
<path fill-rule="evenodd" clip-rule="evenodd" d="M4.52 3.9999C3.8535 3.99456 3.21247 4.2556 2.73929 4.72502C2.26611 5.19444 1.99998 5.83338 2 6.4999V17.4999C2 18.8806 3.11929 19.9999 4.5 19.9999C5.88071 19.9999 7 18.8806 7 17.4999V11.9999C7.04882 12.8696 7.57668 13.6402 8.37 13.9999L18.6 19.6299C18.9986 19.8615 19.4492 19.9887 19.91 19.9999C20.2622 19.9962 20.6071 19.8996 20.91 19.7199C21.6265 19.2687 22.0434 18.4656 22 17.6199V6.3899C22.0633 5.56474 21.6822 4.76834 21 4.2999C20.2597 3.90037 19.3615 3.93094 18.65 4.3799L8.41 9.9999C7.60109 10.3481 7.0562 11.121 7 11.9999V6.4999C7.00004 5.12696 5.89289 4.01088 4.52 3.9999ZM19.93 17.9899C19.9867 17.8753 20.0109 17.7473 20 17.6199V6.3799C20.012 6.24807 19.9842 6.11567 19.92 5.9999C19.7915 6.02085 19.6689 6.06855 19.56 6.1399L9.33 11.7199C9.19423 11.7777 9.07917 11.8754 9 11.9999C9.11601 12.0965 9.23976 12.1835 9.37 12.2599L19.56 17.8799C19.6682 17.9556 19.798 17.9942 19.93 17.9899ZM4.5 17.9999C4.77614 17.9999 5 17.776 5 17.4999V6.4999C5 6.22375 4.77614 5.9999 4.5 5.9999C4.22386 5.9999 4 6.22375 4 6.4999V17.4999C4 17.776 4.22386 17.9999 4.5 17.9999Z" fill="#231F20"/>
</svg>
