<svg width="24" height="24" viewBox="0 0 24 24" fill="none" xmlns="http://www.w3.org/2000/svg">
<path fill-rule="evenodd" clip-rule="evenodd" d="M2 12C2 6.47715 6.47715 2 12 2C14.6522 2 17.1957 3.05357 19.0711 4.92893C20.9464 6.8043 22 9.34784 22 12C22 17.5228 17.5228 22 12 22C6.47715 22 2 17.5228 2 12ZM16 12.0058C16.2666 12.0058 16.5222 11.8993 16.71 11.71C16.8993 11.5222 17.0058 11.2666 17.0058 11C17.0058 10.7334 16.8993 10.4778 16.71 10.29L12.71 6.29C12.6149 6.19896 12.5028 6.12759 12.38 6.08C12.1365 5.97998 11.8635 5.97998 11.62 6.08C11.4972 6.12759 11.3851 6.19896 11.29 6.29L7.29 10.29C7.03634 10.5437 6.93728 10.9134 7.03012 11.2599C7.12297 11.6064 7.39362 11.877 7.74012 11.9699C8.08663 12.0627 8.45634 11.9637 8.71 11.71L11 9.41V17C11 17.5523 11.4477 18 12 18C12.5523 18 13 17.5523 13 17V9.41L15.29 11.71C15.4778 11.8993 15.7334 12.0058 16 12.0058Z" fill="black"/>
</svg>
