<svg width="24" height="24" viewBox="0 0 24 24" fill="none" xmlns="http://www.w3.org/2000/svg">
<path fill-rule="evenodd" clip-rule="evenodd" d="M5 2H19C20.6569 2 22 3.34315 22 5V11.8C21.9913 15.3468 19.9003 18.5577 16.66 20L12.41 21.88C12.1492 21.9972 11.8508 21.9972 11.59 21.88L7.34 20C4.09975 18.5577 2.00875 15.3468 2 11.8V5C2 3.34315 3.34315 2 5 2ZM15.07 12.44L16.72 10.75H16.7C16.9579 10.4807 17.0446 10.0902 16.9248 9.73705C16.8049 9.3839 16.4986 9.12677 16.13 9.07L13.9 8.73L12.9 6.58C12.7375 6.22344 12.3818 5.99461 11.99 5.99461C11.5982 5.99461 11.2425 6.22344 11.08 6.58L10.08 8.73L7.85 9.07C7.48143 9.12677 7.17507 9.3839 7.05525 9.73705C6.93543 10.0902 7.02207 10.4807 7.28 10.75L8.9 12.48L8.51 14.88C8.46458 15.2516 8.63058 15.6175 8.94015 15.8281C9.24972 16.0387 9.65101 16.0587 9.98 15.88L11.98 14.78L13.98 15.88C14.1274 15.9596 14.2925 16.0008 14.46 16C14.7554 16.0038 15.0374 15.8768 15.2303 15.653C15.4232 15.4293 15.5073 15.1316 15.46 14.84L15.07 12.44Z" fill="black"/>
<path d="M12.33 10.0601L12 9.3501L11.67 10.0601C11.5281 10.3595 11.2473 10.5692 10.92 10.6201L10.08 10.7501L10.72 11.4101C10.9414 11.6376 11.0416 11.9568 10.99 12.2701L10.85 13.1301L11.52 12.7601C11.8294 12.5815 12.2106 12.5815 12.52 12.7601L13.19 13.1301L13 12.2701C12.9483 11.9568 13.0485 11.6376 13.27 11.4101L13.91 10.7501L13.07 10.6201C12.7464 10.5661 12.4698 10.3568 12.33 10.0601Z" fill="black"/>
</svg>
