<svg width="24" height="24" viewBox="0 0 24 24" fill="none" xmlns="http://www.w3.org/2000/svg">
<path fill-rule="evenodd" clip-rule="evenodd" d="M22 19C22 20.6569 20.6569 22 19 22H5C3.34315 22 2 20.6569 2 19V5C2 3.34315 3.34315 2 5 2H19C20.6569 2 22 3.34315 22 5V19ZM17.92 12.38C17.8724 12.5028 17.801 12.6149 17.71 12.71L13.71 16.71C13.5222 16.8993 13.2666 17.0058 13 17.0058C12.7334 17.0058 12.4778 16.8993 12.29 16.71C12.1007 16.5222 11.9942 16.2666 11.9942 16C11.9942 15.7334 12.1007 15.4778 12.29 15.29L14.59 13H7C6.44772 13 6 12.5523 6 12C6 11.4477 6.44772 11 7 11H14.59L12.29 8.71C12.0363 8.45634 11.9373 8.08663 12.0301 7.74012C12.123 7.39362 12.3936 7.12297 12.7401 7.03012C13.0866 6.93728 13.4563 7.03634 13.71 7.29L17.71 11.29C17.801 11.3851 17.8724 11.4972 17.92 11.62C18.02 11.8635 18.02 12.1365 17.92 12.38ZM19 4C19.5523 4 20 4.44772 20 5V19C20 19.5523 19.5523 20 19 20H5C4.44772 20 4 19.5523 4 19V5C4 4.44772 4.44772 4 5 4H19Z" fill="#231F20"/>
</svg>
