<svg width="24" height="24" viewBox="0 0 24 24" fill="none" xmlns="http://www.w3.org/2000/svg">
<path fill-rule="evenodd" clip-rule="evenodd" d="M19 4H5C3.34315 4 2 5.34315 2 7V17C2 18.6569 3.34315 20 5 20H19C20.6569 20 22 18.6569 22 17V7C22 5.34315 20.6569 4 19 4ZM20 17C20 17.5523 19.5523 18 19 18H5C4.44772 18 4 17.5523 4 17V7C4 6.44772 4.44772 6 5 6H19C19.5523 6 20 6.44772 20 7V17ZM14 11.78C14.5476 11.2822 15.2599 11.0044 16 11C17.6569 11 19 12.3431 19 14C19 15.6569 17.6569 17 16 17C15.2599 16.9956 14.5476 16.7178 14 16.22C13.4524 16.7178 12.7401 16.9956 12 17C10.3431 17 9 15.6569 9 14C9 12.3431 10.3431 11 12 11C12.7401 11.0044 13.4524 11.2822 14 11.78ZM12 15C11.4477 15 11 14.5523 11 14C11 13.4477 11.4477 13 12 13C12.5523 13 13 13.4477 13 14C13 14.5523 12.5523 15 12 15ZM15 14C15 14.5523 15.4477 15 16 15C16.5523 15 17 14.5523 17 14C17 13.4477 16.5523 13 16 13C15.4477 13 15 13.4477 15 14Z" fill="#231F20"/>
</svg>
