<svg width="24" height="24" viewBox="0 0 24 24" fill="none" xmlns="http://www.w3.org/2000/svg">
<path fill-rule="evenodd" clip-rule="evenodd" d="M21.4501 11.11L3.45005 2.10999C3.08811 1.92324 2.64906 1.97466 2.34005 2.23999C2.03233 2.50725 1.91759 2.93453 2.05005 3.31999L5.00005 12L2.10005 20.68C1.99921 20.9774 2.04395 21.305 2.22087 21.5644C2.39779 21.8239 2.68634 21.9852 3.00005 22C3.1566 21.9991 3.31073 21.9614 3.45005 21.89L21.4501 12.89C21.784 12.7189 21.9941 12.3752 21.9941 12C21.9941 11.6247 21.784 11.2811 21.4501 11.11ZM4.71005 19L6.71005 13H16.7101L4.71005 19ZM4.71005 4.99999L6.71005 11H16.7601L4.71005 4.99999Z" fill="#231F20"/>
</svg>
