<svg width="24" height="24" viewBox="0 0 24 24" fill="none" xmlns="http://www.w3.org/2000/svg">
<path fill-rule="evenodd" clip-rule="evenodd" d="M22.72 12C22.6046 13.012 22.1075 13.9419 21.33 14.6C21.0292 14.892 20.7761 15.2294 20.58 15.6C20.4556 16.0147 20.4016 16.4474 20.42 16.88C20.5036 17.8705 20.2028 18.8552 19.58 19.63C18.8053 20.2528 17.8206 20.5536 16.83 20.47C16.3974 20.4515 15.9648 20.5056 15.55 20.63C15.1812 20.8287 14.8441 21.0815 14.55 21.38C13.9003 22.1333 12.989 22.6122 12 22.72C10.9858 22.6116 10.0535 22.1132 9.40003 21.33C9.10597 21.0315 8.76891 20.7787 8.40003 20.58C7.98528 20.4556 7.55264 20.4015 7.12003 20.42C6.1295 20.5036 5.1448 20.2028 4.37003 19.58C3.74724 18.8052 3.44646 17.8205 3.53003 16.83C3.54849 16.3974 3.49441 15.9647 3.37003 15.55C3.17398 15.1794 2.92089 14.842 2.62003 14.55C1.87217 13.8959 1.39451 12.9869 1.28003 12C1.39542 10.988 1.89255 10.0581 2.67003 9.4C2.97089 9.10803 3.22398 8.77058 3.42003 8.4C3.54441 7.98525 3.59849 7.5526 3.58003 7.12C3.49646 6.12947 3.79724 5.14476 4.42003 4.37C5.1948 3.74721 6.1795 3.44642 7.17003 3.53C7.60263 3.54846 8.03528 3.49438 8.45003 3.37C8.81891 3.17128 9.15597 2.91848 9.45003 2.62C10.0998 1.86668 11.0111 1.38782 12 1.28C13.0142 1.38838 13.9466 1.88682 14.6 2.67C14.8941 2.96848 15.2312 3.22128 15.6 3.42C16.0148 3.54438 16.4474 3.59846 16.88 3.58C17.8706 3.49642 18.8553 3.79721 19.63 4.42C20.2528 5.19477 20.5536 6.17947 20.47 7.17C20.4516 7.6026 20.5056 8.03525 20.63 8.45C20.8261 8.82058 21.0792 9.15803 21.38 9.45C22.1279 10.1041 22.6056 11.0131 22.72 12ZM9.00003 11.37C7.75739 11.37 6.75003 10.3626 6.75003 9.12C6.75003 7.87736 7.75739 6.87 9.00003 6.87C10.2427 6.87 11.25 7.87736 11.25 9.12C11.2295 10.3165 10.276 11.2876 9.08003 11.33L9.00003 11.37ZM16 9.37L9.37003 16C9.18377 16.1847 8.93237 16.2889 8.67003 16.29C8.41813 16.2812 8.17883 16.1776 8.00003 16C7.61231 15.61 7.61231 14.98 8.00003 14.59L14.63 8C14.8429 7.64061 15.2567 7.45136 15.6677 7.52541C16.0788 7.59946 16.4006 7.92121 16.4746 8.33228C16.5487 8.74336 16.3594 9.15716 16 9.37ZM9.00003 8.87C9.1381 8.87 9.25003 8.98193 9.25003 9.12L9.33003 9.08C9.33003 9.36 8.83003 9.36 8.75003 9.12C8.75516 8.98411 8.86414 8.87513 9.00003 8.87ZM19.87 10.77C20.27 11.19 20.72 11.68 20.72 12C20.72 12.2644 20.4128 12.6448 20.103 13.0285L20.103 13.0285C20.0379 13.1092 19.9726 13.1901 19.91 13.27C19.438 13.7161 19.0516 14.2448 18.77 14.83C18.5425 15.4714 18.4373 16.1498 18.46 16.83C18.4963 17.3168 18.4103 17.8049 18.21 18.25C17.7649 18.4503 17.2768 18.5362 16.79 18.5C16.1098 18.4773 15.4314 18.5825 14.79 18.81C14.2048 19.0916 13.6761 19.478 13.23 19.95C12.81 20.35 12.32 20.8 12 20.8C11.68 20.8 11.19 20.35 10.77 19.95C10.324 19.478 9.79525 19.0916 9.21003 18.81C8.56862 18.5825 7.89022 18.4773 7.21003 18.5C6.72326 18.5362 6.23515 18.4503 5.79003 18.25C5.58972 17.8049 5.50378 17.3168 5.54003 16.83C5.56271 16.1498 5.45756 15.4714 5.23003 14.83C4.94843 14.2448 4.56206 13.7161 4.09003 13.27C3.69003 12.85 3.24003 12.36 3.24003 12.04C3.24003 11.72 3.69003 11.23 4.09003 10.81C4.56206 10.3639 4.94843 9.83522 5.23003 9.25C5.45756 8.60859 5.56271 7.93019 5.54003 7.25C5.50378 6.76323 5.58972 6.27512 5.79003 5.83C6.23515 5.62969 6.72326 5.54375 7.21003 5.58C7.89022 5.60268 8.56862 5.49753 9.21003 5.27C9.78421 4.97233 10.2993 4.57246 10.73 4.09C11.15 3.69 11.64 3.24 11.96 3.24C12.28 3.24 12.77 3.69 13.19 4.09C13.6361 4.56203 14.1648 4.9484 14.75 5.23C15.3914 5.45753 16.0698 5.56268 16.75 5.54C17.2368 5.50375 17.7249 5.58969 18.17 5.79C18.3703 6.23512 18.4563 6.72323 18.42 7.21C18.3973 7.89019 18.5025 8.56859 18.73 9.21C19.0116 9.79522 19.398 10.3239 19.87 10.77ZM17.17 14.92C17.17 16.1626 16.1627 17.17 14.92 17.17C13.6774 17.17 12.67 16.1626 12.67 14.92C12.67 13.6774 13.6774 12.67 14.92 12.67C16.1627 12.67 17.17 13.6774 17.17 14.92ZM14.92 14.67C15.0581 14.67 15.17 14.7819 15.17 14.92C15.17 15.19 14.67 15.19 14.67 14.92C14.67 14.7819 14.782 14.67 14.92 14.67Z" fill="#231F20"/>
</svg>
