<svg width="24" height="24" viewBox="0 0 24 24" fill="none" xmlns="http://www.w3.org/2000/svg">
<path fill-rule="evenodd" clip-rule="evenodd" d="M19 11V9C19 5.13401 15.866 2 12 2C8.13401 2 5 5.13401 5 9V11C3.34315 11 2 12.3431 2 14V19C2 20.6569 3.34315 22 5 22H19C20.6569 22 22 20.6569 22 19V14C22 12.3431 20.6569 11 19 11ZM7 9C7 6.23858 9.23858 4 12 4C14.7614 4 17 6.23858 17 9V11H7V9ZM19 20C19.5523 20 20 19.5523 20 19V14C20 13.4477 19.5523 13 19 13H5C4.44772 13 4 13.4477 4 14V19C4 19.5523 4.44772 20 5 20H19Z" fill="#231F20"/>
</svg>
