<svg width="24" height="24" viewBox="0 0 24 24" fill="none" xmlns="http://www.w3.org/2000/svg">
<path fill-rule="evenodd" clip-rule="evenodd" d="M5.05186 5.05174C8.9092 1.1944 15.1463 1.1402 19.07 4.92992C22.8598 8.85371 22.8056 15.0908 18.9482 18.9481C15.0909 22.8054 8.85383 22.8596 4.93005 19.0699C1.14032 15.1461 1.19452 8.90908 5.05186 5.05174ZM16.5558 15.5499C16.5558 15.2833 16.4494 15.0277 16.26 14.8399L13.41 11.9999L16.26 9.15992C16.5137 8.90626 16.6128 8.53655 16.5199 8.19004C16.4271 7.84354 16.1564 7.57289 15.8099 7.48004C15.4634 7.3872 15.0937 7.48626 14.84 7.73992L12 10.5899L9.16005 7.73992C8.90639 7.48626 8.53667 7.3872 8.19017 7.48004C7.84366 7.57289 7.57301 7.84354 7.48017 8.19004C7.38732 8.53655 7.48639 8.90626 7.74005 9.15992L10.59 11.9999L7.74005 14.8399C7.55073 15.0277 7.44425 15.2833 7.44425 15.5499C7.44425 15.8166 7.55073 16.0722 7.74005 16.2599C7.92876 16.4471 8.18424 16.5515 8.45005 16.5499C8.71585 16.5515 8.97133 16.4471 9.16005 16.2599L12 13.4099L14.84 16.2599C15.0288 16.4471 15.2842 16.5515 15.55 16.5499C15.8158 16.5515 16.0713 16.4471 16.26 16.2599C16.4494 16.0722 16.5558 15.8166 16.5558 15.5499Z" fill="black"/>
</svg>
