<svg width="24" height="24" viewBox="0 0 24 24" fill="none" xmlns="http://www.w3.org/2000/svg">
<path fill-rule="evenodd" clip-rule="evenodd" d="M2 12C2 6.47715 6.47715 2 12 2C14.6522 2 17.1957 3.05357 19.0711 4.92893C20.9464 6.8043 22 9.34784 22 12C22 17.5228 17.5228 22 12 22C6.47715 22 2 17.5228 2 12ZM12.71 14.73L16.71 10.73C17.1021 10.3379 17.1021 9.70212 16.71 9.31C16.3179 8.91788 15.6821 8.91788 15.29 9.31L12 12.58L8.71 9.31C8.45634 9.05634 8.08663 8.95728 7.74012 9.05012C7.39362 9.14297 7.12297 9.41362 7.03012 9.76012C6.93728 10.1066 7.03634 10.4763 7.29 10.73L11.29 14.73C11.4778 14.9193 11.7334 15.0258 12 15.0258C12.2666 15.0258 12.5222 14.9193 12.71 14.73Z" fill="black"/>
</svg>
