<svg width="24" height="24" viewBox="0 0 24 24" fill="none" xmlns="http://www.w3.org/2000/svg">
<path fill-rule="evenodd" clip-rule="evenodd" d="M19.07 19.07C15.1463 22.8597 8.9092 22.8055 5.05186 18.9482C1.19452 15.0909 1.14032 8.8538 4.93005 4.93001C8.85383 1.14029 15.0909 1.19449 18.9482 5.05183C22.8056 8.90917 22.8598 15.1462 19.07 19.07ZM16.26 9.16001L13.41 12L16.26 14.84C16.4494 15.0278 16.5558 15.2834 16.5558 15.55C16.5558 15.8167 16.4494 16.0722 16.26 16.26C16.0713 16.4472 15.8158 16.5516 15.55 16.55C15.2842 16.5516 15.0288 16.4472 14.84 16.26L12 13.41L9.16005 16.26C8.97133 16.4472 8.71585 16.5516 8.45005 16.55C8.18424 16.5516 7.92876 16.4472 7.74005 16.26C7.55073 16.0722 7.44425 15.8167 7.44425 15.55C7.44425 15.2834 7.55073 15.0278 7.74005 14.84L10.59 12L7.74005 9.16001C7.48639 8.90636 7.38732 8.53664 7.48017 8.19014C7.57301 7.84363 7.84366 7.57298 8.19017 7.48014C8.53667 7.38729 8.90639 7.48636 9.16005 7.74001L12 10.59L14.84 7.74001C15.0937 7.48636 15.4634 7.38729 15.8099 7.48014C16.1564 7.57298 16.4271 7.84363 16.5199 8.19014C16.6128 8.53664 16.5137 8.90636 16.26 9.16001ZM6.34844 6.34421C9.47123 3.22025 14.5349 3.21838 17.66 6.34001C19.1747 7.83395 20.0273 9.8726 20.0273 12C20.0273 14.1274 19.1747 16.1661 17.66 17.66C14.5349 20.7817 9.47123 20.7798 6.34844 17.6558C3.22564 14.5319 3.22564 9.46816 6.34844 6.34421Z" fill="#231F20"/>
</svg>
