<svg width="24" height="24" viewBox="0 0 24 24" fill="none" xmlns="http://www.w3.org/2000/svg">
<path fill-rule="evenodd" clip-rule="evenodd" d="M19 2H5C3.34315 2 2 3.34315 2 5V19C2 20.6569 3.34315 22 5 22H19C20.6569 22 22 20.6569 22 19V5C22 3.34315 20.6569 2 19 2ZM20 19C20 19.5523 19.5523 20 19 20H5C4.44772 20 4 19.5523 4 19V5C4 4.44772 4.44772 4 5 4H19C19.5523 4 20 4.44772 20 5V19ZM16.7 14.69C17.0877 14.3 17.0877 13.67 16.7 13.28L12.7 9.28C12.31 8.89228 11.68 8.89228 11.29 9.28L7.29 13.28C7.03634 13.5319 6.93632 13.8999 7.02762 14.2455C7.11892 14.5912 7.38766 14.8618 7.73262 14.9555C8.07758 15.0493 8.44634 14.9519 8.7 14.7L12 11.42L15.3 14.71C15.4863 14.8947 15.7377 14.9989 16 15C16.2652 14.9936 16.517 14.8821 16.7 14.69Z" fill="#231F20"/>
</svg>
