<svg width="24" height="24" viewBox="0 0 24 24" fill="none" xmlns="http://www.w3.org/2000/svg">
<path fill-rule="evenodd" clip-rule="evenodd" d="M19.23 15.1398C20.7964 15.0194 22.0046 13.7109 22 12.1398V5.99984C22.0013 5.47378 21.5948 5.03666 21.07 4.99984L6.18 3.99984L6 2.83984C5.92077 2.35078 5.49539 1.99346 5 1.99984H3C2.44772 1.99984 2 2.44756 2 2.99984C2 3.55212 2.44772 3.99984 3 3.99984H4.15L6 15.0798C6 16.2498 6 18.4098 8.08 18.8998C8.02758 19.0956 8.00069 19.2972 8 19.4998C8 20.8806 9.11929 21.9998 10.5 21.9998C11.8807 21.9998 13 20.8806 13 19.4998C13.0153 19.3335 13.0153 19.1662 13 18.9998H17.1C17.068 19.1646 17.0513 19.332 17.05 19.4998C17.0435 20.7118 17.9073 21.7539 19.0995 21.9723C20.2916 22.1907 21.4687 21.5225 21.8923 20.387C22.3159 19.2514 21.864 17.9756 20.82 17.3598H20.76C20.3787 17.1317 19.9443 17.0076 19.5 16.9998H9C8.47 16.9998 8.15 16.9998 8 15.9998L19.23 15.1398ZM19.5 18.9998C19.7761 18.9998 20 19.2237 20 19.4998C20 19.776 19.7761 19.9998 19.5 19.9998C19.2239 19.9998 19 19.776 19 19.4998C19 19.2237 19.2239 18.9998 19.5 18.9998ZM11 19.4998C11 19.2237 10.7761 18.9998 10.5 18.9998C10.2239 18.9998 10 19.2237 10 19.4998C10 19.776 10.2239 19.9998 10.5 19.9998C10.7761 19.9998 11 19.776 11 19.4998Z" fill="black"/>
</svg>
