<svg width="24" height="24" viewBox="0 0 24 24" fill="none" xmlns="http://www.w3.org/2000/svg">
<path fill-rule="evenodd" clip-rule="evenodd" d="M17.32 3.21999C19.5155 3.8403 21.224 5.56781 21.82 7.76999C22.3329 9.87909 21.6317 12.0985 20 13.53L12.73 20.71C12.3412 21.0911 11.7189 21.0911 11.33 20.71L4.00004 13.53C2.36842 12.0985 1.66715 9.87909 2.18004 7.76999C2.77605 5.56781 4.48458 3.8403 6.68004 3.21999C8.52573 2.7141 10.502 3.11902 12 4.30999C13.4981 3.11902 15.4744 2.7141 17.32 3.21999ZM12 18.6L18.63 12.1C19.7174 11.1459 20.1707 9.65831 19.8 8.25999C19.3752 6.75631 18.2024 5.57965 16.7 5.14999C15.2227 4.76058 13.6513 5.22277 12.62 6.34999C12.2312 6.73114 11.6089 6.73114 11.22 6.34999C10.4385 5.52013 9.35945 5.03455 8.22004 4.99999C7.88152 5.00534 7.54523 5.05578 7.22004 5.14999C5.71773 5.57965 4.54485 6.75631 4.12004 8.25999C3.7683 9.67371 4.2535 11.1642 5.37004 12.1L12 18.6Z" fill="#231F20"/>
</svg>
