<svg width="24" height="24" viewBox="0 0 24 24" fill="none" xmlns="http://www.w3.org/2000/svg">
<path d="M20 16C19.2324 16.003 18.4952 16.3 17.94 16.83L9.09 12L17.94 7.17001C18.9754 8.14796 20.5556 8.26316 21.7219 7.4457C22.8881 6.62825 23.3189 5.10347 22.7528 3.79661C22.1867 2.48974 20.7798 1.76102 19.3857 2.05263C17.9917 2.34424 16.9948 3.5758 17 5.00001C16.9902 5.12982 16.9902 5.26019 17 5.39001L7.6 10.53C7.07144 9.58965 6.07871 9.00547 5 9.00001C3.34315 9.00001 2 10.3432 2 12C2 13.6569 3.34315 15 5 15C6.07871 14.9945 7.07144 14.4104 7.6 13.47L17 18.61C16.9902 18.7398 16.9902 18.8702 17 19C17 20.6569 18.3431 22 20 22C21.6569 22 23 20.6569 23 19C23 17.3432 21.6569 16 20 16Z" fill="black"/>
</svg>
