<svg width="24" height="24" viewBox="0 0 24 24" fill="none" xmlns="http://www.w3.org/2000/svg">
<path fill-rule="evenodd" clip-rule="evenodd" d="M22 12.1398C22.0046 13.7109 20.7964 15.0194 19.23 15.1398L8 15.9998C8.15 16.9998 8.47 16.9998 9 16.9998H19.5C19.9443 17.0076 20.3787 17.1317 20.76 17.3598H20.82C21.864 17.9756 22.3159 19.2514 21.8923 20.387C21.4687 21.5225 20.2916 22.1907 19.0995 21.9723C17.9073 21.7539 17.0435 20.7118 17.05 19.4998C17.0513 19.332 17.068 19.1646 17.1 18.9998H13C13.0153 19.1662 13.0153 19.3335 13 19.4998C13 20.8806 11.8807 21.9998 10.5 21.9998C9.11929 21.9998 8 20.8806 8 19.4998C8.00069 19.2972 8.02758 19.0956 8.08 18.8998C6 18.4098 6 16.2498 6 15.0798L4.15 3.99984H3C2.44772 3.99984 2 3.55212 2 2.99984C2 2.44756 2.44772 1.99984 3 1.99984H5C5.49539 1.99346 5.92077 2.35078 6 2.83984L6.18 3.99984L21.07 4.99984C21.5948 5.03666 22.0013 5.47378 22 5.99984V12.1398ZM11.89 9.57984C11.6404 9.08953 11.0417 8.89292 10.55 9.13984V9.10984C10.2913 9.22149 10.0917 9.43711 10.0003 9.70366C9.90892 9.9702 9.93422 10.2629 10.07 10.5098L11.07 12.5098C11.203 12.7717 11.4443 12.9618 11.73 13.0298C11.8064 13.0396 11.8836 13.0396 11.96 13.0298C12.1764 13.0298 12.3869 12.9597 12.56 12.8298L16.56 9.82984C17.0018 9.49847 17.0914 8.87167 16.76 8.42984C16.4286 7.98801 15.8018 7.89847 15.36 8.22984L12.36 10.5098L11.89 9.57984ZM19.55 19.0298C19.8261 19.0298 20.05 19.2537 20.05 19.5298C20.05 19.806 19.8261 20.0298 19.55 20.0298C19.2739 20.0298 19.05 19.806 19.05 19.5298C19.0325 19.2607 19.2316 19.0262 19.5 18.9998L19.55 19.0298ZM11.05 19.5298C11.05 19.2537 10.8261 19.0298 10.55 19.0298L10.5 18.9998C10.2316 19.0262 10.0325 19.2607 10.05 19.5298C10.05 19.806 10.2739 20.0298 10.55 20.0298C10.8261 20.0298 11.05 19.806 11.05 19.5298Z" fill="black"/>
</svg>
