<svg width="24" height="24" viewBox="0 0 24 24" fill="none" xmlns="http://www.w3.org/2000/svg">
<path fill-rule="evenodd" clip-rule="evenodd" d="M3.15002 11.57C3.15002 12.1223 3.59774 12.57 4.15002 12.57C4.6867 12.5539 5.1149 12.1169 5.12002 11.58C5.16092 9.26201 6.53361 7.17497 8.64586 6.21933C10.7581 5.26368 13.2319 5.61045 15 7.11003H14.68C14.1277 7.11003 13.68 7.55774 13.68 8.11003C13.68 8.66231 14.1277 9.11003 14.68 9.11003H17.51C18.0623 9.11003 18.51 8.66231 18.51 8.11003V5.28003C18.51 4.72774 18.0623 4.28003 17.51 4.28003C16.9577 4.28003 16.51 4.72774 16.51 5.28003V5.72003C14.1752 3.61242 10.822 3.06859 7.94068 4.33023C5.0594 5.59187 3.1848 8.42482 3.15002 11.57ZM17.84 12.28C17.84 11.7277 18.2877 11.28 18.84 11.28C19.3845 11.2854 19.8246 11.7255 19.83 12.27C19.8634 14.422 19.0185 16.4947 17.49 18.01C14.4772 21.0077 9.6463 21.1262 6.49002 18.28V18.72C6.49002 19.2723 6.04231 19.72 5.49002 19.72C4.93774 19.72 4.49002 19.2723 4.49002 18.72V15.89C4.49002 15.3377 4.93774 14.89 5.49002 14.89H8.35002C8.90231 14.89 9.35002 15.3377 9.35002 15.89C9.35002 16.4423 8.90231 16.89 8.35002 16.89H8.00002C9.78865 18.3798 12.2776 18.7006 14.3855 17.7131C16.4934 16.7255 17.8399 14.6078 17.84 12.28Z" fill="#231F20"/>
</svg>
