<svg width="24" height="24" viewBox="0 0 24 24" fill="none" xmlns="http://www.w3.org/2000/svg">
<path d="M19.6499 15.76L12.6499 21.76C12.5988 21.7938 12.5453 21.8238 12.4899 21.85L12.3699 21.93C12.1324 22.0246 11.8675 22.0246 11.6299 21.93L11.5099 21.85C11.4545 21.8238 11.4011 21.7938 11.3499 21.76L4.34995 15.76C3.93021 15.401 3.88096 14.7697 4.23995 14.35C4.59893 13.9303 5.23021 13.881 5.64995 14.24L10.9999 18.83V3C10.9999 2.44772 11.4477 2 11.9999 2C12.5522 2 12.9999 2.44772 12.9999 3V18.83L18.3499 14.24C18.7697 13.881 19.401 13.9303 19.7599 14.35C20.1189 14.7697 20.0697 15.401 19.6499 15.76Z" fill="#231F20"/>
</svg>
