<svg width="24" height="24" viewBox="0 0 24 24" fill="none" xmlns="http://www.w3.org/2000/svg">
<path d="M17 14H12C10.8954 14 10 13.1046 10 12C10 10.8954 10.8954 10 12 10H17C17.0022 9.47042 17.2144 8.96335 17.59 8.59C17.7102 8.46648 17.8484 8.36196 18 8.28V5C18 3.34315 16.6569 2 15 2H5C3.34315 2 2 3.34315 2 5V19C2 20.6569 3.34315 22 5 22H15C16.6569 22 18 20.6569 18 19V15.72C17.849 15.6372 17.7109 15.5327 17.59 15.41C17.2144 15.0366 17.0022 14.5296 17 14Z" fill="black"/>
<path d="M21.71 11.2899L19.71 9.28994C19.3179 8.89782 18.6821 8.89782 18.29 9.28994C17.8979 9.68206 17.8979 10.3178 18.29 10.7099L18.59 10.9999H12C11.4477 10.9999 11 11.4477 11 11.9999C11 12.5522 11.4477 12.9999 12 12.9999H18.59L18.29 13.2899C18.1007 13.4777 17.9942 13.7333 17.9942 13.9999C17.9942 14.2666 18.1007 14.5222 18.29 14.7099C18.4778 14.8993 18.7334 15.0057 19 15.0057C19.2666 15.0057 19.5222 14.8993 19.71 14.7099L21.71 12.7099C21.8993 12.5222 22.0058 12.2666 22.0058 11.9999C22.0058 11.7333 21.8993 11.4777 21.71 11.2899Z" fill="black"/>
</svg>
