<svg width="24" height="24" viewBox="0 0 24 24" fill="none" xmlns="http://www.w3.org/2000/svg">
<path fill-rule="evenodd" clip-rule="evenodd" d="M12.83 2H19C20.6569 2 22 3.34315 22 5V11.17C21.9993 11.9654 21.6828 12.7279 21.12 13.29L14.12 20.29C12.9487 21.4598 11.0513 21.4598 9.88 20.29L3.71 14.12C2.54019 12.9487 2.54019 11.0513 3.71 9.88L10.71 2.88C11.2721 2.31723 12.0346 2.0007 12.83 2ZM19.71 11.88C19.8972 11.6913 20.0015 11.4358 20 11.17V5C20 4.44772 19.5523 4 19 4H12.83C12.5652 4.00368 12.3116 4.10727 12.12 4.29L5.12 11.29C4.93069 11.4778 4.8242 11.7334 4.8242 12C4.8242 12.2666 4.93069 12.5222 5.12 12.71L11.29 18.88C11.4778 19.0693 11.7334 19.1758 12 19.1758C12.2666 19.1758 12.5222 19.0693 12.71 18.88L19.71 11.88ZM16 5C14.3431 5 13 6.34315 13 8C13 9.65685 14.3431 11 16 11C17.6569 11 19 9.65685 19 8C19 6.34315 17.6569 5 16 5ZM15 8C15 8.55228 15.4477 9 16 9C16.5523 9 17 8.55228 17 8C17 7.44772 16.5523 7 16 7C15.4477 7 15 7.44772 15 8Z" fill="#231F20"/>
</svg>
