<svg width="24" height="24" viewBox="0 0 24 24" fill="none" xmlns="http://www.w3.org/2000/svg">
<path fill-rule="evenodd" clip-rule="evenodd" d="M18.5 2.06999C19.3536 1.92273 20.2286 2.1607 20.89 2.71999C21.5961 3.32549 22.0018 4.2098 22 5.13999V12.83C21.9941 13.7471 21.5888 14.6161 20.89 15.21C20.3582 15.6507 19.6907 15.8944 19 15.9C18.8337 15.9148 18.6664 15.9148 18.5 15.9L8.00002 14.05V19.5C8.00002 20.8807 6.88073 22 5.50002 22C4.1193 22 3.00002 20.8807 3.00002 19.5V13C2.98964 12.9136 2.98964 12.8263 3.00002 12.74C2.34568 12.1275 1.98218 11.2661 2.00002 10.37V7.60999C1.97405 6.11422 3.03 4.81752 4.50002 4.53999L18.5 2.06999ZM4.84002 6.50999C4.33099 6.62549 3.97741 7.08851 4.00002 7.60999V10.37C3.98536 10.8889 4.33552 11.3475 4.84002 11.47L7.00002 11.84V6.12999L4.84002 6.50999ZM6.00002 19.5C6.00002 19.7761 5.77616 20 5.50002 20C5.22387 20 5.00002 19.7761 5.00002 19.5V13.5L6.00002 13.68V19.5ZM19.6 13.72C19.8566 13.4957 20.0027 13.1708 20 12.83V5.10999C20.0013 4.76951 19.8555 4.44505 19.6 4.21999C19.4323 4.07809 19.2197 4.00015 19 3.99999H18.84L9.00002 5.77999V12.2L18.84 13.93C19.1119 13.9748 19.3897 13.898 19.6 13.72Z" fill="#231F20"/>
</svg>
