<svg width="24" height="24" viewBox="0 0 24 24" fill="none" xmlns="http://www.w3.org/2000/svg">
<path d="M19 11.0001H7V9.00006C7.00391 6.56868 8.7563 4.49257 11.1525 4.08046C13.5487 3.66834 15.894 5.0397 16.71 7.33006C16.7981 7.58353 16.9844 7.79094 17.227 7.90566C17.4696 8.02037 17.7482 8.03277 18 7.94006C18.5177 7.75615 18.79 7.18909 18.61 6.67006C17.4844 3.44045 14.1898 1.49706 10.8188 2.07419C7.44766 2.65131 4.98717 5.57995 5 9.00006V11.0001C3.34315 11.0001 2 12.3432 2 14.0001V19.0001C2 20.6569 3.34315 22.0001 5 22.0001H19C20.6569 22.0001 22 20.6569 22 19.0001V14.0001C22 12.3432 20.6569 11.0001 19 11.0001Z" fill="black"/>
</svg>
