<svg width="24" height="24" viewBox="0 0 24 24" fill="none" xmlns="http://www.w3.org/2000/svg">
<path fill-rule="evenodd" clip-rule="evenodd" d="M20 8.67999L21.31 9.10999C21.7173 9.24757 21.9911 9.63008 21.99 10.06V13.89C22.0121 14.3409 21.7293 14.7506 21.3 14.89L20 15.32L20.73 16.53C20.9271 16.9149 20.8545 17.3829 20.55 17.69L17.8 20.44C17.4929 20.7445 17.0249 20.8171 16.64 20.62L15.42 20L14.99 21.3C14.8506 21.7293 14.4409 22.0121 13.99 21.99H10.11C9.65913 22.0121 9.24939 21.7293 9.10999 21.3L8.67999 20L7.45999 20.63C7.07508 20.8271 6.60706 20.7545 6.29999 20.45L3.55999 17.8C3.25548 17.4929 3.18286 17.0249 3.37999 16.64L3.99999 15.42L2.69999 14.99C2.27066 14.8506 1.98793 14.4409 2.00999 13.99V10.11C1.98793 9.65913 2.27066 9.24939 2.69999 9.10999L3.99999 8.67999L3.36999 7.45999C3.17286 7.07508 3.24548 6.60706 3.54999 6.29999L6.29999 3.54999C6.60706 3.24548 7.07508 3.17286 7.45999 3.36999L8.67999 3.99999L9.05999 2.69999C9.19939 2.27066 9.60913 1.98793 10.06 2.00999H13.89C14.3409 1.98793 14.7506 2.27066 14.89 2.69999L15.32 3.99999L16.54 3.36999C16.9249 3.17286 17.3929 3.24548 17.7 3.54999L20.44 6.29999C20.7445 6.60706 20.8171 7.07508 20.62 7.45999L20 8.67999ZM6.99999 12C6.99999 14.7614 9.23857 17 12 17C14.7614 17 17 14.7614 17 12C17 9.23857 14.7614 6.99999 12 6.99999C9.23857 6.99999 6.99999 9.23857 6.99999 12Z" fill="black"/>
<circle cx="12" cy="12" r="3" fill="black"/>
</svg>
