<svg width="24" height="24" viewBox="0 0 24 24" fill="none" xmlns="http://www.w3.org/2000/svg">
<path fill-rule="evenodd" clip-rule="evenodd" d="M12 2C6.47715 2 2 6.47715 2 12C2 17.5228 6.47715 22 12 22C17.5228 22 22 17.5228 22 12C22 9.34784 20.9464 6.8043 19.0711 4.92893C17.1957 3.05357 14.6522 2 12 2ZM12.71 17.71C12.6128 17.7983 12.5012 17.8694 12.38 17.92C12.138 18.027 11.862 18.027 11.62 17.92C11.4988 17.8694 11.3872 17.7983 11.29 17.71C11.1028 17.5213 10.9985 17.2658 11 17C10.9985 16.7342 11.1028 16.4787 11.29 16.29C11.5264 16.0559 11.8638 15.9547 12.19 16.02C12.2562 16.0293 12.3205 16.0496 12.38 16.08C12.4437 16.1019 12.5043 16.1322 12.56 16.17C12.6124 16.2069 12.6625 16.247 12.71 16.29C12.8927 16.4816 12.9963 16.7352 13 17C13.0015 17.2658 12.8972 17.5213 12.71 17.71ZM12 14C12.5523 14 13 13.5523 13 13V7C13 6.44772 12.5523 6 12 6C11.4477 6 11 6.44772 11 7V13C11 13.5523 11.4477 14 12 14Z" fill="black"/>
</svg>
