<svg width="24" height="24" viewBox="0 0 24 24" fill="none" xmlns="http://www.w3.org/2000/svg">
<path d="M15.62 9.99993L5.42002 4.37993C4.71167 3.93276 3.81726 3.90218 3.08002 4.29993C2.36893 4.75036 1.95607 5.54932 2.00002 6.38993V17.6199C1.95651 18.4583 2.35971 19.2571 3.06002 19.7199C3.36289 19.8997 3.70785 19.9963 4.06002 19.9999C4.52401 19.9887 4.97781 19.8615 5.38002 19.6299L15.62 13.9999C16.4157 13.6413 16.9471 12.8711 17 11.9999C16.9471 11.1287 16.4157 10.3586 15.62 9.99993Z" fill="black"/>
<path d="M19.5 4C18.1193 4 17 5.11929 17 6.5V17.5C17 18.8807 18.1193 20 19.5 20C20.8807 20 22 18.8807 22 17.5V6.5C22 5.11929 20.8807 4 19.5 4Z" fill="black"/>
</svg>
