<svg width="24" height="24" viewBox="0 0 24 24" fill="none" xmlns="http://www.w3.org/2000/svg">
<path fill-rule="evenodd" clip-rule="evenodd" d="M22 9C22 9.55228 21.5523 10 21 10C19.8954 10 19 10.8954 19 12C19 13.1046 19.8954 14 21 14C21.5523 14 22 14.4477 22 15V17C22 18.6569 20.6569 20 19 20H15V17C15 16.4477 14.5523 16 14 16C13.4477 16 13 16.4477 13 17V20H5C3.34315 20 2 18.6569 2 17V15C2 14.4477 2.44772 14 3 14C4.10457 14 5 13.1046 5 12C5 10.8954 4.10457 10 3 10C2.44772 10 2 9.55228 2 9V7C2 5.34315 3.34315 4 5 4H13V7C13 7.55228 13.4477 8 14 8C14.5523 8 15 7.55228 15 7V4H19C20.6569 4 22 5.34315 22 7V9ZM14 14C14.5523 14 15 13.5523 15 13V11C15 10.4477 14.5523 10 14 10C13.4477 10 13 10.4477 13 11V13C13 13.5523 13.4477 14 14 14Z" fill="black"/>
</svg>
