<svg width="24" height="24" viewBox="0 0 24 24" fill="none" xmlns="http://www.w3.org/2000/svg">
<path fill-rule="evenodd" clip-rule="evenodd" d="M19 2H5C3.34315 2 2 3.34315 2 5V19C2 20.6569 3.34315 22 5 22H19C20.6569 22 22 20.6569 22 19V5C22 3.34315 20.6569 2 19 2ZM20 19C20 19.5523 19.5523 20 19 20H5C4.44772 20 4 19.5523 4 19V5C4 4.44772 4.44772 4 5 4H19C19.5523 4 20 4.44772 20 5V19ZM17 13C17.5523 13 18 12.5523 18 12C18 11.4477 17.5523 11 17 11H7C6.44772 11 6 11.4477 6 12C6 12.5523 6.44772 13 7 13H17Z" fill="#231F20"/>
</svg>
