<svg width="24" height="24" viewBox="0 0 24 24" fill="none" xmlns="http://www.w3.org/2000/svg">
<path fill-rule="evenodd" clip-rule="evenodd" d="M19.37 2.49C19.9786 2.28595 20.6481 2.38638 21.17 2.76C21.6935 3.13758 22.0026 3.74457 22 4.39V18.28C22.02 19.1662 21.4543 19.9599 20.61 20.23L15.3 22C15.0986 22.0657 14.8815 22.0657 14.68 22L9.00002 20.05L4.63002 21.51C4.42702 21.578 4.21411 21.6118 4.00002 21.61C3.58168 21.6071 3.17393 21.4782 2.83002 21.24C2.30654 20.8624 1.99746 20.2554 2.00002 19.61V5.72C1.99923 4.85752 2.55144 4.09168 3.37002 3.82L8.68002 2H8.77002H9.00002L9.23002 2.05H9.32002L15 4L19.37 2.49ZM4.00002 19.61L8.00002 18.28V4.39L4.00002 5.72V19.61ZM14 19.61L10 18.28V4.39L14 5.72V19.61ZM16 19.61L20 18.28V4.39L16 5.72V19.61Z" fill="#231F20"/>
</svg>
