<svg width="24" height="24" viewBox="0 0 24 24" fill="none" xmlns="http://www.w3.org/2000/svg">
<path d="M21 12C21.0064 16.1476 18.1775 19.7626 14.15 20.7534C10.1225 21.7442 5.93933 19.8542 4.02078 16.177C2.10223 12.4998 2.94513 7.98761 6.06181 5.25099C9.17849 2.51437 13.7618 2.26205 17.16 4.64002L17.05 4.32002C16.8733 3.78154 17.1666 3.20175 17.705 3.02502C18.2435 2.84829 18.8233 3.14154 19 3.68002L20 6.68002C20.1006 6.98509 20.0485 7.31992 19.86 7.58002C19.6633 7.85702 19.3394 8.0152 19 8.00002H16C15.4478 8.00002 15 7.5523 15 7.00002C15.0075 6.56575 15.2943 6.18591 15.71 6.06002C13.0044 4.36897 9.49753 4.72154 7.18265 6.91735C4.86776 9.11315 4.33064 12.5965 5.87656 15.3876C7.42249 18.1787 10.6602 19.5713 13.7496 18.7738C16.839 17.9764 18.9982 15.1907 19 12C19 11.4477 19.4478 11 20 11C20.5523 11 21 11.4477 21 12Z" fill="#231F20"/>
</svg>
