<svg width="24" height="24" viewBox="0 0 24 24" fill="none" xmlns="http://www.w3.org/2000/svg">
<path fill-rule="evenodd" clip-rule="evenodd" d="M2 12C2 6.47715 6.47715 2 12 2C14.6522 2 17.1957 3.05357 19.0711 4.92893C20.9464 6.8043 22 9.34784 22 12C22 17.5228 17.5228 22 12 22C6.47715 22 2 17.5228 2 12ZM14.9858 16C14.9858 15.7334 14.8793 15.4778 14.69 15.29L11.42 12L14.71 8.71C14.9637 8.45634 15.0627 8.08663 14.9699 7.74012C14.877 7.39362 14.6064 7.12297 14.2599 7.03012C13.9134 6.93728 13.5437 7.03634 13.29 7.29L9.29 11.29C9.10069 11.4778 8.9942 11.7334 8.9942 12C8.9942 12.2666 9.10069 12.5222 9.29 12.71L13.29 16.71C13.4787 16.8972 13.7342 17.0015 14 17C14.2589 16.9963 14.5062 16.8923 14.69 16.71C14.8793 16.5222 14.9858 16.2666 14.9858 16Z" fill="black"/>
</svg>
