<svg width="24" height="24" viewBox="0 0 24 24" fill="none" xmlns="http://www.w3.org/2000/svg">
<path fill-rule="evenodd" clip-rule="evenodd" d="M22 19V5C22 3.34315 20.6569 2 19 2H5C3.34315 2 2 3.34315 2 5V19C2 20.6569 3.34315 22 5 22H19C20.6569 22 22 20.6569 22 19ZM10.9942 7C10.9942 7.26664 11.1007 7.52223 11.29 7.71C11.5761 7.99846 12.0083 8.08516 12.3835 7.92937C12.7587 7.77358 13.0024 7.40627 13 7C13.0024 6.59373 12.7587 6.22642 12.3835 6.07063C12.0083 5.91484 11.5761 6.00154 11.29 6.29C11.1007 6.47777 10.9942 6.73336 10.9942 7ZM20 5C20 4.44772 19.5523 4 19 4H5C4.44772 4 4 4.44772 4 5V19C4 19.5523 4.44772 20 5 20H19C19.5523 20 20 19.5523 20 19V5ZM13 16H13.14C13.6923 16 14.14 16.4477 14.14 17C14.14 17.5523 13.6923 18 13.14 18H10.86C10.3077 18 9.86 17.5523 9.86 17C9.86 16.4477 10.3077 16 10.86 16H11V11C10.4477 11 10 10.5523 10 10C10 9.44772 10.4477 9 11 9H12C12.5523 9 13 9.44772 13 10V16Z" fill="#231F20"/>
</svg>
