<svg width="24" height="24" viewBox="0 0 24 24" fill="none" xmlns="http://www.w3.org/2000/svg">
<path fill-rule="evenodd" clip-rule="evenodd" d="M21 15V7C21 5.34315 19.6569 4 18 4H6C4.34315 4 3 5.34315 3 7V15C2.44772 15 2 15.4477 2 16V17.27C2.00548 18.7755 3.22454 19.9945 4.73 20H19.27C20.7755 19.9945 21.9945 18.7755 22 17.27V16C22 15.4477 21.5523 15 21 15ZM5 7C5 6.44772 5.44772 6 6 6H18C18.5523 6 19 6.44772 19 7V15H5V7ZM19.27 18C19.6732 18 20 17.6732 20 17.27V17H4V17.27C4 17.6732 4.32683 18 4.73 18H19.27Z" fill="#231F20"/>
</svg>
