<svg width="24" height="24" viewBox="0 0 24 24" fill="none" xmlns="http://www.w3.org/2000/svg">
<path d="M21.66 9.24996L20 7.73995L19.14 6.99996L12.66 1.24996C12.2825 0.918309 11.7175 0.918309 11.34 1.24996L4.86 6.99996L4 7.73995L2.34 9.24996C1.95391 9.62079 1.92835 10.2299 2.28201 10.6318C2.63566 11.0337 3.24308 11.0858 3.66 10.75L4 10.45V19C4 20.6568 5.34314 22 7 22H9V16C9 14.3431 10.3431 13 12 13C13.6569 13 15 14.3431 15 16V22H17C18.6569 22 20 20.6568 20 19V10.45L20.34 10.75C20.7544 11.1139 21.3852 11.0737 21.75 10.66C22.114 10.2456 22.0737 9.61471 21.66 9.24996Z" fill="black"/>
</svg>
