<svg width="24" height="24" viewBox="0 0 24 24" fill="none" xmlns="http://www.w3.org/2000/svg">
<path d="M15 4H3C2.44772 4 2 3.55228 2 3C2 2.44772 2.44772 2 3 2H15C15.5523 2 16 2.44772 16 3C16 3.55228 15.5523 4 15 4Z" fill="black"/>
<path d="M13 10H3C2.44772 10 2 9.55228 2 9C2 8.44772 2.44772 8 3 8H13C13.5523 8 14 8.44772 14 9C14 9.55228 13.5523 10 13 10Z" fill="black"/>
<path d="M11 16H3C2.44772 16 2 15.5523 2 15C2 14.4477 2.44772 14 3 14H11C11.5523 14 12 14.4477 12 15C12 15.5523 11.5523 16 11 16Z" fill="black"/>
<path d="M9 22H3C2.44772 22 2 21.5523 2 21C2 20.4477 2.44772 20 3 20H9C9.55228 20 10 20.4477 10 21C10 21.5523 9.55228 22 9 22Z" fill="black"/>
<path d="M18 20C17.4477 20 17 19.5523 17 19V3C17 2.44772 17.4477 2 18 2C18.5523 2 19 2.44772 19 3V19C19 19.5523 18.5523 20 18 20Z" fill="black"/>
<path d="M17.9999 21.9999C17.7341 22.0015 17.4787 21.8971 17.2899 21.7099L14.2899 18.7099C13.8978 18.3178 13.8978 17.6821 14.2899 17.2899C14.6821 16.8978 15.3178 16.8978 15.7099 17.2899L17.9999 19.5899L20.2899 17.2899C20.6821 16.8978 21.3178 16.8978 21.7099 17.2899C22.1021 17.6821 22.1021 18.3178 21.7099 18.7099L18.7099 21.7099C18.5212 21.8971 18.2657 22.0015 17.9999 21.9999Z" fill="black"/>
</svg>
