<svg width="24" height="24" viewBox="0 0 24 24" fill="none" xmlns="http://www.w3.org/2000/svg">
<path fill-rule="evenodd" clip-rule="evenodd" d="M2 12C2 6.47715 6.47715 2 12 2C14.6522 2 17.1957 3.05357 19.0711 4.92893C20.9464 6.8043 22 9.34784 22 12C22 17.5228 17.5228 22 12 22C6.47715 22 2 17.5228 2 12ZM15 14C15.4482 14.0234 15.857 13.7454 16 13.32C16.0836 13.0614 16.0583 12.78 15.9301 12.5404C15.8018 12.3008 15.5815 12.1238 15.32 12.05L13 11.28V7C13 6.44772 12.5523 6 12 6C11.4477 6 11 6.44772 11 7V12C10.9989 12.4299 11.2727 12.8124 11.68 12.95L14.68 13.95C14.784 13.9805 14.8916 13.9973 15 14Z" fill="black"/>
</svg>
