<svg width="24" height="24" viewBox="0 0 24 24" fill="none" xmlns="http://www.w3.org/2000/svg">
<path fill-rule="evenodd" clip-rule="evenodd" d="M11.9999 4.25C15.7699 4.25 19.2799 6.83 21.8799 11.51C22.0586 11.8194 22.0586 12.2006 21.8799 12.51C19.2799 17.19 15.7699 19.77 11.9999 19.77C8.22995 19.77 4.72995 17.19 2.12995 12.51C1.95131 12.2006 1.95131 11.8194 2.12995 11.51C4.72995 6.83 8.22995 4.25 11.9999 4.25ZM4.17995 11.97C4.48676 12.5001 4.82053 13.0141 5.17995 13.51C4.94003 12.4973 4.94003 11.4426 5.17995 10.43C4.82053 10.9259 4.48676 11.4399 4.17995 11.97ZM11.9999 17C9.23852 17 6.99995 14.7614 6.99995 12C6.99995 9.23858 9.23852 7 11.9999 7C14.7614 7 16.9999 9.23858 16.9999 12C16.9999 14.7614 14.7614 17 11.9999 17ZM19.8199 12C19.5154 11.4653 19.1815 10.9479 18.8199 10.45C19.0601 11.4694 19.0601 12.5306 18.8199 13.55C19.1815 13.0521 19.5154 12.5347 19.8199 12Z" fill="#231F20"/>
</svg>
