<svg width="24" height="24" viewBox="0 0 24 24" fill="none" xmlns="http://www.w3.org/2000/svg">
<path fill-rule="evenodd" clip-rule="evenodd" d="M2 12C2 6.47715 6.47715 2 12 2C14.6522 2 17.1957 3.05357 19.0711 4.92893C20.9464 6.8043 22 9.34784 22 12C22 17.5228 17.5228 22 12 22C6.47715 22 2 17.5228 2 12ZM10.7 16.71L14.7 12.71C14.8933 12.5263 15.0053 12.2729 15.0109 12.0063C15.0165 11.7396 14.9154 11.4817 14.73 11.29L10.73 7.29C10.4763 7.03634 10.1066 6.93728 9.76012 7.03012C9.41362 7.12297 9.14297 7.39362 9.05012 7.74012C8.95728 8.08663 9.05634 8.45634 9.31 8.71L12.58 12L9.29 15.29C9.10069 15.4778 8.9942 15.7334 8.9942 16C8.9942 16.2666 9.10069 16.5222 9.29 16.71C9.47872 16.8972 9.7342 17.0015 10 17C10.2623 16.9989 10.5137 16.8947 10.7 16.71Z" fill="black"/>
</svg>
