<svg width="24" height="24" viewBox="0 0 24 24" fill="none" xmlns="http://www.w3.org/2000/svg">
<path fill-rule="evenodd" clip-rule="evenodd" d="M17 11C17 13.7614 14.7614 16 12 16C9.23858 16 7 13.7614 7 11V7C7 4.23858 9.23858 2 12 2C14.7614 2 17 4.23858 17 7V11ZM12 4C10.3431 4 9 5.34315 9 7V11C9 12.6569 10.3431 14 12 14C13.6569 14 15 12.6569 15 11V7C15 5.34315 13.6569 4 12 4ZM16 21C16 21.5523 15.5523 22 15 22H9C8.44772 22 8 21.5523 8 21C8 20.4477 8.44772 20 9 20H15C15.5523 20 16 20.4477 16 21ZM12 19C16.4183 19 20 15.4183 20 11C20 10.4477 19.5523 10 19 10C18.4477 10 18 10.4477 18 11C18 14.3137 15.3137 17 12 17C8.68629 17 6 14.3137 6 11C6 10.4477 5.55228 10 5 10C4.44772 10 4 10.4477 4 11C4 15.4183 7.58172 19 12 19Z" fill="#231F20"/>
</svg>
