<svg width="24" height="24" viewBox="0 0 24 24" fill="none" xmlns="http://www.w3.org/2000/svg">
<path fill-rule="evenodd" clip-rule="evenodd" d="M2 12C2 6.47715 6.47715 2 12 2C14.6522 2 17.1957 3.05357 19.0711 4.92893C20.9464 6.8043 22 9.34784 22 12C22 17.5228 17.5228 22 12 22C6.47715 22 2 17.5228 2 12ZM16 15C16.2687 14.9963 16.5246 14.8845 16.71 14.69C16.8993 14.5022 17.0058 14.2466 17.0058 13.98C17.0058 13.7134 16.8993 13.4578 16.71 13.27L12.71 9.27C12.5222 9.08069 12.2666 8.9742 12 8.9742C11.7334 8.9742 11.4778 9.08069 11.29 9.27L7.29 13.27C7.03634 13.5237 6.93728 13.8934 7.03012 14.2399C7.12297 14.5864 7.39362 14.857 7.74012 14.9499C8.08663 15.0427 8.45634 14.9437 8.71 14.69L12 11.42L15.29 14.71C15.4787 14.8972 15.7342 15.0015 16 15Z" fill="black"/>
</svg>
