<svg width="24" height="24" viewBox="0 0 24 24" fill="none" xmlns="http://www.w3.org/2000/svg">
<path fill-rule="evenodd" clip-rule="evenodd" d="M12 22C6.47715 22 2 17.5228 2 12C2 6.47715 6.47715 2 12 2C14.6522 2 17.1957 3.05357 19.0711 4.92893C20.9464 6.8043 22 9.34784 22 12C22 17.5228 17.5228 22 12 22ZM14.7 11.29C14.8893 11.4778 14.9958 11.7334 14.9958 12C14.9958 12.2666 14.8893 12.5222 14.7 12.71L10.7 16.71C10.5137 16.8947 10.2623 16.9989 10 17C9.7342 17.0015 9.47872 16.8972 9.29 16.71C9.10069 16.5222 8.9942 16.2666 8.9942 16C8.9942 15.7334 9.10069 15.4778 9.29 15.29L12.58 12L9.31 8.71C9.05634 8.45634 8.95728 8.08663 9.05012 7.74012C9.14297 7.39362 9.41362 7.12297 9.76012 7.03012C10.1066 6.93728 10.4763 7.03634 10.73 7.29L14.7 11.29ZM12 4C16.4183 4 20 7.58172 20 12C20 14.1217 19.1571 16.1566 17.6569 17.6569C16.1566 19.1571 14.1217 20 12 20C7.58172 20 4 16.4183 4 12C4 7.58172 7.58172 4 12 4Z" fill="#231F20"/>
</svg>
