<svg width="24" height="24" viewBox="0 0 24 24" fill="none" xmlns="http://www.w3.org/2000/svg">
<path fill-rule="evenodd" clip-rule="evenodd" d="M22 5V19C22 20.6569 20.6569 22 19 22H5C3.34315 22 2 20.6569 2 19V5C2 3.34315 3.34315 2 5 2H19C20.6569 2 22 3.34315 22 5ZM9.75 6.79C10.588 6.1053 11.6925 5.84021 12.75 6.07L12.76 6.04C14.3063 6.37147 15.44 7.69608 15.5288 9.27504C15.6175 10.854 14.6394 12.2973 13.14 12.8C12.7623 12.9939 12.5179 13.3758 12.5 13.8V14C12.5 14.5523 12.0523 15 11.5 15C10.9477 15 10.5 14.5523 10.5 14V13.77C10.5281 12.4979 11.3163 11.3668 12.5 10.9C13.1515 10.6926 13.5803 10.0708 13.5427 9.38806C13.505 8.70534 13.0104 8.1345 12.34 8C11.8648 7.89843 11.3693 8.02413 11 8.34C10.6547 8.62576 10.4564 9.05179 10.46 9.5C10.46 10.0523 10.0123 10.5 9.46 10.5C8.90772 10.5 8.46 10.0523 8.46 9.5C8.45689 8.44781 8.93137 7.45103 9.75 6.79ZM12.54 17.08C12.5375 16.9462 12.5104 16.814 12.46 16.69C12.4144 16.5609 12.3391 16.4445 12.24 16.35C11.85 15.9623 11.22 15.9623 10.83 16.35C10.7365 16.4413 10.6617 16.55 10.61 16.67C10.5626 16.7945 10.5388 16.9268 10.54 17.06C10.5437 17.3248 10.6473 17.5784 10.83 17.77C11.0187 17.9572 11.2742 18.0615 11.54 18.06H11.73L11.92 18C11.9797 17.9761 12.0367 17.9459 12.09 17.91L12.24 17.79C12.4309 17.6029 12.5389 17.3472 12.54 17.08ZM19 4C19.5523 4 20 4.44772 20 5V19C20 19.5523 19.5523 20 19 20H5C4.44772 20 4 19.5523 4 19V5C4 4.44772 4.44772 4 5 4H19Z" fill="#231F20"/>
</svg>
