<svg width="24" height="24" viewBox="0 0 24 24" fill="none" xmlns="http://www.w3.org/2000/svg">
<path fill-rule="evenodd" clip-rule="evenodd" d="M22 19C22 20.6569 20.6569 22 19 22H5C3.34315 22 2 20.6569 2 19V5C2 3.34315 3.34315 2 5 2H19C20.6569 2 22 3.34315 22 5V19ZM14.7 8.71L11.42 12L14.7 15.3C14.9801 15.5857 15.063 16.0109 14.9106 16.3808C14.7583 16.7508 14.4001 16.9944 14 17C13.7328 16.9989 13.4771 16.8909 13.29 16.7L9.29 12.7C8.90228 12.31 8.90228 11.68 9.29 11.29L13.29 7.29C13.6821 6.90064 14.3156 6.90288 14.705 7.295C15.0944 7.68712 15.0921 8.32064 14.7 8.71ZM19 4C19.5523 4 20 4.44772 20 5V19C20 19.5523 19.5523 20 19 20H5C4.44772 20 4 19.5523 4 19V5C4 4.44772 4.44772 4 5 4H19Z" fill="#231F20"/>
</svg>
