<svg width="24" height="24" viewBox="0 0 24 24" fill="none" xmlns="http://www.w3.org/2000/svg">
<path fill-rule="evenodd" clip-rule="evenodd" d="M7 2H8C9.65685 2 11 3.34315 11 5V19C11 20.6569 9.65685 22 8 22H7C5.34315 22 4 20.6569 4 19V5C4 3.34315 5.34315 2 7 2ZM8 20C8.55228 20 9 19.5523 9 19V5C9 4.44772 8.55228 4 8 4H7C6.44772 4 6 4.44772 6 5V19C6 19.5523 6.44772 20 7 20H8ZM17 2H16C14.3431 2 13 3.34315 13 5V19C13 20.6569 14.3431 22 16 22H17C18.6569 22 20 20.6569 20 19V5C20 3.34315 18.6569 2 17 2ZM17 20C17.5523 20 18 19.5523 18 19V5C18 4.44772 17.5523 4 17 4H16C15.4477 4 15 4.44772 15 5V19C15 19.5523 15.4477 20 16 20H17Z" fill="#231F20"/>
</svg>
