<svg width="24" height="24" viewBox="0 0 24 24" fill="none" xmlns="http://www.w3.org/2000/svg">
<path fill-rule="evenodd" clip-rule="evenodd" d="M22 12.1398C22.0046 13.7109 20.7964 15.0194 19.23 15.1398L8 15.9998C8.15 16.9998 8.47 16.9998 9 16.9998H19.5C19.9443 17.0076 20.3787 17.1317 20.76 17.3598H20.82C21.864 17.9756 22.3159 19.2514 21.8923 20.387C21.4687 21.5225 20.2916 22.1907 19.0995 21.9723C17.9073 21.7539 17.0435 20.7118 17.05 19.4998C17.0513 19.332 17.068 19.1646 17.1 18.9998H13C13.0153 19.1662 13.0153 19.3335 13 19.4998C13 20.8806 11.8807 21.9998 10.5 21.9998C9.11929 21.9998 8 20.8806 8 19.4998C8.00069 19.2972 8.02758 19.0956 8.08 18.8998C6 18.4098 6 16.2498 6 15.0798L4.15 3.99984H3C2.44772 3.99984 2 3.55212 2 2.99984C2 2.44756 2.44772 1.99984 3 1.99984H5C5.49539 1.99346 5.92077 2.35078 6 2.83984L6.18 3.99984L21.07 4.99984C21.5948 5.03666 22.0013 5.47378 22 5.99984V12.1398ZM16 8.99984H12C11.4477 8.99984 11 9.44756 11 9.99984C11 10.5521 11.4477 10.9998 12 10.9998H16C16.5523 10.9998 17 10.5521 17 9.99984C17 9.44756 16.5523 8.99984 16 8.99984ZM19.5 18.9998C19.7761 18.9998 20 19.2237 20 19.4998C20 19.776 19.7761 19.9998 19.5 19.9998C19.2239 19.9998 19 19.776 19 19.4998C19 19.2237 19.2239 18.9998 19.5 18.9998ZM11 19.4998C11 19.2237 10.7761 18.9998 10.5 18.9998C10.2239 18.9998 10 19.2237 10 19.4998C10 19.776 10.2239 19.9998 10.5 19.9998C10.7761 19.9998 11 19.776 11 19.4998Z" fill="black"/>
</svg>
