<svg width="24" height="24" viewBox="0 0 24 24" fill="none" xmlns="http://www.w3.org/2000/svg">
<path fill-rule="evenodd" clip-rule="evenodd" d="M8.08 15.9999C8.19 16.9999 8.5 16.9999 9.03 16.9999H20C20.2837 17.0031 20.5527 17.1267 20.74 17.3399C21.7959 17.9431 22.2646 19.2186 21.8506 20.3619C21.4365 21.5053 20.2598 22.1849 19.0625 21.9722C17.8653 21.7594 16.9948 20.716 17 19.4999C17.0013 19.3321 17.018 19.1647 17.05 18.9999H13C13.032 19.1647 13.0487 19.3321 13.05 19.4999C13.05 20.8806 11.9307 21.9999 10.55 21.9999C9.16929 21.9999 8.05 20.8806 8.05 19.4999C8.05069 19.2973 8.07758 19.0956 8.13 18.8999C6.05 18.4099 6 16.2499 6 15.0799L4.15 3.99993H3C2.44772 3.99993 2 3.55222 2 2.99993C2 2.44765 2.44772 1.99993 3 1.99993H5C5.49539 1.99356 5.92077 2.35087 6 2.83993L6.18 3.99993L21.07 4.99993C21.5948 5.03675 22.0013 5.47387 22 5.99993V12.1499C22.0046 13.721 20.7964 15.0295 19.23 15.1499L8.08 15.9999ZM10.11 10.4499C9.91674 10.1288 9.91933 9.72646 10.1167 9.40779C10.3141 9.08912 10.6731 8.9076 11.0467 8.93755C11.4204 8.9675 11.7459 9.20389 11.89 9.54993L12.36 10.4799L15.36 8.19993C15.8018 7.86856 16.4286 7.9581 16.76 8.39993C17.0914 8.84176 17.0018 9.46856 16.56 9.79993L12.56 12.7999C12.3869 12.9298 12.1764 12.9999 11.96 12.9999C11.8836 13.0097 11.8064 13.0097 11.73 12.9999C11.4443 12.9319 11.203 12.7418 11.07 12.4799L10.11 10.4499ZM7.85 13.9999L6.52 5.99993L20 6.93993V12.1499C20.0017 12.6724 19.6008 13.1081 19.08 13.1499L7.92 13.9999H7.85ZM10.52 18.9999C10.2439 18.9999 10.02 19.2238 10.02 19.4999C10.02 19.7761 10.2439 19.9999 10.52 19.9999C10.7961 19.9999 11.02 19.7761 11.02 19.4999C11.0201 19.3638 10.9647 19.2335 10.8666 19.1391C10.7684 19.0448 10.636 18.9945 10.5 18.9999H10.52ZM19.52 18.9999C19.7961 18.9999 20.02 19.2238 20.02 19.4999H20C20.0002 19.7684 19.7883 19.9892 19.52 19.9999C19.2439 19.9999 19.02 19.7761 19.02 19.4999C19.02 19.2238 19.2439 18.9999 19.52 18.9999Z" fill="#231F20"/>
</svg>
