<svg width="24" height="24" viewBox="0 0 24 24" fill="none" xmlns="http://www.w3.org/2000/svg">
<path fill-rule="evenodd" clip-rule="evenodd" d="M12 22C6.47715 22 2 17.5228 2 12C2 6.47715 6.47715 2 12 2C14.6522 2 17.1957 3.05357 19.0711 4.92893C20.9464 6.8043 22 9.34784 22 12C22 17.5228 17.5228 22 12 22ZM18 12C18 12.5523 17.5523 13 17 13H9.41L11.71 15.29C11.8993 15.4778 12.0058 15.7334 12.0058 16C12.0058 16.2666 11.8993 16.5222 11.71 16.71C11.5222 16.8993 11.2666 17.0058 11 17.0058C10.7334 17.0058 10.4778 16.8993 10.29 16.71L6.29 12.71C6.19896 12.6149 6.12759 12.5028 6.08 12.38C5.97998 12.1365 5.97998 11.8635 6.08 11.62C6.12759 11.4972 6.19896 11.3851 6.29 11.29L10.29 7.29C10.5437 7.03634 10.9134 6.93728 11.2599 7.03012C11.6064 7.12297 11.877 7.39362 11.9699 7.74012C12.0627 8.08663 11.9637 8.45634 11.71 8.71L9.41 11H17C17.5523 11 18 11.4477 18 12ZM12 4C16.4183 4 20 7.58172 20 12C20 14.1217 19.1571 16.1566 17.6569 17.6569C16.1566 19.1571 14.1217 20 12 20C7.58172 20 4 16.4183 4 12C4 7.58172 7.58172 4 12 4Z" fill="#231F20"/>
</svg>
