<svg width="24" height="24" viewBox="0 0 24 24" fill="none" xmlns="http://www.w3.org/2000/svg">
<path fill-rule="evenodd" clip-rule="evenodd" d="M19 2H5C3.34315 2 2 3.34315 2 5V19C2 20.6569 3.34315 22 5 22H19C20.6569 22 22 20.6569 22 19V5C22 3.34315 20.6569 2 19 2ZM12.24 17.79L12.09 17.91C12.0367 17.9459 11.9797 17.9761 11.92 18L11.73 18.06H11.54C11.2742 18.0615 11.0187 17.9572 10.83 17.77C10.6473 17.5784 10.5437 17.3248 10.54 17.06C10.5388 16.9268 10.5626 16.7945 10.61 16.67C10.6617 16.55 10.7365 16.4413 10.83 16.35C11.22 15.9623 11.85 15.9623 12.24 16.35C12.3365 16.4387 12.4117 16.5481 12.46 16.67C12.5104 16.794 12.5375 16.9262 12.54 17.06C12.5443 17.3342 12.4359 17.5981 12.24 17.79ZM12.49 13.79C12.5079 13.3658 12.7523 12.9839 13.13 12.79L13.12 12.83C14.6194 12.3273 15.5975 10.884 15.5088 9.30504C15.42 7.72608 14.2863 6.40147 12.74 6.07C11.6825 5.84021 10.578 6.1053 9.74 6.79C8.91762 7.44905 8.43932 8.44612 8.44 9.5C8.44 10.0523 8.88771 10.5 9.44 10.5C9.99228 10.5 10.44 10.0523 10.44 9.5C10.4413 9.04845 10.6472 8.62184 11 8.34C11.3693 8.02413 11.8648 7.89843 12.34 8C13.0387 8.11223 13.564 8.69756 13.6002 9.40433C13.6363 10.1111 13.1736 10.747 12.49 10.93C11.3063 11.3968 10.5181 12.5279 10.49 13.8V14C10.49 14.5523 10.9377 15 11.49 15C12.0423 15 12.49 14.5523 12.49 14V13.79Z" fill="black"/>
</svg>
