<svg width="24" height="24" viewBox="0 0 24 24" fill="none" xmlns="http://www.w3.org/2000/svg">
<path fill-rule="evenodd" clip-rule="evenodd" d="M11.51 17.85C11.4535 17.826 11.3998 17.7958 11.35 17.76L4.37 11.76C4.09848 11.5278 3.97147 11.1683 4.03682 10.8171C4.10217 10.4658 4.34995 10.1761 4.68682 10.0571C5.02369 9.93805 5.39848 10.0078 5.67 10.24L11 14.82V3C11 2.44772 11.4477 2 12 2C12.5523 2 13 2.44772 13 3V14.82L18.35 10.24C18.7697 9.88101 19.401 9.93026 19.76 10.35C20.119 10.7697 20.0697 11.401 19.65 11.76L12.65 17.76C12.6002 17.7958 12.5465 17.826 12.49 17.85L12.37 17.93C12.1324 18.0246 11.8676 18.0246 11.63 17.93L11.51 17.85ZM22 20V18C22 17.4477 21.5523 17 21 17C20.4477 17 20 17.4477 20 18V19.93C19.9111 19.9782 19.8111 20.0024 19.71 20H4.29C4.18888 20.0024 4.08891 19.9782 4 19.93V18C4 17.4477 3.55228 17 3 17C2.44772 17 2 17.4477 2 18V20C2.09066 21.1794 3.10915 22.0689 4.29 22H19.71C20.8909 22.0689 21.9093 21.1794 22 20Z" fill="#231F20"/>
</svg>
