<svg width="24" height="24" viewBox="0 0 24 24" fill="none" xmlns="http://www.w3.org/2000/svg">
<path fill-rule="evenodd" clip-rule="evenodd" d="M2 12C2 6.47715 6.47715 2 12 2C14.6522 2 17.1957 3.05357 19.0711 4.92893C20.9464 6.8043 22 9.34784 22 12C22 17.5228 17.5228 22 12 22C6.47715 22 2 17.5228 2 12ZM4 12C4 16.4183 7.58172 20 12 20C14.1217 20 16.1566 19.1571 17.6569 17.6569C19.1571 16.1566 20 14.1217 20 12C20 7.58172 16.4183 4 12 4C7.58172 4 4 7.58172 4 12ZM17.92 10.52C17.8002 10.1642 17.4913 9.90547 17.12 9.85L14.21 9.4L12.9 6.61C12.7464 6.2471 12.394 6.00824 12 6C11.613 6.00292 11.2625 6.22882 11.1 6.58L9.78 9.4L6.87 9.85C6.49727 9.90415 6.18658 10.1631 6.06621 10.52C5.94583 10.8769 6.0362 11.2712 6.3 11.54L8.44 13.72L7.93 16.82C7.85925 17.2048 8.01946 17.5956 8.34 17.82C8.51 17.9387 8.71268 18.0016 8.92 18C9.08877 18.0005 9.25457 17.9556 9.4 17.87L12 16.42L14.59 17.85C14.9238 18.0376 15.3354 18.0182 15.65 17.8C15.9705 17.5756 16.1307 17.1848 16.06 16.8L15.56 13.7L17.69 11.52C17.9449 11.2544 18.0332 10.8703 17.92 10.52ZM13.49 13.54C13.4384 13.2267 13.5386 12.9075 13.76 12.68L14.9 11.53L13.39 11.3C13.059 11.2522 12.7737 11.042 12.63 10.74L12 9.39L11.36 10.74C11.2182 11.0394 10.9373 11.2491 10.61 11.3L9.09 11.53L10.18 12.68C10.4014 12.9075 10.5016 13.2267 10.45 13.54L10.2 15.11L11.47 14.41C11.7794 14.2314 12.1606 14.2314 12.47 14.41L13.75 15.11L13.49 13.54Z" fill="#231F20"/>
</svg>
