<svg width="24" height="24" viewBox="0 0 24 24" fill="none" xmlns="http://www.w3.org/2000/svg">
<path fill-rule="evenodd" clip-rule="evenodd" d="M15.64 2.22999L21.64 7.22999C21.8693 7.41997 22.0019 7.70224 22.0019 7.99999C22.0019 8.29774 21.8693 8.58001 21.64 8.76999L15.64 13.77C15.4601 13.9191 15.2336 14.0004 15 14C14.8551 14.0008 14.7118 13.9701 14.58 13.91C14.2255 13.746 13.999 13.3906 14 13V11.05C10.0043 11.441 6.58684 14.0887 5.20999 17.86L3.93999 21.34C3.79683 21.7359 3.42102 21.9998 2.99999 22C2.94379 22.0103 2.88618 22.0103 2.82999 22C2.34491 21.9164 1.99283 21.4922 1.99999 21V18C2.00598 11.2126 7.23267 5.5721 14 5.04999V2.99999C13.9994 2.61172 14.2235 2.25818 14.575 2.09317C14.9264 1.92816 15.3417 1.9815 15.64 2.22999ZM16 9.99999V10.87L19.44 7.99999L16 5.12999V5.99999C16 6.55228 15.5523 6.99999 15 6.99999C10.1351 7.00101 5.84869 10.1975 4.45999 14.86C6.72972 11.2219 10.7119 9.00787 15 8.99999C15.5523 8.99999 16 9.44771 16 9.99999Z" fill="#231F20"/>
</svg>
