<svg width="24" height="24" viewBox="0 0 24 24" fill="none" xmlns="http://www.w3.org/2000/svg">
<path fill-rule="evenodd" clip-rule="evenodd" d="M19 6H15V3.76C15.0017 2.91622 14.4736 2.16218 13.6801 1.87526C12.8866 1.58835 11.9984 1.83029 11.46 2.48L8.7 5.8C8.24915 6.33836 8.00144 7.0178 8 7.72V8H3C2.44772 8 2 8.44772 2 9V21C2 21.5523 2.44772 22 3 22H19C20.6569 22 22 20.6569 22 19V9C22 7.34315 20.6569 6 19 6ZM4 10H8V20H4V10ZM19 20C19.5523 20 20 19.5523 20 19V9C20 8.44772 19.5523 8 19 8H14C13.4477 8 13 7.55229 13 7V3.76L10.23 7.08C10.0809 7.25991 9.99954 7.48635 10 7.72V20H19Z" fill="#231F20"/>
</svg>
