<svg width="24" height="24" viewBox="0 0 24 24" fill="none" xmlns="http://www.w3.org/2000/svg">
<path fill-rule="evenodd" clip-rule="evenodd" d="M5 2H19C20.6569 2 22 3.34315 22 5V19C22 20.6569 20.6569 22 19 22H5C3.34315 22 2 20.6569 2 19V5C2 3.34315 3.34315 2 5 2ZM5 20H19C19.3869 19.9971 19.7375 19.7712 19.9 19.42L9.15 11.37L4 17.37V19C4 19.5523 4.44772 20 5 20ZM20 17L14 12.46L16.12 10.34L20 13.48V17ZM16.62 8.22L20 10.92V5C20 4.44772 19.5523 4 19 4H5C4.44772 4 4 4.44772 4 5V14.3L8.24 9.35C8.58283 8.94915 9.17805 8.8835 9.6 9.2L12.29 11.29L15.29 8.29C15.651 7.93189 16.2234 7.90177 16.62 8.22Z" fill="#231F20"/>
</svg>
