<svg width="24" height="24" viewBox="0 0 24 24" fill="none" xmlns="http://www.w3.org/2000/svg">
<path fill-rule="evenodd" clip-rule="evenodd" d="M6.79996 2.58002L19.69 9.11002C21.6 10.08 21.88 11.4 21.88 12.08C21.88 12.76 21.6 14 19.69 15L6.79996 21.51C6.25649 21.7954 5.65372 21.9495 5.03996 21.96C4.51895 21.9675 4.00626 21.8289 3.55996 21.56C2.58051 20.8873 2.03217 19.745 2.11996 18.56V5.58002C2.02798 4.39428 2.57727 3.24992 3.55996 2.58002C4.56458 2.00938 5.79534 2.00938 6.79996 2.58002ZM5.89996 19.7L18.78 13.17C19.46 12.82 19.88 12.38 19.88 12.03C19.88 11.68 19.46 11.24 18.78 10.9L5.85996 4.37002C5.59585 4.22425 5.30139 4.14207 4.99996 4.13002C4.85971 4.1339 4.72247 4.17164 4.59996 4.24002C4.23957 4.5535 4.05948 5.02622 4.11996 5.50002V18.56C4.05948 19.0338 4.23957 19.5065 4.59996 19.82C5.02601 20.0005 5.51414 19.9554 5.89996 19.7Z" fill="#231F20"/>
</svg>
