<svg width="24" height="24" viewBox="0 0 24 24" fill="none" xmlns="http://www.w3.org/2000/svg">
<path fill-rule="evenodd" clip-rule="evenodd" d="M22 19C22 20.6569 20.6569 22 19 22H5C3.34315 22 2 20.6569 2 19V5C2 3.34315 3.34315 2 5 2H19C20.6569 2 22 3.34315 22 5V19ZM17.71 7.71L13.41 12L17.71 16.29C17.8993 16.4778 18.0058 16.7334 18.0058 17C18.0058 17.2666 17.8993 17.5222 17.71 17.71C17.5222 17.8993 17.2666 18.0058 17 18.0058C16.7334 18.0058 16.4778 17.8993 16.29 17.71L12 13.41L7.71 17.71C7.52223 17.8993 7.26664 18.0058 7 18.0058C6.73336 18.0058 6.47777 17.8993 6.29 17.71C6.10069 17.5222 5.9942 17.2666 5.9942 17C5.9942 16.7334 6.10069 16.4778 6.29 16.29L10.59 12L6.29 7.71C5.89788 7.31788 5.89788 6.68212 6.29 6.29C6.68212 5.89788 7.31788 5.89788 7.71 6.29L12 10.59L16.29 6.29C16.6821 5.89788 17.3179 5.89788 17.71 6.29C18.1021 6.68212 18.1021 7.31788 17.71 7.71ZM19 4C19.5523 4 20 4.44772 20 5V19C20 19.5523 19.5523 20 19 20H5C4.44772 20 4 19.5523 4 19V5C4 4.44772 4.44772 4 5 4H19Z" fill="#231F20"/>
</svg>
