<svg width="24" height="24" viewBox="0 0 24 24" fill="none" xmlns="http://www.w3.org/2000/svg">
<path fill-rule="evenodd" clip-rule="evenodd" d="M21.8799 11.51C20.959 9.82838 19.7739 8.30565 18.3699 6.99999L19.6799 5.77999C19.9702 5.54465 20.105 5.16713 20.0295 4.80118C19.954 4.43523 19.6807 4.14191 19.3211 4.04067C18.9614 3.93943 18.5753 4.04716 18.3199 4.31999L16.7699 5.70999C15.3545 4.77238 13.6977 4.26524 11.9999 4.24999C8.22995 4.24999 4.72995 6.82999 2.12995 11.51C1.95131 11.8194 1.95131 12.2006 2.12995 12.51C2.93915 14.0005 3.94852 15.3732 5.12995 16.59L3.31995 18.29C2.93222 18.68 2.93222 19.31 3.31995 19.7C3.69608 20.1019 4.32629 20.1242 4.72995 19.75L6.72995 17.91C8.24721 19.0664 10.0927 19.7107 11.9999 19.75C15.7699 19.75 19.2799 17.17 21.8799 12.49C22.051 12.1857 22.051 11.8143 21.8799 11.51ZM16.0599 9.10999C16.6704 9.94999 16.9994 10.9616 16.9999 12C16.9904 13.926 15.8754 15.6753 14.1335 16.4972C12.3916 17.319 10.3325 17.0673 8.83995 15.85L16.0599 9.10999ZM11.9999 6.99999C9.23852 6.99999 6.99995 9.23857 6.99995 12C7.00751 12.7999 7.21003 13.586 7.58995 14.29L14.5899 7.74999C13.8137 7.2627 12.9164 7.00286 11.9999 6.99999ZM5.17995 13.54C4.82053 13.0441 4.48676 12.5301 4.17995 12C4.48676 11.4699 4.82053 10.9559 5.17995 10.46C4.94003 11.4726 4.94003 12.5273 5.17995 13.54ZM19.8199 12C19.5154 11.4653 19.1815 10.9479 18.8199 10.45C19.0601 11.4694 19.0601 12.5306 18.8199 13.55C19.1815 13.0521 19.5154 12.5347 19.8199 12Z" fill="#231F20"/>
</svg>
