<svg width="24" height="24" viewBox="0 0 24 24" fill="none" xmlns="http://www.w3.org/2000/svg">
<path fill-rule="evenodd" clip-rule="evenodd" d="M15.66 14.25L21.83 20.42H21.86C22.1472 20.7048 22.2345 21.1346 22.0813 21.5089C21.928 21.8832 21.5644 22.1283 21.16 22.13C20.8928 22.1289 20.6371 22.0209 20.45 21.83L14.28 15.66L10.69 19.25C10.3 19.6377 9.67003 19.6377 9.28 19.25L7.44 17.41C6.87397 16.8431 6.70083 15.9932 7 15.25L3.08 11.25C2.51513 10.6871 2.19763 9.92247 2.19763 9.12501C2.19763 8.32756 2.51513 7.56292 3.08 7.00001L7.08 3.00001C7.6429 2.43515 8.40754 2.11765 9.205 2.11765C10.0025 2.11765 10.7671 2.43515 11.33 3.00001L15.25 7.00001C15.9873 6.69319 16.8364 6.85437 17.41 7.41001L19.25 9.25001C19.6377 9.64005 19.6377 10.27 19.25 10.66L15.66 14.25ZM8.83 16L10 17.13L17.13 10L16 8.83001L15.85 9.00001C15.6622 9.18932 15.4066 9.29581 15.14 9.29581C14.8734 9.29581 14.6178 9.18932 14.43 9.00001L9.87 4.50001C9.47996 4.11229 8.85004 4.11229 8.46 4.50001L4.46 8.50001C4.07227 8.89005 4.07227 9.51997 4.46 9.91001L9 14.43C9.18931 14.6178 9.2958 14.8734 9.2958 15.14C9.2958 15.4066 9.18931 15.6622 9 15.85L8.83 16Z" fill="#231F20"/>
</svg>
