<svg width="24" height="24" viewBox="0 0 24 24" fill="none" xmlns="http://www.w3.org/2000/svg">
<path fill-rule="evenodd" clip-rule="evenodd" d="M14 6H3C2.44772 6 2 5.55228 2 5C2 4.44772 2.44772 4 3 4H14C14 2.89543 14.8954 2 16 2H18C19.1046 2 20 2.89543 20 4H21C21.5523 4 22 4.44772 22 5C22 5.55228 21.5523 6 21 6H20C20 7.10457 19.1046 8 18 8H16C14.8954 8 14 7.10457 14 6ZM18 4H16V6H18V5V4ZM21 11H12C12 9.89543 11.1046 9 10 9H8C6.89543 9 6 9.89543 6 11H3C2.44772 11 2 11.4477 2 12C2 12.5523 2.44772 13 3 13H6C6 14.1046 6.89543 15 8 15H10C11.1046 15 12 14.1046 12 13H21C21.5523 13 22 12.5523 22 12C22 11.4477 21.5523 11 21 11ZM10 11H8V13H10V12V11ZM21 18H18C18 16.8954 17.1046 16 16 16H14C12.8954 16 12 16.8954 12 18H3C2.44772 18 2 18.4477 2 19C2 19.5523 2.44772 20 3 20H12C12 21.1046 12.8954 22 14 22H16C17.1046 22 18 21.1046 18 20H21C21.5523 20 22 19.5523 22 19C22 18.4477 21.5523 18 21 18ZM16 18H14V20H16V19V18Z" fill="#231F20"/>
</svg>
