<svg width="24" height="24" viewBox="0 0 24 24" fill="none" xmlns="http://www.w3.org/2000/svg">
<path d="M21.83 20.42L15.66 14.25L19.25 10.66C19.6377 10.27 19.6377 9.64008 19.25 9.25004L17.41 7.41004C16.8364 6.8544 15.9873 6.69322 15.25 7.00004L11.33 3.00004C10.7671 2.43518 10.0025 2.11768 9.205 2.11768C8.40754 2.11768 7.6429 2.43518 7.08 3.00004L3.08 7.00004C2.51513 7.56295 2.19763 8.32759 2.19763 9.12504C2.19763 9.9225 2.51513 10.6871 3.08 11.25L7 15.25C6.70083 15.9932 6.87397 16.8431 7.44 17.41L9.28 19.25C9.67003 19.6378 10.3 19.6378 10.69 19.25L14.28 15.66L20.45 21.83C20.6371 22.0209 20.8928 22.1289 21.16 22.13C21.5644 22.1283 21.928 21.8832 22.0813 21.5089C22.2345 21.1346 22.1472 20.7049 21.86 20.42H21.83Z" fill="black"/>
</svg>
