<svg width="24" height="24" viewBox="0 0 24 24" fill="none" xmlns="http://www.w3.org/2000/svg">
<path fill-rule="evenodd" clip-rule="evenodd" d="M17.94 16.83C18.4952 16.3 19.2324 16.003 20 16C21.6569 16 23 17.3432 23 19C23 20.6569 21.6569 22 20 22C18.3431 22 17 20.6569 17 19C16.9902 18.8702 16.9902 18.7398 17 18.61L7.6 13.47C7.07144 14.4104 6.07871 14.9945 5 15C3.34315 15 2 13.6569 2 12C2 10.3432 3.34315 9.00001 5 9.00001C6.07871 9.00547 7.07144 9.58965 7.6 10.53L17 5.39001C16.9902 5.26019 16.9902 5.12982 17 5.00001C16.9948 3.5758 17.9917 2.34424 19.3857 2.05263C20.7798 1.76102 22.1867 2.48974 22.7528 3.79661C23.3189 5.10347 22.8881 6.62825 21.7219 7.4457C20.5556 8.26316 18.9754 8.14796 17.94 7.17001L9.09 12L17.94 16.83ZM21 5.00001C21 4.44772 20.5523 4.00001 20 4.00001C19.4477 4.00001 19 4.44772 19 5.00001C19 5.55229 19.4477 6.00001 20 6.00001C20.5523 6.00001 21 5.55229 21 5.00001ZM5 13C4.44772 13 4 12.5523 4 12C4 11.4477 4.44772 11 5 11C5.55228 11 6 11.4477 6 12C6 12.5523 5.55228 13 5 13ZM19 19C19 19.5523 19.4477 20 20 20C20.5523 20 21 19.5523 21 19C21 18.4477 20.5523 18 20 18C19.4477 18 19 18.4477 19 19Z" fill="#231F20"/>
</svg>
