<svg width="24" height="24" viewBox="0 0 24 24" fill="none" xmlns="http://www.w3.org/2000/svg">
<path fill-rule="evenodd" clip-rule="evenodd" d="M12 14V10C12 9.44772 12.4477 9 13 9H22V15H13C12.4477 15 12 14.5523 12 14ZM18 12C18 10.8954 17.1046 10 16 10C14.8954 10 14 10.8954 14 12C14 13.1046 14.8954 14 16 14C17.1046 14 18 13.1046 18 12Z" fill="black"/>
<path d="M13 17C11.3431 17 10 15.6569 10 14V10C10 8.34315 11.3431 7 13 7H22V5C22 3.34315 20.6569 2 19 2H5C3.34315 2 2 3.34315 2 5V19C2 20.6569 3.34315 22 5 22H19C20.6569 22 22 20.6569 22 19V17H13Z" fill="black"/>
</svg>
