<svg width="24" height="24" viewBox="0 0 24 24" fill="none" xmlns="http://www.w3.org/2000/svg">
<path d="M20.92 4.1599C20.2921 3.8822 19.5595 3.99972 19.05 4.4599L13 9.2499V6.2499C13.1318 5.34493 12.6951 4.45174 11.9 3.9999C11.262 3.71156 10.5133 3.83371 9.99998 4.3099L2.93998 9.9299C2.33565 10.3832 1.97998 11.0945 1.97998 11.8499C1.97998 12.6053 2.33565 13.3167 2.93998 13.7699L9.99998 19.3899C10.334 19.6787 10.7585 19.8414 11.2 19.8499C11.4316 19.8493 11.6602 19.7981 11.87 19.6999C12.6634 19.2589 13.1103 18.3809 13 17.4799V14.7499L19 19.5499C19.3425 19.8295 19.768 19.9878 20.21 19.9999C20.4417 20.0003 20.6706 19.949 20.88 19.8499C21.6737 19.41 22.1178 18.5297 22 17.6299V6.3799C22 4.8999 21.33 4.3499 20.92 4.1599Z" fill="black"/>
</svg>
