<svg width="24" height="24" viewBox="0 0 24 24" fill="none" xmlns="http://www.w3.org/2000/svg">
<path fill-rule="evenodd" clip-rule="evenodd" d="M12 22C6.47715 22 2 17.5228 2 12C2 6.47715 6.47715 2 12 2C14.6522 2 17.1957 3.05357 19.0711 4.92893C20.9464 6.8043 22 9.34784 22 12C22 17.5228 17.5228 22 12 22ZM16.71 12.29C16.8993 12.4778 17.0058 12.7334 17.0058 13C17.0058 13.2666 16.8993 13.5222 16.71 13.71L12.71 17.71C12.6149 17.801 12.5028 17.8724 12.38 17.92C12.138 18.027 11.862 18.027 11.62 17.92C11.4972 17.8724 11.3851 17.801 11.29 17.71L7.29 13.71C7.03634 13.4563 6.93728 13.0866 7.03012 12.7401C7.12297 12.3936 7.39362 12.123 7.74012 12.0301C8.08663 11.9373 8.45634 12.0363 8.71 12.29L11 14.59V7C11 6.44772 11.4477 6 12 6C12.5523 6 13 6.44772 13 7V14.59L15.29 12.29C15.4778 12.1007 15.7334 11.9942 16 11.9942C16.2666 11.9942 16.5222 12.1007 16.71 12.29ZM12 4C16.4183 4 20 7.58172 20 12C20 14.1217 19.1571 16.1566 17.6569 17.6569C16.1566 19.1571 14.1217 20 12 20C7.58172 20 4 16.4183 4 12C4 7.58172 7.58172 4 12 4Z" fill="#231F20"/>
</svg>
