<svg width="24" height="24" viewBox="0 0 24 24" fill="none" xmlns="http://www.w3.org/2000/svg">
<path fill-rule="evenodd" clip-rule="evenodd" d="M3 6C2.44772 6 2 6.44772 2 7C2 7.55229 2.44772 8 3 8H18.59L16.23 10.19C16.0407 10.3778 15.9342 10.6334 15.9342 10.9C15.9342 11.1666 16.0407 11.4222 16.23 11.61C16.4178 11.7993 16.6734 11.9058 16.94 11.9058C17.2066 11.9058 17.4622 11.7993 17.65 11.61L21.65 7.61C21.7337 7.52449 21.7985 7.42226 21.84 7.31C21.8792 7.21132 21.8995 7.10618 21.9 7V6.94C21.9105 6.857 21.9105 6.77301 21.9 6.69C21.9056 6.6569 21.9056 6.6231 21.9 6.59C21.8551 6.47947 21.7907 6.37787 21.71 6.29L17.71 2.29C17.3179 1.89788 16.6821 1.89788 16.29 2.29C15.8979 2.68212 15.8979 3.31788 16.29 3.71L18.59 6H3ZM5.41 16H21C21.5523 16 22 16.4477 22 17C22 17.5523 21.5523 18 21 18H5.41L7.72 20.19C7.90931 20.3778 8.0158 20.6334 8.0158 20.9C8.0158 21.1666 7.90931 21.4222 7.72 21.61C7.53223 21.7993 7.27664 21.9058 7.01 21.9058C6.74336 21.9058 6.48777 21.7993 6.3 21.61L2.3 17.61C2.21625 17.5245 2.15151 17.4223 2.11 17.31C2.07081 17.2113 2.05046 17.1062 2.05 17V16.94C2.05593 16.8549 2.07274 16.7709 2.1 16.69C2.09441 16.6569 2.09441 16.6231 2.1 16.59C2.14493 16.4795 2.20928 16.3779 2.29 16.29L6.29 12.29C6.68212 11.8979 7.31788 11.8979 7.71 12.29C8.10212 12.6821 8.10212 13.3179 7.71 13.71L5.41 16Z" fill="#231F20"/>
</svg>
