<svg width="24" height="24" viewBox="0 0 24 24" fill="none" xmlns="http://www.w3.org/2000/svg">
<path fill-rule="evenodd" clip-rule="evenodd" d="M9 2H19C20.6569 2 22 3.34315 22 5V19C22 20.6569 20.6569 22 19 22H9C7.34315 22 6 20.6569 6 19V16C6 15.4477 6.44772 15 7 15C7.55228 15 8 15.4477 8 16V19C8 19.5523 8.44772 20 9 20H19C19.5523 20 20 19.5523 20 19V5C20 4.44772 19.5523 4 19 4H9C8.44772 4 8 4.44772 8 5V8C8 8.55228 7.55228 9 7 9C6.44772 9 6 8.55228 6 8V5C6 3.34315 7.34315 2 9 2ZM3 13H9.59L9.29 13.29C9.10069 13.4778 8.9942 13.7334 8.9942 14C8.9942 14.2666 9.10069 14.5222 9.29 14.71C9.47777 14.8993 9.73336 15.0058 10 15.0058C10.2666 15.0058 10.5222 14.8993 10.71 14.71L12.71 12.71C12.8993 12.5222 13.0058 12.2666 13.0058 12C13.0058 11.7334 12.8993 11.4778 12.71 11.29L10.71 9.29C10.3179 8.89788 9.68212 8.89788 9.29 9.29C8.89788 9.68212 8.89788 10.3179 9.29 10.71L9.59 11H3C2.44772 11 2 11.4477 2 12C2 12.5523 2.44772 13 3 13Z" fill="#231F20"/>
</svg>
