<svg width="24" height="24" viewBox="0 0 24 24" fill="none" xmlns="http://www.w3.org/2000/svg">
<path d="M22 5.14002V12.83C22.0058 13.7611 21.5995 14.647 20.89 15.25C20.3582 15.6907 19.6906 15.9344 19 15.94C18.8337 15.9549 18.6663 15.9549 18.5 15.94L9 14.23V3.75002L18.5 2.07002C19.3536 1.92276 20.2286 2.16073 20.89 2.72002C21.5961 3.32552 22.0017 4.20983 22 5.14002Z" fill="black"/>
<path d="M6.99998 4.1001V13.8801L5.99998 13.7001L4.99998 13.5301L4.49998 13.4401C3.94317 13.3492 3.42327 13.1031 2.99998 12.7301C2.35137 12.1178 1.98872 11.262 1.99998 10.3701V7.6101C1.97401 6.11433 3.02996 4.81763 4.49998 4.5401L6.99998 4.1001Z" fill="black"/>
<path d="M8 14.06V19.5C8 20.8807 6.88071 22 5.5 22C4.11929 22 3 20.8807 3 19.5V13C2.9847 12.9106 2.9847 12.8193 3 12.73C3.41216 13.0963 3.91733 13.342 4.46 13.44L4.96 13.53L5.96 13.7L8 14.06Z" fill="black"/>
</svg>
