<svg width="24" height="24" viewBox="0 0 24 24" fill="none" xmlns="http://www.w3.org/2000/svg">
<path fill-rule="evenodd" clip-rule="evenodd" d="M2 12C2 6.47715 6.47715 2 12 2C14.6522 2 17.1957 3.05357 19.0711 4.92893C20.9464 6.8043 22 9.34784 22 12C22 17.5228 17.5228 22 12 22C6.47715 22 2 17.5228 2 12ZM15.55 13.72L17.68 11.54C17.946 11.2725 18.0388 10.8781 17.92 10.52C17.8002 10.1642 17.4913 9.90547 17.12 9.85L14.21 9.4L12.91 6.57C12.743 6.21945 12.3883 5.99722 12 6C11.5999 6.00601 11.242 6.2499 11.09 6.62L9.78 9.4L6.87 9.85C6.49727 9.90415 6.18658 10.1631 6.06621 10.52C5.94583 10.8769 6.0362 11.2712 6.3 11.54L8.44 13.7L7.93 16.8C7.85925 17.1848 8.01946 17.5756 8.34 17.8C8.51 17.9187 8.71268 17.9816 8.92 17.98C9.08877 17.9805 9.25457 17.9356 9.4 17.85L12 16.42L14.58 17.87C14.9138 18.0576 15.3254 18.0382 15.64 17.82C15.9605 17.5956 16.1207 17.2048 16.05 16.82L15.55 13.72Z" fill="black"/>
</svg>
