<svg width="24" height="24" viewBox="0 0 24 24" fill="none" xmlns="http://www.w3.org/2000/svg">
<path fill-rule="evenodd" clip-rule="evenodd" d="M2 12C2 6.47715 6.47715 2 12 2C14.6522 2 17.1957 3.05357 19.0711 4.92893C20.9464 6.8043 22 9.34784 22 12C22 17.5228 17.5228 22 12 22C6.47715 22 2 17.5228 2 12ZM13.71 16.71L17.71 12.71C17.801 12.6149 17.8724 12.5028 17.92 12.38C18.02 12.1365 18.02 11.8635 17.92 11.62C17.8724 11.4972 17.801 11.3851 17.71 11.29L13.71 7.29C13.4563 7.03634 13.0866 6.93728 12.7401 7.03012C12.3936 7.12297 12.123 7.39362 12.0301 7.74012C11.9373 8.08663 12.0363 8.45634 12.29 8.71L14.59 11H7C6.44772 11 6 11.4477 6 12C6 12.5523 6.44772 13 7 13H14.59L12.29 15.29C12.1007 15.4778 11.9942 15.7334 11.9942 16C11.9942 16.2666 12.1007 16.5222 12.29 16.71C12.4778 16.8993 12.7334 17.0058 13 17.0058C13.2666 17.0058 13.5222 16.8993 13.71 16.71Z" fill="black"/>
</svg>
