<svg width="24" height="24" viewBox="0 0 24 24" fill="none" xmlns="http://www.w3.org/2000/svg">
<path fill-rule="evenodd" clip-rule="evenodd" d="M2 12C2 6.47715 6.47715 2 12 2C14.6522 2 17.1957 3.05357 19.0711 4.92893C20.9464 6.8043 22 9.34784 22 12C22 17.5228 17.5228 22 12 22C6.47715 22 2 17.5228 2 12ZM12.71 17.71L16.71 13.71C17.1021 13.3179 17.1021 12.6821 16.71 12.29C16.3179 11.8979 15.6821 11.8979 15.29 12.29L13 14.59V7C13 6.44772 12.5523 6 12 6C11.4477 6 11 6.44772 11 7V14.59L8.71 12.29C8.45634 12.0363 8.08663 11.9373 7.74012 12.0301C7.39362 12.123 7.12297 12.3936 7.03012 12.7401C6.93728 13.0866 7.03634 13.4563 7.29 13.71L11.29 17.71C11.3851 17.801 11.4972 17.8724 11.62 17.92C11.862 18.027 12.138 18.027 12.38 17.92C12.5028 17.8724 12.6149 17.801 12.71 17.71Z" fill="black"/>
</svg>
