<svg width="24" height="24" viewBox="0 0 24 24" fill="none" xmlns="http://www.w3.org/2000/svg">
<path fill-rule="evenodd" clip-rule="evenodd" d="M5 2H19C20.6569 2 22 3.34315 22 5V15C22 16.6569 20.6569 18 19 18H18V21C17.998 21.4037 17.7534 21.7666 17.38 21.92C17.2613 21.976 17.1312 22.0034 17 22C16.7342 22.0015 16.4787 21.8972 16.29 21.71L12.59 18H5C3.34315 18 2 16.6569 2 15V5C2 3.34315 3.34315 2 5 2ZM19 16C19.5523 16 20 15.5523 20 15V5C20 4.44772 19.5523 4 19 4H5C4.44772 4 4 4.44772 4 5V15C4 15.5523 4.44772 16 5 16H13C13.2658 15.9985 13.5213 16.1028 13.71 16.29L16 18.59V17C16 16.4477 16.4477 16 17 16H19Z" fill="#231F20"/>
</svg>
