<svg width="24" height="24" viewBox="0 0 24 24" fill="none" xmlns="http://www.w3.org/2000/svg">
<path fill-rule="evenodd" clip-rule="evenodd" d="M10 2.99999V5.04999C16.7673 5.5721 21.994 11.2126 22 18V21C22.0072 21.4922 21.6551 21.9164 21.17 22C21.1138 22.0103 21.0562 22.0103 21 22C20.579 21.9998 20.2032 21.7359 20.06 21.34L18.79 17.86C17.4132 14.0887 13.9957 11.441 10 11.05V13C10.001 13.3906 9.77446 13.746 9.42 13.91C9.28817 13.9701 9.14487 14.0008 9 14C8.76635 14.0004 8.53992 13.9191 8.36 13.77L2.36 8.76999C2.13073 8.58001 1.99805 8.29774 1.99805 7.99999C1.99805 7.70224 2.13073 7.41997 2.36 7.22999L8.36 2.22999C8.65834 1.9815 9.07355 1.92816 9.425 2.09317C9.77646 2.25818 10.0006 2.61172 10 2.99999ZM8 9.99999C8 9.44771 8.44772 8.99999 9 8.99999C13.2881 9.00787 17.2703 11.2219 19.54 14.86C18.1513 10.1975 13.8649 7.00101 9 6.99999C8.44772 6.99999 8 6.55228 8 5.99999V5.12999L4.56 7.99999L8 10.87V9.99999Z" fill="#231F20"/>
</svg>
