<svg width="24" height="24" viewBox="0 0 24 24" fill="none" xmlns="http://www.w3.org/2000/svg">
<path fill-rule="evenodd" clip-rule="evenodd" d="M16 2H8C6.34315 2 5 3.34315 5 5V19C5 20.6569 6.34315 22 8 22H16C17.6569 22 19 20.6569 19 19V5C19 3.34315 17.6569 2 16 2ZM12.71 18.71C12.6128 18.7983 12.5012 18.8694 12.38 18.92C12.0085 19.0687 11.5842 18.9816 11.3013 18.6987C11.0184 18.4158 10.9313 17.9915 11.08 17.62C11.1276 17.4972 11.199 17.3851 11.29 17.29C11.5246 17.0454 11.8671 16.9362 12.2 17L12.38 17.06C12.4437 17.0819 12.5043 17.1122 12.56 17.15C12.6124 17.1869 12.6625 17.227 12.71 17.27C12.7983 17.3672 12.8694 17.4788 12.92 17.6C13.0766 17.9724 12.9937 18.4024 12.71 18.69V18.71ZM11 7H13.12H13.14C13.6923 7 14.14 6.55228 14.14 6C14.14 5.44772 13.6923 5 13.14 5H11C10.4477 5 10 5.44772 10 6C10 6.55228 10.4477 7 11 7Z" fill="black"/>
</svg>
