<svg width="24" height="24" viewBox="0 0 24 24" fill="none" xmlns="http://www.w3.org/2000/svg">
<path fill-rule="evenodd" clip-rule="evenodd" d="M2 3C2 2.44772 2.44772 2 3 2H15C15.5523 2 16 2.44772 16 3C16 3.55228 15.5523 4 15 4H3C2.44772 4 2 3.55228 2 3ZM13 8H3C2.44772 8 2 8.44772 2 9C2 9.55228 2.44772 10 3 10H13C13.5523 10 14 9.55228 14 9C14 8.44772 13.5523 8 13 8ZM3 14H11C11.5523 14 12 14.4477 12 15C12 15.5523 11.5523 16 11 16H3C2.44772 16 2 15.5523 2 15C2 14.4477 2.44772 14 3 14ZM9 20H3C2.44772 20 2 20.4477 2 21C2 21.5523 2.44772 22 3 22H9C9.55228 22 10 21.5523 10 21C10 20.4477 9.55228 20 9 20ZM21 16.9942C21.2666 16.9942 21.5222 17.1007 21.71 17.29C21.8993 17.4778 22.0058 17.7334 22.0058 18C22.0058 18.2666 21.8993 18.5222 21.71 18.71L18.71 21.71C18.5222 21.8993 18.2666 22.0058 18 22.0058C17.7334 22.0058 17.4778 21.8993 17.29 21.71L14.29 18.71C14.0363 18.4563 13.9373 18.0866 14.0301 17.7401C14.123 17.3936 14.3936 17.123 14.7401 17.0301C15.0866 16.9373 15.4563 17.0363 15.71 17.29L17 18.59V3C17 2.44772 17.4477 2 18 2C18.5523 2 19 2.44772 19 3V18.59L20.29 17.29C20.4778 17.1007 20.7334 16.9942 21 16.9942Z" fill="#231F20"/>
</svg>
