<svg width="24" height="24" viewBox="0 0 24 24" fill="none" xmlns="http://www.w3.org/2000/svg">
<path fill-rule="evenodd" clip-rule="evenodd" d="M3 13C3 8.02944 7.02944 4 12 4C16.9706 4 21 8.02944 21 13C21 17.9706 16.9706 22 12 22C7.02944 22 3 17.9706 3 13ZM14 16.0058C14.2666 16.0058 14.5222 15.8993 14.71 15.71C14.8993 15.5222 15.0058 15.2666 15.0058 15C15.0058 14.7334 14.8993 14.4778 14.71 14.29L13 12.59V9C13 8.44772 12.5523 8 12 8C11.4477 8 11 8.44772 11 9V13C10.9985 13.2658 11.1028 13.5213 11.29 13.71L13.29 15.71C13.4778 15.8993 13.7334 16.0058 14 16.0058Z" fill="black"/>
<path d="M19 5.99997C18.8034 6.00221 18.6111 5.94276 18.45 5.82997L15.45 3.82997C15.1156 3.65059 14.9116 3.29738 14.9232 2.91808C14.9348 2.53878 15.1602 2.19875 15.5049 2.0402C15.8497 1.88166 16.2545 1.93192 16.55 2.16997L19.55 4.16997C19.9141 4.41457 20.0762 4.86781 19.95 5.28782C19.8238 5.70783 19.4386 5.99658 19 5.99997Z" fill="black"/>
<path d="M5.00005 5.99997C4.56149 5.99658 4.17632 5.70783 4.05008 5.28782C3.92385 4.86781 4.08602 4.41457 4.45005 4.16997L7.45005 2.16997C7.74558 1.93192 8.15038 1.88166 8.49515 2.0402C8.83992 2.19875 9.06525 2.53878 9.07688 2.91808C9.08852 3.29738 8.88445 3.65059 8.55005 3.82997L5.55005 5.82997C5.389 5.94276 5.19665 6.00221 5.00005 5.99997Z" fill="black"/>
</svg>
