<svg width="24" height="24" viewBox="0 0 24 24" fill="none" xmlns="http://www.w3.org/2000/svg">
<path fill-rule="evenodd" clip-rule="evenodd" d="M4.89 1.99998H18.11C19.6709 1.97202 20.9618 3.20925 21 4.76998V10.77C20.5457 10.3205 20.0307 9.93674 19.47 9.62998C16.8538 8.23656 13.6529 8.57605 11.3872 10.4872C9.12149 12.3984 8.24741 15.4964 9.18 18.31C9.37347 18.9087 9.64946 19.4775 10 20H4.89C3.32524 20.0279 2.03281 18.7846 2 17.22V4.77998C2.03281 3.21532 3.32524 1.97208 4.89 1.99998ZM7 7.99998H16C16.5523 7.99998 17 7.55226 17 6.99998C17 6.44769 16.5523 5.99998 16 5.99998H7C6.44772 5.99998 6 6.44769 6 6.99998C6 7.55226 6.44772 7.99998 7 7.99998Z" fill="black"/>
<path d="M11.18 20C10.6907 19.4085 10.3175 18.7299 10.08 18L11.18 20Z" fill="black"/>
<path d="M21 12.23L19 10.51C19.7811 10.935 20.4628 11.5213 21 12.23Z" fill="black"/>
<path d="M10.08 18L11.18 20C10.6907 19.4085 10.3175 18.7299 10.08 18H10.08Z" fill="black"/>
<path d="M21 12.23L19 10.51C19.7811 10.935 20.4628 11.5213 21 12.23Z" fill="black"/>
<path fill-rule="evenodd" clip-rule="evenodd" d="M19 10.51L21 12.23C20.4628 11.5213 19.781 10.935 19 10.51ZM10.08 18C10.3175 18.7299 10.6907 19.4085 11.18 20L10.08 18Z" fill="black"/>
<path fill-rule="evenodd" clip-rule="evenodd" d="M19 10.51L21 12.23C21.8222 13.3138 22.2618 14.6397 22.25 16C22.259 18.6406 20.6075 21.002 18.124 21.8994C15.6405 22.7968 12.861 22.0365 11.18 20L10.08 18C9.43581 16.0927 9.74978 13.9918 10.9235 12.3562C12.0972 10.7206 13.9869 9.75044 16 9.75C17.0475 9.75121 18.0783 10.0124 19 10.51ZM19.0017 16.2393C19.0089 16.2826 19.0083 16.3269 19 16.37C18.9513 16.4892 18.88 16.5978 18.79 16.69L16.79 18.69C16.6023 18.8793 16.3467 18.9858 16.08 18.9858C15.8134 18.9858 15.5578 18.8793 15.37 18.69C15.1807 18.5022 15.0742 18.2466 15.0742 17.98C15.0742 17.7134 15.1807 17.4578 15.37 17.27L15.66 16.98H14C13.4477 16.98 13 16.5323 13 15.98C13 15.4277 13.4477 14.98 14 14.98H15.58L15.29 14.69C14.8979 14.2979 14.8979 13.6621 15.29 13.27C15.6821 12.8779 16.3179 12.8779 16.71 13.27L18.71 15.27C18.8 15.3622 18.8713 15.4708 18.92 15.59C18.9289 15.6362 18.9289 15.6838 18.92 15.73C18.9994 15.8873 19.0279 16.0653 19.0017 16.2393Z" fill="black"/>
</svg>
