<svg width="24" height="24" viewBox="0 0 24 24" fill="none" xmlns="http://www.w3.org/2000/svg">
<path fill-rule="evenodd" clip-rule="evenodd" d="M16.4099 9L21.7099 3.71C22.1021 3.31788 22.1021 2.68212 21.7099 2.29C21.3178 1.89788 20.6821 1.89788 20.2899 2.29L14.9999 7.59V5C14.9999 4.44772 14.5522 4 13.9999 4C13.4477 4 12.9999 4.44772 12.9999 5V10C12.9999 10.5523 13.4477 11 13.9999 11H18.9999C19.5522 11 19.9999 10.5523 19.9999 10C19.9999 9.44772 19.5522 9 18.9999 9H16.4099ZM4.99994 13H9.99994C10.5522 13 10.9999 13.4477 10.9999 14V19C10.9999 19.5523 10.5522 20 9.99994 20C9.44765 20 8.99994 19.5523 8.99994 19V16.41L3.70994 21.71C3.52217 21.8993 3.26658 22.0058 2.99994 22.0058C2.7333 22.0058 2.47771 21.8993 2.28994 21.71C2.10063 21.5222 1.99414 21.2666 1.99414 21C1.99414 20.7334 2.10063 20.4778 2.28994 20.29L7.58994 15H4.99994C4.44765 15 3.99994 14.5523 3.99994 14C3.99994 13.4477 4.44765 13 4.99994 13Z" fill="#231F20"/>
</svg>
