<svg width="24" height="24" viewBox="0 0 24 24" fill="none" xmlns="http://www.w3.org/2000/svg">
<path fill-rule="evenodd" clip-rule="evenodd" d="M19 6H18V5C18 3.34315 16.6569 2 15 2H5C3.34315 2 2 3.34315 2 5V12C2 13.6569 3.34315 15 5 15V17C5.00114 17.3766 5.21372 17.7206 5.55 17.89C5.688 17.9649 5.84302 18.0028 6 18C6.21637 18 6.4269 17.9298 6.6 17.8C7.16656 18.5554 8.05573 19 9 19H13.67L17.4 21.8C17.5731 21.9298 17.7836 22 18 22C18.157 22.0028 18.312 21.9649 18.45 21.89C18.7863 21.7205 18.9989 21.3766 19 21V19C20.6569 19 22 17.6569 22 16V9C22 7.34315 20.6569 6 19 6ZM7 15V14C7 13.4477 6.55228 13 6 13H5C4.44772 13 4 12.5523 4 12V5C4 4.44772 4.44772 4 5 4H15C15.5523 4 16 4.44772 16 5V12C16 12.5523 15.5523 13 15 13H10C9.78363 13 9.5731 13.0702 9.4 13.2L7 15ZM19 17C19.5523 17 20 16.5523 20 16V9C20 8.44772 19.5523 8 19 8H18V12C18 13.6569 16.6569 15 15 15H10.33L8.22 16.59C8.40252 16.84 8.69055 16.9914 9 17H14C14.2164 17 14.4269 17.0702 14.6 17.2L17 19V18C17 17.4477 17.4477 17 18 17H19Z" fill="#231F20"/>
</svg>
