<svg width="24" height="24" viewBox="0 0 24 24" fill="none" xmlns="http://www.w3.org/2000/svg">
<path fill-rule="evenodd" clip-rule="evenodd" d="M5 2H19C20.6569 2 22 3.34315 22 5V19C22 20.6569 20.6569 22 19 22H5C3.34315 22 2 20.6569 2 19V5C2 3.34315 3.34315 2 5 2ZM10.7 16.7L14.7 12.7C15.0933 12.3155 15.1022 11.6855 14.72 11.29L10.72 7.29C10.4681 7.03634 10.1001 6.93632 9.75445 7.02762C9.40884 7.11892 9.13819 7.38766 9.04445 7.73262C8.95071 8.07758 9.04813 8.44634 9.3 8.7L12.58 12L9.29 15.29C8.90228 15.68 8.90228 16.31 9.29 16.7C9.68004 17.0877 10.31 17.0877 10.7 16.7Z" fill="black"/>
</svg>
