<svg width="24" height="24" viewBox="0 0 24 24" fill="none" xmlns="http://www.w3.org/2000/svg">
<path fill-rule="evenodd" clip-rule="evenodd" d="M12 22C6.47715 22 2 17.5228 2 12C2 6.47715 6.47715 2 12 2C14.6522 2 17.1957 3.05357 19.0711 4.92893C20.9464 6.8043 22 9.34784 22 12C22 17.5228 17.5228 22 12 22ZM16.71 9.31C16.8993 9.49777 17.0058 9.75336 17.0058 10.02C17.0058 10.2866 16.8993 10.5422 16.71 10.73L12.71 14.73C12.5222 14.9193 12.2666 15.0258 12 15.0258C11.7334 15.0258 11.4778 14.9193 11.29 14.73L7.29 10.73C7.03634 10.4763 6.93728 10.1066 7.03012 9.76012C7.12297 9.41362 7.39362 9.14297 7.74012 9.05012C8.08663 8.95728 8.45634 9.05634 8.71 9.31L12 12.58L15.29 9.31C15.4778 9.12069 15.7334 9.0142 16 9.0142C16.2666 9.0142 16.5222 9.12069 16.71 9.31ZM12 4C16.4183 4 20 7.58172 20 12C20 14.1217 19.1571 16.1566 17.6569 17.6569C16.1566 19.1571 14.1217 20 12 20C7.58172 20 4 16.4183 4 12C4 7.58172 7.58172 4 12 4Z" fill="#231F20"/>
</svg>
