<svg width="24" height="24" viewBox="0 0 24 24" fill="none" xmlns="http://www.w3.org/2000/svg">
<path fill-rule="evenodd" clip-rule="evenodd" d="M22 12.1399C22.0046 13.711 20.7964 15.0195 19.23 15.1399L8.05 15.9999C8.16 16.9999 8.47 16.9999 9 16.9999H20C20.3011 16.9885 20.5913 17.1134 20.79 17.3399C21.8459 17.9431 22.3146 19.2186 21.9006 20.3619C21.4865 21.5053 20.3098 22.1849 19.1125 21.9722C17.9153 21.7594 17.0448 20.716 17.05 19.4999C17.0513 19.3321 17.068 19.1647 17.1 18.9999H13C13.0153 19.1662 13.0153 19.3336 13 19.4999C13 20.8806 11.8807 21.9999 10.5 21.9999C9.11929 21.9999 8 20.8806 8 19.4999C8.00069 19.2973 8.02758 19.0956 8.08 18.8999C6 18.4099 6 16.2499 6 15.0799L4.15 3.99993H3C2.44772 3.99993 2 3.55222 2 2.99993C2 2.44765 2.44772 1.99993 3 1.99993H5C5.49539 1.99356 5.92077 2.35087 6 2.83993L6.18 3.99993L21.07 4.99993C21.5948 5.03675 22.0013 5.47387 22 5.99993V12.1399ZM20 19.4999C20 19.2238 19.7761 18.9999 19.5 18.9999C19.2239 18.9999 19 19.2238 19 19.4999C19 19.7761 19.2239 19.9999 19.5 19.9999C19.7761 19.9999 20 19.7761 20 19.4999ZM10.5 18.9999C10.7761 18.9999 11 19.2238 11 19.4999C11 19.7761 10.7761 19.9999 10.5 19.9999C10.2239 19.9999 10 19.7761 10 19.4999C10 19.2238 10.2239 18.9999 10.5 18.9999ZM7.85 13.9999H7.92L19.08 13.1499C19.6008 13.1081 20.0017 12.6724 20 12.1499V6.93993L6.52 5.99993L7.85 13.9999Z" fill="#231F20"/>
</svg>
