<svg width="24" height="24" viewBox="0 0 24 24" fill="none" xmlns="http://www.w3.org/2000/svg">
<path d="M22 5C22 4.44772 21.5523 4 21 4V6C21.5523 6 22 5.55228 22 5Z" fill="black"/>
<path d="M3 6H13V4H3C2.44772 4 2 4.44772 2 5C2 5.55228 2.44772 6 3 6Z" fill="black"/>
<path d="M21 11H13V13H21C21.5523 13 22 12.5523 22 12C22 11.4477 21.5523 11 21 11Z" fill="black"/>
<path d="M3 13H5V11H3C2.44772 11 2 11.4477 2 12C2 12.5523 2.44772 13 3 13Z" fill="black"/>
<path d="M21 18H19V20H21C21.5523 20 22 19.5523 22 19C22 18.4477 21.5523 18 21 18Z" fill="black"/>
<path d="M2 19C2 19.5523 2.44772 20 3 20H11V18H3C2.44772 18 2 18.4477 2 19Z" fill="black"/>
<rect x="14" y="2" width="6" height="6" rx="2" fill="black"/>
<rect x="6" y="9" width="6" height="6" rx="2" fill="black"/>
<rect x="12" y="16" width="6" height="6" rx="2" fill="black"/>
</svg>
