<svg width="24" height="24" viewBox="0 0 24 24" fill="none" xmlns="http://www.w3.org/2000/svg">
<path d="M21 4.30004C20.2597 3.90051 19.3615 3.93109 18.65 4.38004L8.41 10C7.60109 10.3483 7.0562 11.1212 7 12C7.04882 12.8697 7.57668 13.6403 8.37 14L18.6 19.63C18.9986 19.8616 19.4492 19.9889 19.91 20C20.2622 19.9964 20.6071 19.8998 20.91 19.72C21.6265 19.2688 22.0434 18.4657 22 17.62V6.39004C22.0633 5.56488 21.6822 4.76848 21 4.30004Z" fill="black"/>
<path d="M4.52 4.00008C3.8535 3.99475 3.21247 4.25578 2.73929 4.7252C2.26611 5.19462 1.99998 5.83356 2 6.50008V17.5001C2 18.8808 3.11929 20.0001 4.5 20.0001C5.88071 20.0001 7 18.8808 7 17.5001V6.50008C7.00004 5.12714 5.89289 4.01106 4.52 4.00008Z" fill="black"/>
</svg>
