<svg width="24" height="24" viewBox="0 0 24 24" fill="none" xmlns="http://www.w3.org/2000/svg">
<path fill-rule="evenodd" clip-rule="evenodd" d="M12 2C6.47717 2 2.00002 6.47715 2.00002 12C1.99647 13.6841 2.42698 15.3407 3.25002 16.81C3.57035 17.413 3.95963 17.9768 4.41002 18.49C6.30982 20.7047 9.08215 21.9791 12 21.9791C14.9179 21.9791 17.6902 20.7047 19.59 18.49C20.0404 17.9768 20.4297 17.413 20.75 16.81C21.5731 15.3407 22.0036 13.6841 22 12C22 6.47715 17.5229 2 12 2ZM14.67 19.54C11.5133 20.6591 7.9936 19.6934 5.85002 17.12C9.46524 14.3004 14.5348 14.3004 18.15 17.12C17.2287 18.2249 16.0265 19.0609 14.67 19.54ZM19.93 13H19.09C18.5377 13 18.09 12.5523 18.09 12C18.09 11.4477 18.5377 11 19.09 11H19.94C19.7671 9.58106 19.2104 8.23614 18.33 7.11L18.03 7.41C17.8429 7.60086 17.5873 7.70889 17.32 7.71C16.9138 7.71236 16.5464 7.4687 16.3907 7.09348C16.2349 6.71827 16.3216 6.28609 16.61 6L16.88 5.71C15.759 4.82224 14.4179 4.25543 13 4.07V5C13 5.55228 12.5523 6 12 6C11.4477 6 11 5.55228 11 5V4.06C9.59019 4.23111 8.25293 4.78053 7.13002 5.65L7.48002 6C7.87491 6.39212 7.87714 7.03012 7.48502 7.425C7.0929 7.81988 6.45491 7.82212 6.06002 7.43L5.71002 7.08C4.8129 8.21179 4.24233 9.56733 4.06002 11H5.00002C5.55231 11 6.00002 11.4477 6.00002 12C6.00002 12.5523 5.55231 13 5.00002 13H4.07002C4.16928 13.8344 4.40935 14.6459 4.78002 15.4C6.6993 13.9461 9.01474 13.1092 11.42 13L14.14 8.51C14.2972 8.16216 14.6387 7.93416 15.0203 7.92232C15.4018 7.91048 15.7568 8.11687 15.9352 8.45429C16.1137 8.79171 16.0845 9.20129 15.86 9.51L13.69 13.12C15.6981 13.4069 17.6007 14.1983 19.22 15.42C19.5929 14.6597 19.833 13.8412 19.93 13Z" fill="#231F20"/>
</svg>
