<svg width="24" height="24" viewBox="0 0 24 24" fill="none" xmlns="http://www.w3.org/2000/svg">
<circle cx="16" cy="8" r="1" fill="black"/>
<path fill-rule="evenodd" clip-rule="evenodd" d="M12.83 2H19C20.6569 2 22 3.34315 22 5V11.17C21.9993 11.9654 21.6828 12.7279 21.12 13.29L14.12 20.29C12.9487 21.4598 11.0513 21.4598 9.88 20.29L3.71 14.12C2.54019 12.9487 2.54019 11.0513 3.71 9.88L10.71 2.88C11.2721 2.31723 12.0346 2.0007 12.83 2ZM13 8C13 9.65685 14.3431 11 16 11C17.6569 11 19 9.65685 19 8C19 6.34315 17.6569 5 16 5C14.3431 5 13 6.34315 13 8Z" fill="black"/>
</svg>
