<svg width="24" height="24" viewBox="0 0 24 24" fill="none" xmlns="http://www.w3.org/2000/svg">
<path fill-rule="evenodd" clip-rule="evenodd" d="M22 5V19C22 20.6569 20.6569 22 19 22H5C3.34315 22 2 20.6569 2 19V5C2 3.34315 3.34315 2 5 2H19C20.6569 2 22 3.34315 22 5ZM16.71 10.29C16.8993 10.4778 17.0058 10.7334 17.0058 11C17.0058 11.2666 16.8993 11.5222 16.71 11.71C16.5222 11.8993 16.2666 12.0058 16 12.0058C15.7334 12.0058 15.4778 11.8993 15.29 11.71L13 9.41V17C13 17.5523 12.5523 18 12 18C11.4477 18 11 17.5523 11 17V9.41L8.71 11.71C8.45634 11.9637 8.08663 12.0627 7.74012 11.9699C7.39362 11.877 7.12297 11.6064 7.03012 11.2599C6.93728 10.9134 7.03634 10.5437 7.29 10.29L11.29 6.29C11.3851 6.19896 11.4972 6.12759 11.62 6.08C11.8635 5.97998 12.1365 5.97998 12.38 6.08C12.5028 6.12759 12.6149 6.19896 12.71 6.29L16.71 10.29ZM19 4C19.5523 4 20 4.44772 20 5V19C20 19.5523 19.5523 20 19 20H5C4.44772 20 4 19.5523 4 19V5C4 4.44772 4.44772 4 5 4H19Z" fill="#231F20"/>
</svg>
