<svg width="24" height="24" viewBox="0 0 24 24" fill="none" xmlns="http://www.w3.org/2000/svg">
<path d="M20.93 5.62001C20.4319 5.21746 19.8105 4.99855 19.17 5.00001H4.83001C3.26932 5.00549 2.0055 6.26932 2.00001 7.83001V8.50001C1.9963 9.87444 2.80416 11.1215 4.06001 11.68C4.51016 11.8927 5.00216 12.002 5.50001 12H6.50001C7.44344 12.0044 8.34729 11.6212 9.00001 10.94C9.65273 11.6212 10.5566 12.0044 11.5 12H12.5C13.4434 12.0044 14.3473 11.6212 15 10.94C15.6527 11.6212 16.5566 12.0044 17.5 12H18.5C18.9979 12.002 19.4899 11.8927 19.94 11.68C21.1959 11.1215 22.0037 9.87444 22 8.50001V7.83001C21.9996 6.96858 21.6055 6.15458 20.93 5.62001Z" fill="black"/>
<path d="M17.5 13C16.6088 13.0063 15.7369 12.7412 15 12.24C14.2631 12.7412 13.3912 13.0063 12.5 13H11.5C10.6088 13.0063 9.73688 12.7412 9 12.24C8.26312 12.7412 7.39116 13.0063 6.5 13H5.5C4.9878 13.0013 4.47959 12.9099 4 12.73V19C4 20.6568 5.34315 22 7 22H9V17C9 15.3431 10.3431 14 12 14C13.6569 14 15 15.3431 15 17V22H17C18.6569 22 20 20.6568 20 19V12.73C19.5211 12.9125 19.0124 13.0041 18.5 13H17.5Z" fill="black"/>
<path d="M19.17 4.00007C19.6102 4.00085 20.0468 4.07869 20.46 4.23007L20.4 4.05007C19.9748 2.84742 18.8356 2.04515 17.56 2.05007H6.44004C5.16445 2.04515 4.02523 2.84742 3.60004 4.05007L3.54004 4.23007C3.95332 4.07869 4.38991 4.00085 4.83004 4.00007H19.17Z" fill="black"/>
</svg>
