<svg width="24" height="24" viewBox="0 0 24 24" fill="none" xmlns="http://www.w3.org/2000/svg">
<circle cx="12" cy="14" r="1" fill="black"/>
<circle cx="16" cy="14" r="1" fill="black"/>
<path fill-rule="evenodd" clip-rule="evenodd" d="M5 4H19C20.6569 4 22 5.34315 22 7V17C22 18.6569 20.6569 20 19 20H5C3.34315 20 2 18.6569 2 17V7C2 5.34315 3.34315 4 5 4ZM14 16.22C14.5476 16.7178 15.2599 16.9956 16 17C17.6569 17 19 15.6569 19 14C19 12.3431 17.6569 11 16 11C15.2599 11.0044 14.5476 11.2822 14 11.78C13.4524 11.2822 12.7401 11.0044 12 11C10.3431 11 9 12.3431 9 14C9 15.6569 10.3431 17 12 17C12.7401 16.9956 13.4524 16.7178 14 16.22Z" fill="black"/>
</svg>
