<svg width="24" height="24" viewBox="0 0 24 24" fill="none" xmlns="http://www.w3.org/2000/svg">
<path d="M19 2H9C7.34315 2 6 3.34315 6 5V10H8C8.00339 9.19369 8.49063 8.46827 9.23576 8.16017C9.98089 7.85206 10.8382 8.02154 11.41 8.59L13.41 10.59C14.1854 11.3701 14.1854 12.6299 13.41 13.41L11.41 15.41C10.6299 16.1854 9.37007 16.1854 8.59 15.41C8.21441 15.0366 8.00223 14.5296 8 14H6V19C6 20.6569 7.34315 22 9 22H19C20.6569 22 22 20.6569 22 19V5C22 3.34315 20.6569 2 19 2Z" fill="black"/>
<path d="M9.59 12.9999L9.29 13.2899C9.10069 13.4777 8.9942 13.7333 8.9942 13.9999C8.9942 14.2666 9.10069 14.5222 9.29 14.7099C9.47777 14.8993 9.73336 15.0057 10 15.0057C10.2666 15.0057 10.5222 14.8993 10.71 14.7099L12.71 12.7099C12.8993 12.5222 13.0058 12.2666 13.0058 11.9999C13.0058 11.7333 12.8993 11.4777 12.71 11.2899L10.71 9.28994C10.3179 8.89782 9.68212 8.89782 9.29 9.28994C8.89788 9.68206 8.89788 10.3178 9.29 10.7099L9.59 10.9999H3C2.44772 10.9999 2 11.4477 2 11.9999C2 12.5522 2.44772 12.9999 3 12.9999H9.59Z" fill="black"/>
</svg>
