<svg width="24" height="24" viewBox="0 0 24 24" fill="none" xmlns="http://www.w3.org/2000/svg">
<path fill-rule="evenodd" clip-rule="evenodd" d="M19.3199 8.37L21.4599 18.37C21.6501 19.2555 21.4301 20.1795 20.8613 20.8843C20.2924 21.589 19.4356 21.9991 18.5299 22H5.46995C4.56426 21.9991 3.70747 21.589 3.13862 20.8843C2.56977 20.1795 2.34975 19.2555 2.53995 18.37L4.67995 8.37C4.97744 6.98493 6.20329 5.99674 7.61995 6H7.99995C7.99995 3.79086 9.79081 2 11.9999 2C14.2091 2 15.9999 3.79086 15.9999 6H16.3799C17.7966 5.99674 19.0224 6.98493 19.3199 8.37ZM11.9999 4C10.8954 4 9.99995 4.89543 9.99995 6H13.9999C13.9999 4.89543 13.1045 4 11.9999 4Z" fill="black"/>
</svg>
