<svg width="24" height="24" viewBox="0 0 24 24" fill="none" xmlns="http://www.w3.org/2000/svg">
<path fill-rule="evenodd" clip-rule="evenodd" d="M8.08 15.9999C8.19 16.9999 8.5 16.9999 9.03 16.9999H20C20.2837 17.0031 20.5527 17.1267 20.74 17.3399C21.7959 17.9431 22.2646 19.2186 21.8506 20.3619C21.4365 21.5053 20.2598 22.1849 19.0625 21.9722C17.8653 21.7594 16.9948 20.716 17 19.4999C17.0013 19.3321 17.018 19.1647 17.05 18.9999H13C13.032 19.1647 13.0487 19.3321 13.05 19.4999C13.05 20.8806 11.9307 21.9999 10.55 21.9999C9.16929 21.9999 8.05 20.8806 8.05 19.4999C8.05069 19.2973 8.07758 19.0956 8.13 18.8999C6.05 18.4099 6 16.2499 6 15.0799L4.15 3.99993H3C2.44772 3.99993 2 3.55222 2 2.99993C2 2.44765 2.44772 1.99993 3 1.99993H5C5.49539 1.99356 5.92077 2.35087 6 2.83993L6.18 3.99993L21.07 4.99993C21.5948 5.03675 22.0013 5.47387 22 5.99993V12.1499C22.0046 13.721 20.7964 15.0295 19.23 15.1499L8.08 15.9999ZM17 9.99993C17 10.5522 16.5523 10.9999 16 10.9999H15V11.9999C15 12.5522 14.5523 12.9999 14 12.9999C13.4477 12.9999 13 12.5522 13 11.9999V10.9999H12C11.4477 10.9999 11 10.5522 11 9.99993C11 9.44765 11.4477 8.99993 12 8.99993H13V7.99993C13 7.44765 13.4477 6.99993 14 6.99993C14.5523 6.99993 15 7.44765 15 7.99993V8.99993H16C16.5523 8.99993 17 9.44765 17 9.99993ZM19.5 19.9999C19.2239 19.9999 19 19.7761 19 19.4999C19 19.2238 19.2239 18.9999 19.5 18.9999C19.7761 18.9999 20 19.2238 20 19.4999C20 19.7761 19.7761 19.9999 19.5 19.9999ZM10 19.4999C10 19.7761 10.2239 19.9999 10.5 19.9999C10.7761 19.9999 11 19.7761 11 19.4999C11 19.2238 10.7761 18.9999 10.5 18.9999C10.2239 18.9999 10 19.2238 10 19.4999ZM20 12.1499C20.0017 12.6724 19.6008 13.1081 19.08 13.1499L7.92 13.9999H7.85L6.52 5.99993L20 6.93993V12.1499Z" fill="#231F20"/>
</svg>
