<svg width="24" height="24" viewBox="0 0 24 24" fill="none" xmlns="http://www.w3.org/2000/svg">
<path fill-rule="evenodd" clip-rule="evenodd" d="M16 2H21C21.5523 2 22 2.44772 22 3V8C22 8.55228 21.5523 9 21 9C20.4477 9 20 8.55228 20 8V5.41L14.71 10.71C14.5222 10.8993 14.2666 11.0058 14 11.0058C13.7334 11.0058 13.4778 10.8993 13.29 10.71C13.1007 10.5222 12.9942 10.2666 12.9942 10C12.9942 9.73336 13.1007 9.47777 13.29 9.29L18.59 4H16C15.4477 4 15 3.55228 15 3C15 2.44772 15.4477 2 16 2ZM11.0058 14C11.0058 13.7334 10.8993 13.4778 10.71 13.29C10.5222 13.1007 10.2666 12.9942 10 12.9942C9.73336 12.9942 9.47777 13.1007 9.29 13.29L4 18.59V16C4 15.4477 3.55228 15 3 15C2.44772 15 2 15.4477 2 16V21C2 21.5523 2.44772 22 3 22H8C8.55228 22 9 21.5523 9 21C9 20.4477 8.55228 20 8 20H5.41L10.71 14.71C10.8993 14.5222 11.0058 14.2666 11.0058 14Z" fill="#231F20"/>
</svg>
