<svg width="24" height="24" viewBox="0 0 24 24" fill="none" xmlns="http://www.w3.org/2000/svg">
<path fill-rule="evenodd" clip-rule="evenodd" d="M22.25 17C22.2642 19.6457 20.6109 22.0138 18.1223 22.9122C15.6338 23.8106 12.8491 23.0447 11.17 21C11.1134 21.0048 11.0566 21.0048 11 21H4.89C3.32524 21.0279 2.03281 19.7846 2 18.22V5.77997C2.03281 4.21531 3.32524 2.97208 4.89 2.99997H18.11C19.6748 2.97208 20.9672 4.21531 21 5.77997L21.06 13C21.0554 13.096 21.0352 13.1905 21 13.28C21.8085 14.3519 22.2471 15.6573 22.25 17ZM14.93 17.04L15.22 16.74C15.4187 16.5512 15.5313 16.2891 15.5313 16.015C15.5313 15.7409 15.4187 15.4788 15.22 15.29C15.0322 15.1007 14.7766 14.9942 14.51 14.9942C14.2434 14.9942 13.9878 15.1007 13.8 15.29L12.8 16.29C12.4123 16.68 12.4123 17.3099 12.8 17.7L13.8 18.7C13.9871 18.8908 14.2428 18.9989 14.51 19C14.8993 18.9875 15.246 18.7502 15.3984 18.3917C15.5508 18.0333 15.4812 17.6189 15.22 17.33L14.93 17.04ZM16.8 16.74C16.4123 16.3499 16.4123 15.72 16.8 15.33C16.9878 15.1407 17.2434 15.0342 17.51 15.0342C17.7766 15.0342 18.0322 15.1407 18.22 15.33L19.22 16.33C19.6077 16.72 19.6077 17.3499 19.22 17.74L18.22 18.74C18.0329 18.9308 17.7772 19.0389 17.51 19.04C17.2428 19.0389 16.9871 18.9308 16.8 18.74C16.4123 18.3499 16.4123 17.72 16.8 17.33L17.1 17.04L16.8 16.74ZM19 11.55C18.0852 11.0303 17.0521 10.7548 16 10.75C13.9868 10.7504 12.0971 11.7205 10.9234 13.3562C9.74975 14.9918 9.43579 17.0927 10.08 19H4.89C4.42945 19.0286 4.03207 18.6803 4 18.22V5.77997C4.03207 5.31965 4.42945 4.97139 4.89 4.99997H18.11C18.3329 4.98631 18.552 5.06195 18.719 5.21019C18.886 5.35842 18.9871 5.56705 19 5.78997V11.55ZM20.25 17C20.25 14.6528 18.3472 12.75 16 12.75C13.6528 12.75 11.75 14.6528 11.75 17C11.75 19.3472 13.6528 21.25 16 21.25C18.3449 21.2445 20.2445 19.3449 20.25 17ZM16 6.99997C16.5523 6.99997 17 7.44769 17 7.99997C17 8.55226 16.5523 8.99997 16 8.99997H7C6.44772 8.99997 6 8.55226 6 7.99997C6 7.44769 6.44772 6.99997 7 6.99997H16Z" fill="#231F20"/>
</svg>
