<svg width="24" height="24" viewBox="0 0 24 24" fill="none" xmlns="http://www.w3.org/2000/svg">
<path fill-rule="evenodd" clip-rule="evenodd" d="M19 2H5C3.34315 2 2 3.34315 2 5V19C2 20.6569 3.34315 22 5 22H19C20.6569 22 22 20.6569 22 19V5C22 3.34315 20.6569 2 19 2ZM11.29 6.29C11.5761 6.00154 12.0083 5.91484 12.3835 6.07063C12.7587 6.22642 13.0024 6.59373 13 7C12.9974 7.45137 12.6927 7.84502 12.2564 7.96076C11.8201 8.07649 11.3604 7.88561 11.1344 7.49489C10.9084 7.10417 10.9721 6.61048 11.29 6.29ZM9.86 17C9.86 17.5523 10.3077 18 10.86 18H13.14C13.6923 18 14.14 17.5523 14.14 17C14.14 16.4477 13.6923 16 13.14 16H13V10C13 9.44772 12.5523 9 12 9H11C10.4477 9 10 9.44772 10 10C10 10.5523 10.4477 11 11 11V16H10.86C10.3077 16 9.86 16.4477 9.86 17Z" fill="black"/>
</svg>
