<svg width="24" height="24" viewBox="0 0 24 24" fill="none" xmlns="http://www.w3.org/2000/svg">
<path fill-rule="evenodd" clip-rule="evenodd" d="M22 19C22 20.6569 20.6569 22 19 22H5C3.34315 22 2 20.6569 2 19V5C2 3.34315 3.34315 2 5 2H19C20.6569 2 22 3.34315 22 5V19ZM14.7 11.29C15.0877 11.68 15.0877 12.31 14.7 12.7L10.7 16.7C10.31 17.0877 9.68004 17.0877 9.29 16.7C8.90228 16.31 8.90228 15.68 9.29 15.29L12.58 12L9.3 8.7C9.04813 8.44634 8.95071 8.07758 9.04445 7.73262C9.13819 7.38766 9.40884 7.11892 9.75445 7.02762C10.1001 6.93632 10.4681 7.03634 10.72 7.29L14.7 11.29ZM19 4C19.5523 4 20 4.44772 20 5V19C20 19.5523 19.5523 20 19 20H5C4.44772 20 4 19.5523 4 19V5C4 4.44772 4.44772 4 5 4H19Z" fill="#231F20"/>
</svg>
