<svg width="24" height="24" viewBox="0 0 24 24" fill="none" xmlns="http://www.w3.org/2000/svg">
<path d="M21 9.92994L14 4.30994C13.4829 3.82519 12.7234 3.70256 12.08 3.99994C11.3042 4.45838 10.8787 5.33704 11 6.22994V9.22994L4.92999 4.45994C4.4216 3.99732 3.68757 3.87956 3.05999 4.15994C2.64999 4.34994 1.99999 4.89994 1.99999 6.37994V17.6299C1.88017 18.5199 2.30585 19.3949 3.07999 19.8499C3.29289 19.9493 3.52506 20.0005 3.75999 19.9999C4.19852 19.9856 4.62018 19.8275 4.95999 19.5499L11 14.7499V17.4799C10.8802 18.3699 11.3058 19.2449 12.08 19.6999C12.2933 19.798 12.5252 19.8492 12.76 19.8499C13.2008 19.8382 13.6243 19.6759 13.96 19.3899L21 13.7699C21.6081 13.3191 21.9667 12.6069 21.9667 11.8499C21.9667 11.093 21.6081 10.3807 21 9.92994Z" fill="black"/>
</svg>
