<svg width="24" height="24" viewBox="0 0 24 24" fill="none" xmlns="http://www.w3.org/2000/svg">
<path fill-rule="evenodd" clip-rule="evenodd" d="M18.1223 21.9122C20.6109 21.0138 22.2642 18.6457 22.25 16C22.2594 14.6339 21.8203 13.3024 21 12.21C21.0047 12.1401 21.0047 12.0699 21 12V4.77997C20.9672 3.21531 19.6748 1.97208 18.11 1.99997H4.89C3.32524 1.97208 2.03281 3.21531 2 4.77997V17.22C2.03281 18.7846 3.32524 20.0279 4.89 20H11C11.0566 20.0048 11.1134 20.0048 11.17 20C12.8491 22.0447 15.6338 22.8106 18.1223 21.9122ZM16 7.99997H7C6.44772 7.99997 6 7.55226 6 6.99997C6 6.44769 6.44772 5.99997 7 5.99997H16C16.5523 5.99997 17 6.44769 17 6.99997C17 7.55226 16.5523 7.99997 16 7.99997ZM18.71 15.29L16.71 13.29C16.3179 12.8979 15.6821 12.8979 15.29 13.29C14.8979 13.6821 14.8979 14.3178 15.29 14.71L15.59 15H14C13.4477 15 13 15.4477 13 16C13 16.5523 13.4477 17 14 17H15.59L15.29 17.29C15.1007 17.4777 14.9942 17.7333 14.9942 18C14.9942 18.2666 15.1007 18.5222 15.29 18.71C15.4778 18.8993 15.7334 19.0058 16 19.0058C16.2666 19.0058 16.5222 18.8993 16.71 18.71L18.71 16.71C18.801 16.6149 18.8724 16.5027 18.92 16.38C19.02 16.1365 19.02 15.8634 18.92 15.62C18.8724 15.4972 18.801 15.3851 18.71 15.29ZM16 9.74997C17.0491 9.74827 18.0814 10.0132 19 10.52V4.77997C18.9679 4.31965 18.5705 3.97139 18.11 3.99997H4.89C4.42945 3.97139 4.03207 4.31965 4 4.77997V17.22C4.03207 17.6803 4.42945 18.0286 4.89 18H10.08C9.43579 16.0927 9.74975 13.9918 10.9234 12.3562C12.0971 10.7205 13.9868 9.75041 16 9.74997ZM16 11.75C18.3472 11.75 20.25 13.6528 20.25 16C20.2445 18.3449 18.3449 20.2445 16 20.25C13.6528 20.25 11.75 18.3472 11.75 16C11.75 13.6528 13.6528 11.75 16 11.75Z" fill="#231F20"/>
</svg>
