<svg width="24" height="24" viewBox="0 0 24 24" fill="none" xmlns="http://www.w3.org/2000/svg">
<path fill-rule="evenodd" clip-rule="evenodd" d="M21 12.21C21.0047 12.1401 21.0047 12.0699 21 12V4.77997C20.9672 3.21531 19.6748 1.97208 18.11 1.99997H4.89C3.32524 1.97208 2.03281 3.21531 2 4.77997V17.22C2.03281 18.7846 3.32524 20.0279 4.89 20H11C11.0566 20.0048 11.1134 20.0048 11.17 20C13.3211 22.7145 17.2655 23.1711 19.98 21.02C22.6945 18.8688 23.1511 14.9245 21 12.21ZM4.89 18C4.43317 18.0179 4.04218 17.6752 4 17.22V4.77997C4.04218 4.32474 4.43317 3.98207 4.89 3.99997H18.11C18.5668 3.98207 18.9578 4.32474 19 4.77997V10.52C17.0641 9.46071 14.713 9.5009 12.8144 10.6257C10.9158 11.7505 9.75103 13.7932 9.75 16C9.7515 16.6801 9.86294 17.3554 10.08 18H4.89ZM11.75 16C11.75 18.3472 13.6528 20.25 16 20.25C18.3449 20.2445 20.2445 18.3449 20.25 16C20.25 13.6528 18.3472 11.75 16 11.75C13.6528 11.75 11.75 13.6528 11.75 16ZM16 7.99997H7C6.44772 7.99997 6 7.55226 6 6.99997C6 6.44769 6.44772 5.99997 7 5.99997H16C16.5523 5.99997 17 6.44769 17 6.99997C17 7.55226 16.5523 7.99997 16 7.99997ZM18.0058 17C18.0058 16.7333 17.8993 16.4777 17.71 16.29L17 15.59V14C17 13.4477 16.5523 13 16 13C15.4477 13 15 13.4477 15 14V16C14.9985 16.2658 15.1028 16.5213 15.29 16.71L16.29 17.71C16.4778 17.8993 16.7334 18.0058 17 18.0058C17.2666 18.0058 17.5222 17.8993 17.71 17.71C17.8993 17.5222 18.0058 17.2666 18.0058 17Z" fill="#231F20"/>
</svg>
