<svg width="24" height="24" viewBox="0 0 24 24" fill="none" xmlns="http://www.w3.org/2000/svg">
<circle cx="12" cy="12" r="5" fill="black"/>
<path fill-rule="evenodd" clip-rule="evenodd" d="M11.9999 4.25C15.7699 4.25 19.2799 6.83 21.8799 11.51C22.0586 11.8194 22.0586 12.2006 21.8799 12.51C19.2799 17.19 15.7699 19.77 11.9999 19.77C8.22995 19.77 4.72995 17.19 2.12995 12.51C1.95131 12.2006 1.95131 11.8194 2.12995 11.51C4.72995 6.83 8.22995 4.25 11.9999 4.25ZM4.99995 12C4.99995 15.866 8.13395 19 11.9999 19C15.8659 19 18.9999 15.866 18.9999 12C18.9999 8.13401 15.8659 5 11.9999 5C8.13395 5 4.99995 8.13401 4.99995 12Z" fill="black"/>
</svg>
