<svg width="24" height="24" viewBox="0 0 24 24" fill="none" xmlns="http://www.w3.org/2000/svg">
<path fill-rule="evenodd" clip-rule="evenodd" d="M21.4599 18.37L19.3199 8.37C19.0224 6.98493 17.7966 5.99674 16.3799 6H15.9999C15.9999 3.79086 14.2091 2 11.9999 2C9.79081 2 7.99995 3.79086 7.99995 6H7.61995C6.20329 5.99674 4.97744 6.98493 4.67995 8.37L2.53995 18.37C2.34975 19.2555 2.56977 20.1795 3.13862 20.8843C3.70747 21.589 4.56426 21.9991 5.46995 22H18.5299C19.4356 21.9991 20.2924 21.589 20.8613 20.8843C21.4301 20.1795 21.6501 19.2555 21.4599 18.37ZM11.9999 4C13.1045 4 13.9999 4.89543 13.9999 6H9.99995C9.99995 4.89543 10.8954 4 11.9999 4ZM18.5299 20C18.829 19.998 19.1115 19.8623 19.2999 19.63C19.5045 19.4016 19.5929 19.092 19.5399 18.79L17.3999 8.79C17.2993 8.32086 16.8796 7.98933 16.3999 8H7.63995C7.16025 7.98933 6.74059 8.32086 6.63995 8.79L4.49995 18.79C4.43606 19.0858 4.5096 19.3947 4.69995 19.63C4.88837 19.8623 5.17086 19.998 5.46995 20H18.5299Z" fill="#231F20"/>
</svg>
