<svg width="24" height="24" viewBox="0 0 24 24" fill="none" xmlns="http://www.w3.org/2000/svg">
<path fill-rule="evenodd" clip-rule="evenodd" d="M4.89 1.99998H18.11C19.6709 1.97202 20.9618 3.20925 21 4.76998V10.77C20.5457 10.3205 20.0307 9.93674 19.47 9.62998C16.8538 8.23656 13.6529 8.57605 11.3872 10.4872C9.12149 12.3984 8.24741 15.4964 9.18 18.31C9.37347 18.9087 9.64946 19.4775 10 20H4.89C3.32524 20.0279 2.03281 18.7846 2 17.22V4.77998C2.03281 3.21532 3.32524 1.97208 4.89 1.99998ZM7 7.99998H16C16.5523 7.99998 17 7.55226 17 6.99998C17 6.44769 16.5523 5.99998 16 5.99998H7C6.44772 5.99998 6 6.44769 6 6.99998C6 7.55226 6.44772 7.99998 7 7.99998Z" fill="black"/>
<path fill-rule="evenodd" clip-rule="evenodd" d="M21 12.23C20.4629 11.5213 19.7811 10.935 19 10.51C18.0783 10.0124 17.0475 9.75121 16 9.75C13.9869 9.75044 12.0972 10.7206 10.9235 12.3562C9.74978 13.9918 9.43581 16.0927 10.08 18C10.3176 18.7299 10.6908 19.4085 11.18 20C12.861 22.0365 15.6405 22.7968 18.124 21.8994C20.6075 21.002 22.259 18.6406 22.25 16C22.2618 14.6397 21.8222 13.3138 21 12.23ZM15.4 16.49C15.5893 16.6778 15.6958 16.9334 15.6958 17.2C15.6958 17.4666 15.5893 17.7222 15.4 17.91C15.2113 18.0972 14.9558 18.2015 14.69 18.2C14.4242 18.2015 14.1687 18.0972 13.98 17.91L12.98 16.91C12.7907 16.7222 12.6842 16.4666 12.6842 16.2C12.6842 15.9334 12.7907 15.6778 12.98 15.49L13.98 14.49C14.2337 14.2363 14.6034 14.1373 14.9499 14.2301C15.2964 14.323 15.5671 14.5936 15.6599 14.9401C15.7528 15.2866 15.6537 15.6563 15.4 15.91L15.11 16.2L15.4 16.49ZM18.4 17.91L19.4 16.91H19.37C19.5634 16.7263 19.6753 16.4729 19.6809 16.2063C19.6866 15.9396 19.5854 15.6817 19.4 15.49L18.4 14.49C18.1464 14.2363 17.7767 14.1373 17.4302 14.2301C17.0836 14.323 16.813 14.5936 16.7201 14.9401C16.6273 15.2866 16.7264 15.6563 16.98 15.91L17.28 16.2L16.98 16.49C16.7907 16.6778 16.6842 16.9334 16.6842 17.2C16.6842 17.4666 16.7907 17.7222 16.98 17.91C17.1687 18.0972 17.4242 18.2015 17.69 18.2C17.9558 18.2015 18.2113 18.0972 18.4 17.91Z" fill="black"/>
</svg>
