<svg width="24" height="24" viewBox="0 0 24 24" fill="none" xmlns="http://www.w3.org/2000/svg">
<path d="M14 3.61003L10 2.28003V20.39L14 21.72V3.61003Z" fill="black"/>
<path d="M21.17 2.76C20.6481 2.38638 19.9786 2.28595 19.37 2.49L16 3.61V21.72L20.63 20.18C21.4486 19.9083 22.0008 19.1425 22 18.28V4.39C22.0026 3.74457 21.6935 3.13758 21.17 2.76Z" fill="black"/>
<path d="M8.00002 2.28003L3.37002 3.82003C2.55144 4.09171 1.99923 4.85755 2.00002 5.72003V19.61C1.99746 20.2555 2.30654 20.8625 2.83002 21.24C3.17393 21.4782 3.58168 21.6072 4.00002 21.61C4.21411 21.6119 4.42702 21.5781 4.63002 21.51L8.00002 20.39V2.28003Z" fill="black"/>
</svg>
