<svg width="24" height="24" viewBox="0 0 24 24" fill="none" xmlns="http://www.w3.org/2000/svg">
<path fill-rule="evenodd" clip-rule="evenodd" d="M16.54 6H19C20.6569 6 22 7.34315 22 9V17C22 18.6569 20.6569 20 19 20H5C3.34315 20 2 18.6569 2 17V9C2 7.34315 3.34315 6 5 6H7.46L8.57 4.34C9.12621 3.50271 10.0648 2.99963 11.07 3H12.93C13.9352 2.99963 14.8738 3.50271 15.43 4.34L16.54 6ZM19 18C19.5523 18 20 17.5523 20 17V9C20 8.44772 19.5523 8 19 8H16C15.6655 7.99827 15.354 7.82939 15.17 7.55L13.76 5.45C13.576 5.17062 13.2645 5.00173 12.93 5H11.07C10.7355 5.00173 10.424 5.17062 10.24 5.45L8.83 7.55C8.64602 7.82939 8.33452 7.99827 8 8H5C4.44772 8 4 8.44772 4 9V17C4 17.5523 4.44772 18 5 18H19ZM12 9C9.79086 9 8 10.7909 8 13C8 15.2091 9.79086 17 12 17C14.2091 17 16 15.2091 16 13C16 11.9391 15.5786 10.9217 14.8284 10.1716C14.0783 9.42143 13.0609 9 12 9ZM10 13C10 14.1046 10.8954 15 12 15C13.1046 15 14 14.1046 14 13C14 11.8954 13.1046 11 12 11C10.8954 11 10 11.8954 10 13Z" fill="#231F20"/>
</svg>
