<svg width="24" height="24" viewBox="0 0 24 24" fill="none" xmlns="http://www.w3.org/2000/svg">
<path d="M18 5V12C18 13.6569 16.6569 15 15 15H10.33L8.2 16.6L6.6 17.8C6.4269 17.9298 6.21637 18 6 18C5.84302 18.0028 5.688 17.9649 5.55 17.89C5.21372 17.7206 5.00114 17.3766 5 17V15C3.34315 15 2 13.6569 2 12V5C2 3.34315 3.34315 2 5 2H15C16.6569 2 18 3.34315 18 5Z" fill="black"/>
<path d="M22 9V16C22 17.6569 20.6568 19 19 19V21C18.9988 21.3766 18.7862 21.7206 18.45 21.89C18.312 21.9649 18.1569 22.0028 18 22C17.7836 22 17.5731 21.9298 17.4 21.8L13.67 19H8.99997C8.40845 18.9974 7.83092 18.8199 7.33997 18.49L10.66 16H15C17.2091 16 19 14.2091 19 12V6C20.6568 6 22 7.34315 22 9Z" fill="black"/>
</svg>
