<svg width="24" height="24" viewBox="0 0 24 24" fill="none" xmlns="http://www.w3.org/2000/svg">
<path d="M22 5V9C22 9.55228 21.5523 10 21 10C20.4477 10 20 9.55228 20 9V7.52L13.75 14.66C13.5604 14.8758 13.2872 14.9996 13 15C12.7224 15.0071 12.4543 14.8984 12.26 14.7L10.02 12.44L3.71998 19.66C3.48935 19.9463 3.12019 20.083 2.75869 20.0159C2.39719 19.9488 2.10167 19.6888 1.98916 19.3387C1.87665 18.9887 1.96529 18.6052 2.21998 18.34L9.21998 10.34C9.40204 10.1314 9.66243 10.0077 9.93913 9.99818C10.2158 9.9887 10.4841 10.0944 10.68 10.29L13 12.53L18.67 6H17C16.4477 6 16 5.55228 16 5C16 4.44772 16.4477 4 17 4H21C21.5523 4 22 4.44772 22 5Z" fill="#231F20"/>
</svg>
