<svg width="24" height="24" viewBox="0 0 24 24" fill="none" xmlns="http://www.w3.org/2000/svg">
<path fill-rule="evenodd" clip-rule="evenodd" d="M20.56 2.12C20.9386 1.94711 21.3847 2.02676 21.68 2.32C21.9732 2.61534 22.0529 3.06142 21.88 3.44L13.88 21.38C13.7189 21.7384 13.3629 21.9692 12.97 21.97H12.88C12.4544 21.9308 12.1008 21.6254 12 21.21L10.17 13.79L2.79001 12C2.37794 11.8963 2.07641 11.5435 2.03814 11.1203C1.99988 10.6971 2.23323 10.2959 2.62001 10.12L20.56 2.12ZM12 12.76L13.21 17.89L19 5L6.11001 10.79L11.27 12.03C11.6298 12.1192 11.9108 12.4002 12 12.76Z" fill="#231F20"/>
</svg>
