<svg width="24" height="24" viewBox="0 0 24 24" fill="none" xmlns="http://www.w3.org/2000/svg">
<path fill-rule="evenodd" clip-rule="evenodd" d="M16.9999 11C16.9999 13.7614 14.7614 16 11.9999 16C11.27 15.9959 10.5498 15.8321 9.88994 15.52L9.13994 16.27C10.016 16.7517 11.0002 17.0029 11.9999 17C15.3136 17 17.9999 14.3137 17.9999 11C17.9999 10.4477 18.4477 10 18.9999 10C19.5522 10 19.9999 10.4477 19.9999 11C19.9999 15.4183 16.4182 19 11.9999 19C10.4757 18.9912 8.98624 18.5434 7.70994 17.71L3.70994 21.71C3.52217 21.8993 3.26658 22.0058 2.99994 22.0058C2.7333 22.0058 2.47771 21.8993 2.28994 21.71C2.10063 21.5222 1.99414 21.2666 1.99414 21C1.99414 20.7334 2.10063 20.4778 2.28994 20.29L6.14994 16.44C4.77226 14.9631 4.0042 13.0197 3.99994 11C3.99994 10.4477 4.44765 10 4.99994 10C5.55222 10 5.99994 10.4477 5.99994 11C6.00876 12.4801 6.56436 13.9047 7.55994 15L8.27994 14.31C7.46289 13.4003 7.00752 12.2227 6.99994 11V7C7.02579 4.50035 8.89377 2.40388 11.3739 2.09103C13.854 1.77817 16.1841 3.34507 16.8299 5.76L20.2899 2.29C20.6821 1.89788 21.3178 1.89788 21.7099 2.29C22.1021 2.68212 22.1021 3.31788 21.7099 3.71L16.9999 8.41V11ZM11.9999 14C13.6568 14 14.9999 12.6569 14.9999 11V10.41L11.4699 13.95C11.6448 13.982 11.8222 13.9987 11.9999 14ZM8.99994 11V7C8.99994 5.34315 10.3431 4 11.9999 4C13.6568 4 14.9999 5.34315 14.9999 7V7.59L9.68994 12.89C9.24924 12.3582 9.00552 11.6906 8.99994 11ZM14.9999 22C15.5522 22 15.9999 21.5523 15.9999 21C15.9999 20.4477 15.5522 20 14.9999 20H8.99994C8.44765 20 7.99994 20.4477 7.99994 21C7.99994 21.5523 8.44765 22 8.99994 22H14.9999Z" fill="#231F20"/>
</svg>
