<svg width="24" height="24" viewBox="0 0 24 24" fill="none" xmlns="http://www.w3.org/2000/svg">
<path d="M21.64 7.22993L15.64 2.22993C15.3417 1.98144 14.9264 1.9281 14.575 2.09311C14.2235 2.25812 13.9994 2.61166 14 2.99993V5.04993C7.23267 5.57204 2.00598 11.2125 1.99999 17.9999V20.9999C1.99283 21.4921 2.34491 21.9163 2.82999 21.9999C2.88618 22.0103 2.94379 22.0103 2.99999 21.9999C3.42102 21.9998 3.79683 21.7359 3.93999 21.3399L5.20999 17.8599C6.58684 14.0886 10.0043 11.441 14 11.0499V12.9999C13.999 13.3905 14.2255 13.7459 14.58 13.9099C14.7118 13.97 14.8551 14.0007 15 13.9999C15.2336 14.0004 15.4601 13.919 15.64 13.7699L21.64 8.76993C21.8693 8.57995 22.0019 8.29768 22.0019 7.99993C22.0019 7.70218 21.8693 7.41991 21.64 7.22993Z" fill="black"/>
</svg>
