<svg width="24" height="24" viewBox="0 0 24 24" fill="none" xmlns="http://www.w3.org/2000/svg">
<path fill-rule="evenodd" clip-rule="evenodd" d="M5 2H19C20.6569 2 22 3.34315 22 5V19C22 20.6569 20.6569 22 19 22H5C3.34315 22 2 20.6569 2 19V5C2 3.34315 3.34315 2 5 2ZM12.71 17.71L16.71 13.71C17.1021 13.3179 17.1021 12.6821 16.71 12.29C16.3179 11.8979 15.6821 11.8979 15.29 12.29L13 14.59V7C13 6.44772 12.5523 6 12 6C11.4477 6 11 6.44772 11 7V14.59L8.71 12.29C8.45634 12.0363 8.08663 11.9373 7.74012 12.0301C7.39362 12.123 7.12297 12.3936 7.03012 12.7401C6.93728 13.0866 7.03634 13.4563 7.29 13.71L11.29 17.71C11.3851 17.801 11.4972 17.8724 11.62 17.92C11.862 18.027 12.138 18.027 12.38 17.92C12.5028 17.8724 12.6149 17.801 12.71 17.71Z" fill="black"/>
</svg>
