<svg width="24" height="24" viewBox="0 0 24 24" fill="none" xmlns="http://www.w3.org/2000/svg">
<path d="M21.7099 2.28994C21.5222 2.10063 21.2666 1.99414 20.9999 1.99414C20.7333 1.99414 20.4777 2.10063 20.2899 2.28994L16.8399 5.73994L8.25994 14.3199L7.55994 15.0199L6.13994 16.4399L2.28994 20.2899C2.10063 20.4777 1.99414 20.7333 1.99414 20.9999C1.99414 21.2666 2.10063 21.5222 2.28994 21.7099C2.47771 21.8993 2.7333 22.0057 2.99994 22.0057C3.26658 22.0057 3.52217 21.8993 3.70994 21.7099L7.70994 17.7099L9.15994 16.2599L9.90994 15.5099L13.4499 11.9999L21.7099 3.73994C21.9087 3.55114 22.0212 3.28905 22.0212 3.01494C22.0212 2.74083 21.9087 2.47873 21.7099 2.28994Z" fill="black"/>
<path d="M16.45 4.72997C15.3977 2.67593 13.0762 1.609 10.8322 2.14806C8.58808 2.68711 7.00452 4.69207 7 6.99997V11C7.00109 11.8807 7.23203 12.7459 7.67 13.51L16.45 4.72997Z" fill="black"/>
<path d="M16.9999 10.9998V9.81982L10.9299 15.8898C11.282 15.9621 11.6405 15.9989 11.9999 15.9998C14.7614 15.9998 16.9999 13.7612 16.9999 10.9998Z" fill="black"/>
<path d="M6.99989 14.23C6.35643 13.275 6.00861 12.1515 5.99989 11C5.99989 10.4477 5.55217 10 4.99989 10C4.4476 10 3.99989 10.4477 3.99989 11C3.99739 12.6771 4.52599 14.3119 5.50989 15.67L6.99989 14.23Z" fill="black"/>
<path d="M19 10C18.4477 10 18 10.4477 18 11C18 14.3137 15.3137 17 12 17C11.3611 17.0037 10.726 16.9023 10.12 16.7L8.58997 18.23C11.067 19.3972 13.9689 19.2164 16.2819 17.7507C18.5949 16.2851 19.9976 13.7383 20 11C20 10.4477 19.5523 10 19 10Z" fill="black"/>
<path d="M15 20H9C8.44772 20 8 20.4477 8 21C8 21.5523 8.44772 22 9 22H15C15.5523 22 16 21.5523 16 21C16 20.4477 15.5523 20 15 20Z" fill="black"/>
</svg>
