<svg width="24" height="24" viewBox="0 0 24 24" fill="none" xmlns="http://www.w3.org/2000/svg">
<path d="M13.57 2H10.44V4.39H13.57V2Z" stroke="black" stroke-width="2" stroke-linecap="round" stroke-linejoin="round"/>
<path d="M10.65 16.21V17.53C10.65 17.53 11.56 19.48 12 19.48C12.44 19.48 13.35 17.53 13.35 17.53V16.21H10.65Z" stroke="black" stroke-width="2" stroke-linecap="round" stroke-linejoin="round"/>
<path d="M9.75 16.21C9.36832 16.2113 8.99014 16.1373 8.63714 15.9921C8.28414 15.847 7.96327 15.6336 7.69292 15.3642C7.42257 15.0947 7.20806 14.7746 7.0617 14.4221C6.91533 14.0696 6.83999 13.6917 6.84 13.31V6.63C6.84 6.03591 7.076 5.46616 7.49608 5.04608C7.91616 4.626 8.48591 4.39 9.08 4.39H14.92C15.5141 4.39 16.0838 4.626 16.5039 5.04608C16.924 5.46616 17.16 6.03591 17.16 6.63V13.31C17.16 13.6917 17.0847 14.0696 16.9383 14.4221C16.7919 14.7746 16.5774 15.0947 16.3071 15.3642C16.0367 15.6336 15.7158 15.847 15.3628 15.9921C15.0098 16.1373 14.6317 16.2113 14.25 16.21H9.75Z" stroke="black" stroke-width="2" stroke-linecap="round" stroke-linejoin="round"/>
<path d="M12 19.56V22" stroke="black" stroke-width="2" stroke-linecap="round" stroke-linejoin="round"/>
<path d="M12.94 12.12H17.16" stroke="black" stroke-width="2" stroke-linecap="round" stroke-linejoin="round"/>
<path d="M12.94 8.28H17.16" stroke="black" stroke-width="2" stroke-linecap="round" stroke-linejoin="round"/>
</svg>
