<svg width="24" height="24" viewBox="0 0 24 24" fill="none" xmlns="http://www.w3.org/2000/svg">
<path d="M18.17 13.07C17.7755 13.0735 17.3869 12.9737 17.0429 12.7805C16.6989 12.5873 16.4115 12.3074 16.2092 11.9686C16.007 11.6298 15.897 11.244 15.8901 10.8495C15.8832 10.455 15.9797 10.0656 16.17 9.72L16.43 9.24L16.17 8.77C15.9797 8.42438 15.8832 8.03497 15.8901 7.64048C15.897 7.24599 16.007 6.86018 16.2092 6.52141C16.4115 6.18264 16.6989 5.90273 17.0429 5.7095C17.3869 5.51627 17.7755 5.41646 18.17 5.42C18.6725 5.41869 19.1703 5.51652 19.6349 5.70791C20.0995 5.89929 20.5218 6.18046 20.8776 6.53531C21.2334 6.89016 21.5157 7.31172 21.7083 7.77584C21.9009 8.23995 22 8.73751 22 9.24C22.0013 9.74333 21.9032 10.242 21.7111 10.7072C21.5191 11.1725 21.2371 11.5953 20.8812 11.9512C20.5253 12.3071 20.1025 12.5891 19.6372 12.7811C19.172 12.9732 18.6733 13.0713 18.17 13.07Z" stroke="black" stroke-width="2" stroke-linecap="round" stroke-linejoin="round"/>
<path d="M13.27 18.58V12.43C13.2687 12.0116 13.35 11.597 13.5092 11.21C13.6684 10.823 13.9024 10.4713 14.1979 10.1749C14.4933 9.87858 14.8443 9.64345 15.2308 9.48301C15.6172 9.32258 16.0316 9.24 16.45 9.24" stroke="black" stroke-width="2" stroke-linecap="round" stroke-linejoin="round"/>
<path d="M5.83 13.07C6.22453 13.0735 6.61311 12.9737 6.95711 12.7805C7.3011 12.5873 7.58851 12.3074 7.79076 11.9686C7.99301 11.6298 8.10305 11.244 8.10993 10.8495C8.11681 10.455 8.0203 10.0656 7.83 9.72L7.57 9.24L7.83 8.77C8.0203 8.42438 8.11681 8.03497 8.10993 7.64048C8.10305 7.24599 7.99301 6.86018 7.79076 6.52141C7.58851 6.18264 7.3011 5.90273 6.95711 5.7095C6.61311 5.51627 6.22453 5.41646 5.83 5.42C5.32751 5.41869 4.82969 5.51652 4.36508 5.70791C3.90046 5.89929 3.47816 6.18046 3.12238 6.53531C2.7666 6.89016 2.48433 7.31172 2.29173 7.77584C2.09913 8.23995 2 8.73751 2 9.24C1.99868 9.74333 2.09684 10.242 2.28885 10.7072C2.48086 11.1725 2.76293 11.5953 3.11884 11.9512C3.47475 12.3071 3.89749 12.5891 4.36276 12.7811C4.82803 12.9732 5.32666 13.0713 5.83 13.07Z" stroke="black" stroke-width="2" stroke-linecap="round" stroke-linejoin="round"/>
<path d="M10.73 18.58V12.43C10.7313 12.0116 10.65 11.597 10.4908 11.21C10.3316 10.823 10.0976 10.4713 9.80215 10.1749C9.50672 9.87858 9.15572 9.64345 8.76925 9.48301C8.38278 9.32258 7.96845 9.24 7.55 9.24" stroke="black" stroke-width="2" stroke-linecap="round" stroke-linejoin="round"/>
<path d="M10.73 18.58V5.42" stroke="black" stroke-width="2" stroke-linecap="round" stroke-linejoin="round"/>
<path d="M13.27 18.58V5.42" stroke="black" stroke-width="2" stroke-linecap="round" stroke-linejoin="round"/>
</svg>
