<svg width="24" height="24" viewBox="0 0 24 24" fill="none" xmlns="http://www.w3.org/2000/svg">
<path d="M13.63 6.19V11.39C13.6313 12.2343 13.4658 13.0705 13.143 13.8507C12.8203 14.6309 12.3465 15.3396 11.749 15.9361C11.1516 16.5327 10.4421 17.0053 9.66146 17.3269C8.8808 17.6484 8.0443 17.8126 7.20001 17.81H2.00001C1.99824 16.2827 2.29862 14.7701 2.88385 13.3594C3.46909 11.9486 4.32762 10.6676 5.41001 9.59C5.70893 9.29113 6.02266 9.00744 6.35001 8.74C8.41592 7.08657 10.9839 6.18706 13.63 6.19Z" stroke="black" stroke-width="2" stroke-linecap="round" stroke-linejoin="round"/>
<path d="M22 8.71C22 10.2642 21.3826 11.7547 20.2836 12.8536C19.1847 13.9526 17.6941 14.57 16.14 14.57H12.79C13.3401 13.6004 13.6295 12.5048 13.63 11.39V6.19H19.49C19.8204 6.19 20.1476 6.25525 20.4528 6.38201C20.758 6.50878 21.0352 6.69456 21.2684 6.92869C21.5016 7.16283 21.6862 7.44071 21.8118 7.74639C21.9373 8.05208 22.0013 8.37954 22 8.71Z" stroke="black" stroke-width="2" stroke-linecap="round" stroke-linejoin="round"/>
</svg>
