<svg width="24" height="24" viewBox="0 0 24 24" fill="none" xmlns="http://www.w3.org/2000/svg">
<path d="M15.78 9.31H15.56C15.2015 9.30967 14.8568 9.44785 14.5978 9.69568C14.3387 9.94352 14.1855 10.2818 14.17 10.64L14.93 17.42C14.9736 17.8627 15.1399 18.2845 15.4103 18.6378C15.6806 18.9912 16.0441 19.2621 16.46 19.42L18.46 20.16C18.781 20.2778 19.1236 20.3254 19.4645 20.2996C19.8055 20.2737 20.1369 20.1749 20.4365 20.01C20.736 19.8451 20.9967 19.6178 21.2008 19.3435C21.405 19.0692 21.548 18.7543 21.62 18.42L21.86 17.25C22.0704 16.3194 22.0737 15.3539 21.8696 14.4219C21.6655 13.4898 21.259 12.6141 20.679 11.8565C20.0989 11.099 19.3594 10.4782 18.5128 10.0382C17.6663 9.59813 16.7333 9.34953 15.78 9.31Z" stroke="black" stroke-width="2" stroke-linecap="round" stroke-linejoin="round"/>
<path d="M9.83 10.64C9.81453 10.2818 9.66128 9.94352 9.40226 9.69568C9.14324 9.44785 8.79849 9.30967 8.44 9.31H8.22C7.27179 9.35206 6.34424 9.60095 5.50235 10.0392C4.66046 10.4775 3.92459 11.0946 3.34631 11.8472C2.76802 12.5999 2.3613 13.4698 2.15465 14.3962C1.948 15.3226 1.94641 16.2829 2.15 17.21L2.39 18.38C2.46205 18.7143 2.60499 19.0292 2.80917 19.3035C3.01334 19.5778 3.274 19.8051 3.57354 19.97C3.87308 20.1349 4.20452 20.2337 4.54549 20.2596C4.88645 20.2854 5.229 20.2378 5.55 20.12L7.55 19.38C7.9659 19.2221 8.32946 18.9512 8.59976 18.5978C8.87007 18.2445 9.03639 17.8227 9.08 17.38L9.83 10.64Z" stroke="black" stroke-width="2" stroke-linecap="round" stroke-linejoin="round"/>
<path d="M12 3.73V9.31L6.32999 14.98" stroke="black" stroke-width="2" stroke-linecap="round" stroke-linejoin="round"/>
<path d="M12 9.31L17.67 14.98" stroke="black" stroke-width="2" stroke-linecap="round" stroke-linejoin="round"/>
</svg>
