<svg width="24" height="24" viewBox="0 0 24 24" fill="none" xmlns="http://www.w3.org/2000/svg">
<path d="M7.01001 15.31H12.72" stroke="black" stroke-width="2" stroke-linecap="round" stroke-linejoin="round"/>
<path d="M7.01001 17.94H10.5" stroke="black" stroke-width="2" stroke-linecap="round" stroke-linejoin="round"/>
<path d="M8.25 5.28V8.83" stroke="black" stroke-width="2" stroke-linecap="round" stroke-linejoin="round"/>
<path d="M10.03 7.05H6.48001" stroke="black" stroke-width="2" stroke-linecap="round" stroke-linejoin="round"/>
<path d="M15.68 2H5.3C4.89687 2 4.51025 2.16014 4.2252 2.4452C3.94014 2.73025 3.78 3.11687 3.78 3.52V20.52C3.79043 20.9162 3.95516 21.2926 4.23909 21.569C4.52303 21.8455 4.90371 22.0001 5.3 22H18.7C19.1031 22 19.4897 21.8399 19.7748 21.5548C20.0599 21.2697 20.22 20.8831 20.22 20.48V6.54L15.68 2Z" stroke="black" stroke-width="2" stroke-linecap="round" stroke-linejoin="round"/>
<path d="M15.68 6.54H20.22L15.68 2V6.54Z" stroke="black" stroke-width="2" stroke-linecap="round" stroke-linejoin="round"/>
</svg>
