<svg width="24" height="24" viewBox="0 0 24 24" fill="none" xmlns="http://www.w3.org/2000/svg">
<path d="M5.24001 2C4.4921 2 3.77482 2.29711 3.24597 2.82596C2.71712 3.35481 2.42001 4.07209 2.42001 4.82V19.18C2.42001 19.9279 2.71712 20.6452 3.24597 21.174C3.77482 21.7029 4.4921 22 5.24001 22H6.61001V2H5.24001Z" stroke="black" stroke-width="2" stroke-linecap="round" stroke-linejoin="round"/>
<path d="M6.60999 2V22H20.06C20.4631 22 20.8497 21.8399 21.1348 21.5548C21.4198 21.2697 21.58 20.8831 21.58 20.48V3.48C21.5696 3.08384 21.4048 2.70742 21.1209 2.43096C20.837 2.1545 20.4563 1.99986 20.06 2H6.60999Z" stroke="black" stroke-width="2" stroke-linecap="round" stroke-linejoin="round"/>
<path d="M18.26 10.53H15.56V7.83H12.63V10.53H9.92001V13.47H12.63V16.17H15.56V13.47H18.26V10.53Z" stroke="black" stroke-width="2" stroke-linecap="round" stroke-linejoin="round"/>
</svg>
