<svg width="24" height="24" viewBox="0 0 24 24" fill="none" xmlns="http://www.w3.org/2000/svg">
<path d="M17.76 4.29H6.25001C5.41054 4.29 4.73001 4.97053 4.73001 5.81V20.48C4.73001 21.3195 5.41054 22 6.25001 22H17.76C18.5995 22 19.28 21.3195 19.28 20.48V5.81C19.28 4.97053 18.5995 4.29 17.76 4.29Z" stroke="black" stroke-width="2" stroke-linecap="round" stroke-linejoin="round"/>
<path d="M10.77 2H13.24C13.7342 2.00264 14.2073 2.20083 14.5558 2.55123C14.9044 2.90164 15.1 3.37577 15.1 3.87V4.29H8.89999V3.87C8.89999 3.37405 9.09701 2.8984 9.4477 2.54771C9.7984 2.19702 10.274 2 10.77 2Z" stroke="black" stroke-width="2" stroke-linecap="round" stroke-linejoin="round"/>
<path d="M8.60001 15.59H14.21" stroke="black" stroke-width="2" stroke-linecap="round" stroke-linejoin="round"/>
<path d="M8.60001 18.18H12.02" stroke="black" stroke-width="2" stroke-linecap="round" stroke-linejoin="round"/>
<path d="M12 7.71V11.21" stroke="black" stroke-width="2" stroke-linecap="round" stroke-linejoin="round"/>
<path d="M13.75 9.46H10.25" stroke="black" stroke-width="2" stroke-linecap="round" stroke-linejoin="round"/>
</svg>
