<svg width="24" height="24" viewBox="0 0 24 24" fill="none" xmlns="http://www.w3.org/2000/svg">
<path d="M18.03 3.85H14.04V13.11H18.03V3.85Z" stroke="black" stroke-width="2" stroke-linecap="round" stroke-linejoin="round"/>
<path d="M13.21 13.11H18.86" stroke="black" stroke-width="2" stroke-linecap="round" stroke-linejoin="round"/>
<path d="M16.03 2V3.85" stroke="black" stroke-width="2" stroke-linecap="round" stroke-linejoin="round"/>
<path d="M17.2 15.53H14.86" stroke="black" stroke-width="2" stroke-linecap="round" stroke-linejoin="round"/>
<path d="M20.08 19.12V21.46" stroke="black" stroke-width="2" stroke-linecap="round" stroke-linejoin="round"/>
<path d="M6.68001 14.61C6.68001 15.6947 7.11092 16.735 7.87794 17.5021C8.64496 18.2691 9.68527 18.7 10.77 18.7H13.77V21.46H10.77C8.97621 21.4526 7.25623 20.7449 5.97666 19.4878C4.69708 18.2306 3.9591 16.5234 3.92001 14.73C3.90668 13.8252 4.07705 12.9271 4.42082 12.09C4.76459 11.2529 5.2746 10.4943 5.92001 9.86C6.57337 9.19631 7.35143 8.66824 8.20949 8.30614C9.06755 7.94404 9.98869 7.75504 10.92 7.75H14V10.51H10.77C9.68435 10.5126 8.64407 10.9458 7.87733 11.7144C7.11059 12.483 6.68 13.5243 6.68001 14.61Z" stroke="black" stroke-width="2" stroke-linecap="round" stroke-linejoin="round"/>
<path d="M17.66 18.58H13.77V22H17.66V18.58Z" stroke="black" stroke-width="2" stroke-linecap="round" stroke-linejoin="round"/>
</svg>
