<svg width="24" height="24" viewBox="0 0 24 24" fill="none" xmlns="http://www.w3.org/2000/svg">
<path d="M14.53 22H9.47002C9.12581 22.001 8.78531 21.9289 8.47106 21.7885C8.15681 21.648 7.87599 21.4424 7.64719 21.1852C7.41839 20.9281 7.24683 20.6252 7.14388 20.2968C7.04093 19.9683 7.00894 19.6218 7.05002 19.28L8.16002 13.28C8.22711 12.7249 8.48357 12.2099 8.88616 11.8219C9.28875 11.4339 9.81283 11.1966 10.37 11.15H13.63C14.1872 11.1966 14.7113 11.4339 15.1139 11.8219C15.5165 12.2099 15.7729 12.7249 15.84 13.28L16.95 19.28C16.9911 19.6218 16.9591 19.9683 16.8562 20.2968C16.7532 20.6252 16.5817 20.9281 16.3529 21.1852C16.1241 21.4424 15.8432 21.648 15.529 21.7885C15.2147 21.9289 14.8742 22.001 14.53 22Z" stroke="black" stroke-width="2" stroke-linecap="round" stroke-linejoin="round"/>
<path d="M13.09 3C13.0641 2.73021 12.9386 2.47976 12.738 2.29751C12.5374 2.11526 12.2761 2.01428 12.005 2.01428C11.734 2.01428 11.4727 2.11526 11.2721 2.29751C11.0715 2.47976 10.9459 2.73021 10.92 3L10.27 7.9H13.73L13.09 3Z" stroke="black" stroke-width="2" stroke-linecap="round" stroke-linejoin="round"/>
<path d="M13.63 11.13H10.37L10.46 7.87H13.54L13.63 11.13Z" stroke="black" stroke-width="2" stroke-linecap="round" stroke-linejoin="round"/>
<path d="M8.84998 7.87H15.15" stroke="black" stroke-width="2" stroke-linecap="round" stroke-linejoin="round"/>
</svg>
