<svg width="24" height="24" viewBox="0 0 24 24" fill="none" xmlns="http://www.w3.org/2000/svg">
<path d="M15.42 8.67V10C15.4227 10.4666 15.3166 10.9274 15.11 11.3457C14.9034 11.7641 14.6021 12.1285 14.23 12.41L13.35 13.08C12.8975 13.4207 12.3464 13.605 11.78 13.605C11.2136 13.605 10.6625 13.4207 10.21 13.08L9.34 12.41C8.96606 12.1295 8.66282 11.7656 8.45448 11.3472C8.24613 10.9287 8.13844 10.4674 8.14 10V8.67C8.14 7.78152 8.49295 6.92944 9.12119 6.30119C9.74944 5.67294 10.6015 5.32 11.49 5.32H12.08C12.5198 5.31867 12.9556 5.40449 13.362 5.57249C13.7685 5.7405 14.1377 5.98737 14.4482 6.29884C14.7588 6.61031 15.0045 6.98022 15.1713 7.3872C15.3381 7.79418 15.4226 8.23017 15.42 8.67Z" stroke="black" stroke-width="2" stroke-linecap="round" stroke-linejoin="round"/>
<path d="M6.14001 19.57C6.14001 18.0158 6.75741 16.5253 7.85637 15.4264C8.95533 14.3274 10.4458 13.71 12 13.71C13.5542 13.71 15.0447 14.3274 16.1437 15.4264C17.2426 16.5253 17.86 18.0158 17.86 19.57C17.86 22.81 6.14001 22.81 6.14001 19.57Z" stroke="black" stroke-width="2" stroke-linecap="round" stroke-linejoin="round"/>
<path d="M14.54 4.17V6.29H14.44C13.817 5.657 12.9681 5.29731 12.08 5.29H11.49C10.6019 5.29731 9.753 5.657 9.13 6.29H9V4.17C8.99999 3.88334 9.05677 3.59952 9.16707 3.33493C9.27737 3.07034 9.43901 2.83023 9.64263 2.62846C9.84626 2.4267 10.0878 2.26728 10.3534 2.15941C10.619 2.05154 10.9034 1.99736 11.19 2H12.37C12.9455 2 13.4975 2.22863 13.9044 2.63558C14.3114 3.04253 14.54 3.59448 14.54 4.17Z" stroke="black" stroke-width="2" stroke-linecap="round" stroke-linejoin="round"/>
<path d="M12 17.66L9.01999 14.68" stroke="black" stroke-width="2" stroke-linecap="round" stroke-linejoin="round"/>
<path d="M12 17.66L14.98 14.68" stroke="black" stroke-width="2" stroke-linecap="round" stroke-linejoin="round"/>
</svg>
