<svg width="24" height="24" viewBox="0 0 24 24" fill="none" xmlns="http://www.w3.org/2000/svg">
<path d="M12 7.41C12.9223 7.41 13.67 6.66231 13.67 5.74C13.67 4.81768 12.9223 4.07 12 4.07C11.0777 4.07 10.33 4.81768 10.33 5.74C10.33 6.66231 11.0777 7.41 12 7.41Z" stroke="black" stroke-width="2" stroke-linecap="round" stroke-linejoin="round"/>
<path d="M11.12 4.32C10.8796 4.47124 10.6812 4.68063 10.5431 4.92882C10.405 5.17701 10.3317 5.45599 10.33 5.74C10.325 5.7999 10.325 5.8601 10.33 5.92H9.82999C9.37381 5.92 8.93632 6.10121 8.61376 6.42378C8.2912 6.74634 8.10999 7.18383 8.10999 7.64V10.05H15.89V7.64C15.89 7.18383 15.7088 6.74634 15.3862 6.42378C15.0636 6.10121 14.6262 5.92 14.17 5.92H13.66C13.6649 5.8601 13.6649 5.7999 13.66 5.74C13.6582 5.45599 13.5849 5.17701 13.4469 4.92882C13.3088 4.68063 13.1104 4.47124 12.87 4.32" stroke="black" stroke-width="2" stroke-linecap="round" stroke-linejoin="round"/>
<path d="M8.10999 16.38V20.28C8.10999 20.5059 8.15447 20.7295 8.24091 20.9382C8.32735 21.1469 8.45405 21.3365 8.61376 21.4962C8.77348 21.6559 8.96309 21.7826 9.17177 21.8691C9.38045 21.9555 9.60411 22 9.82999 22H14.17C14.6262 22 15.0636 21.8188 15.3862 21.4962C15.7088 21.1737 15.89 20.7362 15.89 20.28V16.38H8.10999Z" stroke="black" stroke-width="2" stroke-linecap="round" stroke-linejoin="round"/>
<path d="M15.89 10.05H8.10999V16.38H15.89V10.05Z" stroke="black" stroke-width="2" stroke-linecap="round" stroke-linejoin="round"/>
<path d="M11.01 2H12.99" stroke="black" stroke-width="2" stroke-linecap="round" stroke-linejoin="round"/>
</svg>
