<svg width="24" height="24" viewBox="0 0 24 24" fill="none" xmlns="http://www.w3.org/2000/svg">
<path d="M16.36 6.36C16.36 6.93257 16.2472 7.49952 16.0281 8.0285C15.809 8.55748 15.4878 9.03813 15.083 9.44299C14.6781 9.84785 14.1975 10.169 13.6685 10.3881C13.1395 10.6072 12.5726 10.72 12 10.72C11.4274 10.72 10.8605 10.6072 10.3315 10.3881C9.80252 10.169 9.32188 9.84785 8.91701 9.44299C8.51215 9.03813 8.191 8.55748 7.97189 8.0285C7.75277 7.49952 7.64 6.93257 7.64 6.36H3.53C3.33039 6.35869 3.13247 6.3967 2.94755 6.47187C2.76264 6.54704 2.59433 6.6579 2.45226 6.79812C2.31018 6.93834 2.19712 7.10517 2.11952 7.28908C2.04192 7.47299 2.00131 7.67039 2 7.87V22H22V7.87C21.9974 7.46861 21.8361 7.08456 21.5513 6.80166C21.2665 6.51876 20.8814 6.35999 20.48 6.36H16.36Z" stroke="black" stroke-width="2" stroke-linecap="round" stroke-linejoin="round"/>
<path d="M12 10.72C14.408 10.72 16.36 8.76796 16.36 6.36C16.36 3.95204 14.408 2 12 2C9.59205 2 7.64001 3.95204 7.64001 6.36C7.64001 8.76796 9.59205 10.72 12 10.72Z" stroke="black" stroke-width="2" stroke-linecap="round" stroke-linejoin="round"/>
<path d="M10.73 13.64H4.60999V22H10.73V13.64Z" stroke="black" stroke-width="2" stroke-linecap="round" stroke-linejoin="round"/>
<path d="M19.79 13.64H13.67V18.27H19.79V13.64Z" stroke="black" stroke-width="2" stroke-linecap="round" stroke-linejoin="round"/>
<path d="M13.51 4.84C13.7274 5.05752 13.8495 5.35247 13.8495 5.66C13.8495 5.96753 13.7274 6.26248 13.51 6.48L12.12 7.87C12.0131 7.97734 11.8861 8.06251 11.7463 8.12063C11.6064 8.17874 11.4565 8.20866 11.305 8.20866C11.1535 8.20866 11.0036 8.17874 10.8637 8.12063C10.7239 8.06251 10.5969 7.97734 10.49 7.87C10.3674 7.74852 10.274 7.60079 10.2169 7.43796C10.1597 7.27513 10.1403 7.10144 10.16 6.93C10.1812 6.6672 10.2987 6.42149 10.49 6.24L11.88 4.84C11.9869 4.73267 12.1139 4.64749 12.2537 4.58938C12.3936 4.53126 12.5435 4.50134 12.695 4.50134C12.8465 4.50134 12.9964 4.53126 13.1363 4.58938C13.2761 4.64749 13.4031 4.73267 13.51 4.84Z" stroke="black" stroke-width="2" stroke-linecap="round" stroke-linejoin="round"/>
</svg>
