<svg width="24" height="24" viewBox="0 0 24 24" fill="none" xmlns="http://www.w3.org/2000/svg">
<path d="M20.28 17.54C20.28 18.7229 19.8101 19.8573 18.9737 20.6937C18.1373 21.5301 17.0029 22 15.82 22H8.18001C7.25542 21.9986 6.35413 21.7098 5.60084 21.1737C4.84755 20.6376 4.27951 19.8806 3.97529 19.0075C3.67107 18.1344 3.64573 17.1883 3.90276 16.3001C4.1598 15.412 4.6865 14.6257 5.41001 14.05C6.19107 13.4084 7.16922 13.0553 8.18001 13.05H15.82C16.4086 13.0487 16.9916 13.1641 17.5353 13.3896C18.079 13.6152 18.5725 13.9463 18.9873 14.3639C19.4022 14.7815 19.73 15.2773 19.9519 15.8225C20.1738 16.3676 20.2853 16.9514 20.28 17.54Z" stroke="black" stroke-width="2" stroke-linecap="round" stroke-linejoin="round"/>
<path d="M12 13.08V22" stroke="black" stroke-width="2" stroke-linecap="round" stroke-linejoin="round"/>
<path d="M19.16 6.46C19.1614 7.04479 19.0473 7.62411 18.8242 8.16468C18.6011 8.70525 18.2735 9.19643 17.86 9.61L14.39 13.08H8.18C7.16921 13.0853 6.19106 13.4384 5.41 14.08C4.93412 13.2317 4.74792 12.2513 4.87967 11.2876C5.01141 10.3239 5.4539 9.42946 6.14 8.74L11.55 3.3C12.1743 2.67714 12.9693 2.25335 13.8344 2.08219C14.6995 1.91103 15.5959 2.00019 16.4104 2.33838C17.2248 2.67658 17.9208 3.24864 18.4102 3.98226C18.8996 4.71587 19.1605 5.57812 19.16 6.46Z" stroke="black" stroke-width="2" stroke-linecap="round" stroke-linejoin="round"/>
<path d="M8.85001 6.01L15.15 12.32" stroke="black" stroke-width="2" stroke-linecap="round" stroke-linejoin="round"/>
</svg>
