<svg width="24" height="24" viewBox="0 0 24 24" fill="none" xmlns="http://www.w3.org/2000/svg">
<path d="M20.8414 3.03338L20.9616 3.15359C21.2894 3.48138 21.5494 3.87052 21.7268 4.2988C21.9042 4.72708 21.9955 5.18611 21.9955 5.64967C21.9955 6.11324 21.9042 6.57227 21.7268 7.00055C21.5494 7.42883 21.2894 7.81797 20.9616 8.14576L11.2036 17.9038L6.09118 12.7915L15.8563 3.02631C16.519 2.3674 17.4159 1.99813 18.3503 1.99946C19.2848 2.00079 20.1806 2.3726 20.8414 3.03338Z" stroke="black" stroke-width="2" stroke-linecap="round" stroke-linejoin="round"/>
<path d="M7.92999 19.1L4.89999 16.07" stroke="black" stroke-width="2" stroke-linecap="round" stroke-linejoin="round"/>
<path d="M6.42 17.58L2 22" stroke="black" stroke-width="2" stroke-linecap="round" stroke-linejoin="round"/>
<path d="M16.85 7.15L12.74 11.26" stroke="black" stroke-width="2" stroke-linecap="round" stroke-linejoin="round"/>
</svg>
