<svg width="24" height="24" viewBox="0 0 24 24" fill="none" xmlns="http://www.w3.org/2000/svg">
<g clip-path="url(#clip0_171_1541)">
<path d="M20.713 7.12798L20.467 7.69398C20.4286 7.78615 20.3637 7.86488 20.2806 7.92026C20.1975 7.97563 20.0999 8.00518 20 8.00518C19.9001 8.00518 19.8025 7.97563 19.7194 7.92026C19.6363 7.86488 19.5714 7.78615 19.533 7.69398L19.287 7.12798C18.8545 6.1267 18.0624 5.3239 17.067 4.87798L16.308 4.53898C16.2159 4.49662 16.1379 4.42875 16.0832 4.34341C16.0286 4.25807 15.9995 4.15884 15.9995 4.05748C15.9995 3.95613 16.0286 3.8569 16.0832 3.77155C16.1379 3.68621 16.2159 3.61834 16.308 3.57598L17.025 3.25698C18.0454 2.79836 18.8511 1.96586 19.276 0.930982L19.53 0.319982C19.5672 0.225336 19.632 0.14408 19.716 0.0868075C19.8 0.0295345 19.8993 -0.00109863 20.001 -0.00109863C20.1027 -0.00109863 20.202 0.0295345 20.286 0.0868075C20.37 0.14408 20.4348 0.225336 20.472 0.319982L20.725 0.929982C21.1495 1.96506 21.9548 2.79792 22.975 3.25698L23.693 3.57698C23.7848 3.61946 23.8625 3.68732 23.917 3.77256C23.9715 3.85779 24.0004 3.95683 24.0004 4.05798C24.0004 4.15914 23.9715 4.25818 23.917 4.34341C23.8625 4.42864 23.7848 4.4965 23.693 4.53898L22.933 4.87698C21.9378 5.32335 21.1461 6.12651 20.714 7.12798M8.5 6.99998C8.5 6.4477 8.05228 5.99998 7.5 5.99998C6.94772 5.99998 6.5 6.4477 6.5 6.99998V17C6.5 17.5523 6.94772 18 7.5 18C8.05228 18 8.5 17.5523 8.5 17V6.99998ZM4 11C4 10.4477 3.55228 9.99998 3 9.99998C2.44772 9.99998 2 10.4477 2 11V13C2 13.5523 2.44772 14 3 14C3.55228 14 4 13.5523 4 13V11ZM13 2.99998C13 2.4477 12.5523 1.99998 12 1.99998C11.4477 1.99998 11 2.4477 11 2.99998V21C11 21.5523 11.4477 22 12 22C12.5523 22 13 21.5523 13 21V2.99998ZM17.5 8.99998C17.5 8.4477 17.0523 7.99998 16.5 7.99998C15.9477 7.99998 15.5 8.4477 15.5 8.99998V17C15.5 17.5523 15.9477 18 16.5 18C17.0523 18 17.5 17.5523 17.5 17V8.99998ZM22 11C22 10.4477 21.5523 9.99998 21 9.99998C20.4477 9.99998 20 10.4477 20 11V13C20 13.5523 20.4477 14 21 14C21.5523 14 22 13.5523 22 13V11Z" fill="#4856FF"/>
</g>
<defs>
<clipPath id="clip0_171_1541">
<rect width="24" height="24" fill="white"/>
</clipPath>
</defs>
</svg>
