<svg width="24" height="24" viewBox="0 0 24 24" fill="none" xmlns="http://www.w3.org/2000/svg">
<path d="M14.94 2H9.06V4.39H14.94V2Z" stroke="black" stroke-width="2" stroke-linecap="round" stroke-linejoin="round"/>
<path d="M16.66 10.23C16.4154 9.53781 16.0191 8.90912 15.5 8.39002C14.9809 7.87091 14.3522 7.47455 13.66 7.23V4.39H10.36V7.19C9.6678 7.43456 9.03911 7.83091 8.52 8.35002C8.0009 8.86912 7.60454 9.49781 7.35999 10.19C7.17493 10.7066 7.08021 11.2512 7.07999 11.8V22H16.96V11.84C16.9534 11.2901 16.8519 10.7454 16.66 10.23Z" stroke="black" stroke-width="2" stroke-linecap="round" stroke-linejoin="round"/>
<path d="M12 12.77V16.19" stroke="black" stroke-width="2" stroke-linecap="round" stroke-linejoin="round"/>
<path d="M13.71 14.48H10.29" stroke="black" stroke-width="2" stroke-linecap="round" stroke-linejoin="round"/>
<path d="M16.66 10.23H7.34C7.15494 10.7466 7.06022 11.2912 7.06 11.84V18.73H16.94V11.84C16.9398 11.2912 16.8451 10.7466 16.66 10.23Z" stroke="black" stroke-width="2" stroke-linecap="round" stroke-linejoin="round"/>
</svg>
