<svg width="24" height="24" viewBox="0 0 24 24" fill="none" xmlns="http://www.w3.org/2000/svg">
<path d="M12 22C11.0026 21.9969 10.0347 21.6611 9.24977 21.0458C8.46481 20.4305 7.90764 19.5708 7.66655 18.6029C7.42545 17.6351 7.51422 16.6145 7.91879 15.7028C8.32335 14.7912 9.02058 14.0406 9.89999 13.57V4.12C9.89868 3.84291 9.95195 3.56827 10.0568 3.31177C10.1616 3.05527 10.3159 2.82193 10.5109 2.62507C10.7059 2.42821 10.9378 2.27168 11.1933 2.16443C11.4488 2.05719 11.7229 2.00131 12 2C12.5623 2 13.1015 2.22336 13.4991 2.62093C13.8966 3.01851 14.12 3.55774 14.12 4.12V13.57C15.0009 14.0414 15.699 14.7937 16.1032 15.7074C16.5074 16.6211 16.5947 17.6437 16.351 18.6126C16.1073 19.5816 15.5467 20.4412 14.7584 21.055C13.97 21.6688 12.9991 22.0014 12 22Z" stroke="black" stroke-width="2" stroke-linecap="round" stroke-linejoin="round"/>
<path d="M12 19.17C12.9554 19.17 13.73 18.3955 13.73 17.44C13.73 16.4846 12.9554 15.71 12 15.71C11.0445 15.71 10.27 16.4846 10.27 17.44C10.27 18.3955 11.0445 19.17 12 19.17Z" stroke="black" stroke-width="2" stroke-linecap="round" stroke-linejoin="round"/>
</svg>
