<svg width="24" height="24" viewBox="0 0 24 24" fill="none" xmlns="http://www.w3.org/2000/svg">
<path d="M17.27 11.37V2C16.5486 2 15.8568 2.28657 15.3467 2.79667C14.8366 3.30677 14.55 3.99861 14.55 4.72V10.93H15.06C15.8192 10.9217 16.5718 11.0715 17.27 11.37Z" stroke="black" stroke-width="2" stroke-linecap="round" stroke-linejoin="round"/>
<path d="M11.75 12H5.50998C4.78859 12 4.09675 12.2866 3.58665 12.7967C3.07655 13.3068 2.78998 13.9986 2.78998 14.72H9.78998C10.1473 13.633 10.8319 12.6829 11.75 12Z" stroke="black" stroke-width="2" stroke-linecap="round" stroke-linejoin="round"/>
<path d="M7.91998 12V9.00999" stroke="black" stroke-width="2" stroke-linecap="round" stroke-linejoin="round"/>
<path d="M9.12001 6.28H14.55V9H6.55001V8.88C6.54734 8.19481 6.8163 7.53648 7.29799 7.04917C7.77967 6.56186 8.43483 6.28528 9.12001 6.28Z" stroke="black" stroke-width="2" stroke-linecap="round" stroke-linejoin="round"/>
<path d="M17.27 2H21.21" stroke="black" stroke-width="2" stroke-linecap="round" stroke-linejoin="round"/>
<path d="M4.52998 22C5.49095 22 6.26998 21.221 6.26998 20.26C6.26998 19.299 5.49095 18.52 4.52998 18.52C3.569 18.52 2.78998 19.299 2.78998 20.26C2.78998 21.221 3.569 22 4.52998 22Z" stroke="black" stroke-width="2" stroke-linecap="round" stroke-linejoin="round"/>
<path d="M4.53003 14.72V18.52" stroke="black" stroke-width="2" stroke-linecap="round" stroke-linejoin="round"/>
<path d="M15.06 22C18.1252 22 20.61 19.5152 20.61 16.45C20.61 13.3848 18.1252 10.9 15.06 10.9C11.9948 10.9 9.51001 13.3848 9.51001 16.45C9.51001 19.5152 11.9948 22 15.06 22Z" stroke="black" stroke-width="2" stroke-linecap="round" stroke-linejoin="round"/>
</svg>
